%TF.GenerationSoftware,KiCad,Pcbnew,10.0.3-2.fc44*%
%TF.CreationDate,2026-06-25T23:19:12+05:30*%
%TF.ProjectId,MCU Datalogger,4d435520-4461-4746-916c-6f676765722e,1*%
%TF.SameCoordinates,Original*%
%TF.FileFunction,Legend,Top*%
%TF.FilePolarity,Positive*%
%FSLAX46Y46*%
G04 Gerber Fmt 4.6, Leading zero omitted, Abs format (unit mm)*
G04 Created by KiCad (PCBNEW 10.0.3-2.fc44) date 2026-06-25 23:19:12*
%MOMM*%
%LPD*%
G01*
G04 APERTURE LIST*
%ADD10C,0.100000*%
%ADD11C,0.125000*%
%ADD12C,0.120000*%
%ADD13C,0.127000*%
%ADD14C,0.200000*%
G04 APERTURE END LIST*
D10*
X167517466Y-83601877D02*
X167484133Y-83668544D01*
X167484133Y-83668544D02*
X167484133Y-83768544D01*
X167484133Y-83768544D02*
X167517466Y-83868544D01*
X167517466Y-83868544D02*
X167584133Y-83935211D01*
X167584133Y-83935211D02*
X167650800Y-83968544D01*
X167650800Y-83968544D02*
X167784133Y-84001877D01*
X167784133Y-84001877D02*
X167884133Y-84001877D01*
X167884133Y-84001877D02*
X168017466Y-83968544D01*
X168017466Y-83968544D02*
X168084133Y-83935211D01*
X168084133Y-83935211D02*
X168150800Y-83868544D01*
X168150800Y-83868544D02*
X168184133Y-83768544D01*
X168184133Y-83768544D02*
X168184133Y-83701877D01*
X168184133Y-83701877D02*
X168150800Y-83601877D01*
X168150800Y-83601877D02*
X168117466Y-83568544D01*
X168117466Y-83568544D02*
X167884133Y-83568544D01*
X167884133Y-83568544D02*
X167884133Y-83701877D01*
X168184133Y-83268544D02*
X167484133Y-83268544D01*
X167484133Y-83268544D02*
X168184133Y-82868544D01*
X168184133Y-82868544D02*
X167484133Y-82868544D01*
X168184133Y-82535211D02*
X167484133Y-82535211D01*
X167484133Y-82535211D02*
X167484133Y-82368544D01*
X167484133Y-82368544D02*
X167517466Y-82268544D01*
X167517466Y-82268544D02*
X167584133Y-82201878D01*
X167584133Y-82201878D02*
X167650800Y-82168544D01*
X167650800Y-82168544D02*
X167784133Y-82135211D01*
X167784133Y-82135211D02*
X167884133Y-82135211D01*
X167884133Y-82135211D02*
X168017466Y-82168544D01*
X168017466Y-82168544D02*
X168084133Y-82201878D01*
X168084133Y-82201878D02*
X168150800Y-82268544D01*
X168150800Y-82268544D02*
X168184133Y-82368544D01*
X168184133Y-82368544D02*
X168184133Y-82535211D01*
X167484133Y-81274544D02*
X168184133Y-81041211D01*
X168184133Y-81041211D02*
X167484133Y-80807877D01*
X168117466Y-80174544D02*
X168150800Y-80207877D01*
X168150800Y-80207877D02*
X168184133Y-80307877D01*
X168184133Y-80307877D02*
X168184133Y-80374544D01*
X168184133Y-80374544D02*
X168150800Y-80474544D01*
X168150800Y-80474544D02*
X168084133Y-80541211D01*
X168084133Y-80541211D02*
X168017466Y-80574544D01*
X168017466Y-80574544D02*
X167884133Y-80607877D01*
X167884133Y-80607877D02*
X167784133Y-80607877D01*
X167784133Y-80607877D02*
X167650800Y-80574544D01*
X167650800Y-80574544D02*
X167584133Y-80541211D01*
X167584133Y-80541211D02*
X167517466Y-80474544D01*
X167517466Y-80474544D02*
X167484133Y-80374544D01*
X167484133Y-80374544D02*
X167484133Y-80307877D01*
X167484133Y-80307877D02*
X167517466Y-80207877D01*
X167517466Y-80207877D02*
X167550800Y-80174544D01*
X168117466Y-79474544D02*
X168150800Y-79507877D01*
X168150800Y-79507877D02*
X168184133Y-79607877D01*
X168184133Y-79607877D02*
X168184133Y-79674544D01*
X168184133Y-79674544D02*
X168150800Y-79774544D01*
X168150800Y-79774544D02*
X168084133Y-79841211D01*
X168084133Y-79841211D02*
X168017466Y-79874544D01*
X168017466Y-79874544D02*
X167884133Y-79907877D01*
X167884133Y-79907877D02*
X167784133Y-79907877D01*
X167784133Y-79907877D02*
X167650800Y-79874544D01*
X167650800Y-79874544D02*
X167584133Y-79841211D01*
X167584133Y-79841211D02*
X167517466Y-79774544D01*
X167517466Y-79774544D02*
X167484133Y-79674544D01*
X167484133Y-79674544D02*
X167484133Y-79607877D01*
X167484133Y-79607877D02*
X167517466Y-79507877D01*
X167517466Y-79507877D02*
X167550800Y-79474544D01*
D11*
X210263666Y-98078833D02*
X210263666Y-97378833D01*
X210563666Y-97445500D02*
X210596999Y-97412166D01*
X210596999Y-97412166D02*
X210663666Y-97378833D01*
X210663666Y-97378833D02*
X210830333Y-97378833D01*
X210830333Y-97378833D02*
X210896999Y-97412166D01*
X210896999Y-97412166D02*
X210930333Y-97445500D01*
X210930333Y-97445500D02*
X210963666Y-97512166D01*
X210963666Y-97512166D02*
X210963666Y-97578833D01*
X210963666Y-97578833D02*
X210930333Y-97678833D01*
X210930333Y-97678833D02*
X210530333Y-98078833D01*
X210530333Y-98078833D02*
X210963666Y-98078833D01*
X211663666Y-98012166D02*
X211630333Y-98045500D01*
X211630333Y-98045500D02*
X211530333Y-98078833D01*
X211530333Y-98078833D02*
X211463666Y-98078833D01*
X211463666Y-98078833D02*
X211363666Y-98045500D01*
X211363666Y-98045500D02*
X211297000Y-97978833D01*
X211297000Y-97978833D02*
X211263666Y-97912166D01*
X211263666Y-97912166D02*
X211230333Y-97778833D01*
X211230333Y-97778833D02*
X211230333Y-97678833D01*
X211230333Y-97678833D02*
X211263666Y-97545500D01*
X211263666Y-97545500D02*
X211297000Y-97478833D01*
X211297000Y-97478833D02*
X211363666Y-97412166D01*
X211363666Y-97412166D02*
X211463666Y-97378833D01*
X211463666Y-97378833D02*
X211530333Y-97378833D01*
X211530333Y-97378833D02*
X211630333Y-97412166D01*
X211630333Y-97412166D02*
X211663666Y-97445500D01*
X207881666Y-76742833D02*
X207881666Y-76042833D01*
X208614999Y-76676166D02*
X208581666Y-76709500D01*
X208581666Y-76709500D02*
X208481666Y-76742833D01*
X208481666Y-76742833D02*
X208414999Y-76742833D01*
X208414999Y-76742833D02*
X208314999Y-76709500D01*
X208314999Y-76709500D02*
X208248333Y-76642833D01*
X208248333Y-76642833D02*
X208214999Y-76576166D01*
X208214999Y-76576166D02*
X208181666Y-76442833D01*
X208181666Y-76442833D02*
X208181666Y-76342833D01*
X208181666Y-76342833D02*
X208214999Y-76209500D01*
X208214999Y-76209500D02*
X208248333Y-76142833D01*
X208248333Y-76142833D02*
X208314999Y-76076166D01*
X208314999Y-76076166D02*
X208414999Y-76042833D01*
X208414999Y-76042833D02*
X208481666Y-76042833D01*
X208481666Y-76042833D02*
X208581666Y-76076166D01*
X208581666Y-76076166D02*
X208614999Y-76109500D01*
X208881666Y-76709500D02*
X208981666Y-76742833D01*
X208981666Y-76742833D02*
X209148333Y-76742833D01*
X209148333Y-76742833D02*
X209214999Y-76709500D01*
X209214999Y-76709500D02*
X209248333Y-76676166D01*
X209248333Y-76676166D02*
X209281666Y-76609500D01*
X209281666Y-76609500D02*
X209281666Y-76542833D01*
X209281666Y-76542833D02*
X209248333Y-76476166D01*
X209248333Y-76476166D02*
X209214999Y-76442833D01*
X209214999Y-76442833D02*
X209148333Y-76409500D01*
X209148333Y-76409500D02*
X209014999Y-76376166D01*
X209014999Y-76376166D02*
X208948333Y-76342833D01*
X208948333Y-76342833D02*
X208914999Y-76309500D01*
X208914999Y-76309500D02*
X208881666Y-76242833D01*
X208881666Y-76242833D02*
X208881666Y-76176166D01*
X208881666Y-76176166D02*
X208914999Y-76109500D01*
X208914999Y-76109500D02*
X208948333Y-76076166D01*
X208948333Y-76076166D02*
X209014999Y-76042833D01*
X209014999Y-76042833D02*
X209181666Y-76042833D01*
X209181666Y-76042833D02*
X209281666Y-76076166D01*
X209581666Y-76742833D02*
X209581666Y-76042833D01*
X209581666Y-76042833D02*
X209848333Y-76042833D01*
X209848333Y-76042833D02*
X209915000Y-76076166D01*
X209915000Y-76076166D02*
X209948333Y-76109500D01*
X209948333Y-76109500D02*
X209981666Y-76176166D01*
X209981666Y-76176166D02*
X209981666Y-76276166D01*
X209981666Y-76276166D02*
X209948333Y-76342833D01*
X209948333Y-76342833D02*
X209915000Y-76376166D01*
X209915000Y-76376166D02*
X209848333Y-76409500D01*
X209848333Y-76409500D02*
X209581666Y-76409500D01*
X207298833Y-84203333D02*
X206965500Y-84436666D01*
X207298833Y-84603333D02*
X206598833Y-84603333D01*
X206598833Y-84603333D02*
X206598833Y-84336666D01*
X206598833Y-84336666D02*
X206632166Y-84270000D01*
X206632166Y-84270000D02*
X206665500Y-84236666D01*
X206665500Y-84236666D02*
X206732166Y-84203333D01*
X206732166Y-84203333D02*
X206832166Y-84203333D01*
X206832166Y-84203333D02*
X206898833Y-84236666D01*
X206898833Y-84236666D02*
X206932166Y-84270000D01*
X206932166Y-84270000D02*
X206965500Y-84336666D01*
X206965500Y-84336666D02*
X206965500Y-84603333D01*
X207265500Y-83936666D02*
X207298833Y-83836666D01*
X207298833Y-83836666D02*
X207298833Y-83670000D01*
X207298833Y-83670000D02*
X207265500Y-83603333D01*
X207265500Y-83603333D02*
X207232166Y-83570000D01*
X207232166Y-83570000D02*
X207165500Y-83536666D01*
X207165500Y-83536666D02*
X207098833Y-83536666D01*
X207098833Y-83536666D02*
X207032166Y-83570000D01*
X207032166Y-83570000D02*
X206998833Y-83603333D01*
X206998833Y-83603333D02*
X206965500Y-83670000D01*
X206965500Y-83670000D02*
X206932166Y-83803333D01*
X206932166Y-83803333D02*
X206898833Y-83870000D01*
X206898833Y-83870000D02*
X206865500Y-83903333D01*
X206865500Y-83903333D02*
X206798833Y-83936666D01*
X206798833Y-83936666D02*
X206732166Y-83936666D01*
X206732166Y-83936666D02*
X206665500Y-83903333D01*
X206665500Y-83903333D02*
X206632166Y-83870000D01*
X206632166Y-83870000D02*
X206598833Y-83803333D01*
X206598833Y-83803333D02*
X206598833Y-83636666D01*
X206598833Y-83636666D02*
X206632166Y-83536666D01*
X206598833Y-83336666D02*
X206598833Y-82936666D01*
X207298833Y-83136666D02*
X206598833Y-83136666D01*
D10*
X207427800Y-81922856D02*
X207451609Y-81851428D01*
X207451609Y-81851428D02*
X207451609Y-81732380D01*
X207451609Y-81732380D02*
X207427800Y-81684761D01*
X207427800Y-81684761D02*
X207403990Y-81660952D01*
X207403990Y-81660952D02*
X207356371Y-81637142D01*
X207356371Y-81637142D02*
X207308752Y-81637142D01*
X207308752Y-81637142D02*
X207261133Y-81660952D01*
X207261133Y-81660952D02*
X207237323Y-81684761D01*
X207237323Y-81684761D02*
X207213514Y-81732380D01*
X207213514Y-81732380D02*
X207189704Y-81827618D01*
X207189704Y-81827618D02*
X207165895Y-81875237D01*
X207165895Y-81875237D02*
X207142085Y-81899047D01*
X207142085Y-81899047D02*
X207094466Y-81922856D01*
X207094466Y-81922856D02*
X207046847Y-81922856D01*
X207046847Y-81922856D02*
X206999228Y-81899047D01*
X206999228Y-81899047D02*
X206975419Y-81875237D01*
X206975419Y-81875237D02*
X206951609Y-81827618D01*
X206951609Y-81827618D02*
X206951609Y-81708571D01*
X206951609Y-81708571D02*
X206975419Y-81637142D01*
X207403990Y-81137143D02*
X207427800Y-81160952D01*
X207427800Y-81160952D02*
X207451609Y-81232381D01*
X207451609Y-81232381D02*
X207451609Y-81280000D01*
X207451609Y-81280000D02*
X207427800Y-81351428D01*
X207427800Y-81351428D02*
X207380180Y-81399047D01*
X207380180Y-81399047D02*
X207332561Y-81422857D01*
X207332561Y-81422857D02*
X207237323Y-81446666D01*
X207237323Y-81446666D02*
X207165895Y-81446666D01*
X207165895Y-81446666D02*
X207070657Y-81422857D01*
X207070657Y-81422857D02*
X207023038Y-81399047D01*
X207023038Y-81399047D02*
X206975419Y-81351428D01*
X206975419Y-81351428D02*
X206951609Y-81280000D01*
X206951609Y-81280000D02*
X206951609Y-81232381D01*
X206951609Y-81232381D02*
X206975419Y-81160952D01*
X206975419Y-81160952D02*
X206999228Y-81137143D01*
X207451609Y-80922857D02*
X206951609Y-80922857D01*
X207451609Y-80637143D02*
X207165895Y-80851428D01*
X206951609Y-80637143D02*
X207237323Y-80922857D01*
D11*
X207425833Y-79839999D02*
X206725833Y-79839999D01*
X206725833Y-79839999D02*
X207225833Y-79606666D01*
X207225833Y-79606666D02*
X206725833Y-79373332D01*
X206725833Y-79373332D02*
X207425833Y-79373332D01*
X207425833Y-79039999D02*
X206725833Y-79039999D01*
X207392500Y-78739999D02*
X207425833Y-78639999D01*
X207425833Y-78639999D02*
X207425833Y-78473333D01*
X207425833Y-78473333D02*
X207392500Y-78406666D01*
X207392500Y-78406666D02*
X207359166Y-78373333D01*
X207359166Y-78373333D02*
X207292500Y-78339999D01*
X207292500Y-78339999D02*
X207225833Y-78339999D01*
X207225833Y-78339999D02*
X207159166Y-78373333D01*
X207159166Y-78373333D02*
X207125833Y-78406666D01*
X207125833Y-78406666D02*
X207092500Y-78473333D01*
X207092500Y-78473333D02*
X207059166Y-78606666D01*
X207059166Y-78606666D02*
X207025833Y-78673333D01*
X207025833Y-78673333D02*
X206992500Y-78706666D01*
X206992500Y-78706666D02*
X206925833Y-78739999D01*
X206925833Y-78739999D02*
X206859166Y-78739999D01*
X206859166Y-78739999D02*
X206792500Y-78706666D01*
X206792500Y-78706666D02*
X206759166Y-78673333D01*
X206759166Y-78673333D02*
X206725833Y-78606666D01*
X206725833Y-78606666D02*
X206725833Y-78439999D01*
X206725833Y-78439999D02*
X206759166Y-78339999D01*
X206725833Y-77906666D02*
X206725833Y-77773332D01*
X206725833Y-77773332D02*
X206759166Y-77706666D01*
X206759166Y-77706666D02*
X206825833Y-77639999D01*
X206825833Y-77639999D02*
X206959166Y-77606666D01*
X206959166Y-77606666D02*
X207192500Y-77606666D01*
X207192500Y-77606666D02*
X207325833Y-77639999D01*
X207325833Y-77639999D02*
X207392500Y-77706666D01*
X207392500Y-77706666D02*
X207425833Y-77773332D01*
X207425833Y-77773332D02*
X207425833Y-77906666D01*
X207425833Y-77906666D02*
X207392500Y-77973332D01*
X207392500Y-77973332D02*
X207325833Y-78039999D01*
X207325833Y-78039999D02*
X207192500Y-78073332D01*
X207192500Y-78073332D02*
X206959166Y-78073332D01*
X206959166Y-78073332D02*
X206825833Y-78039999D01*
X206825833Y-78039999D02*
X206759166Y-77973332D01*
X206759166Y-77973332D02*
X206725833Y-77906666D01*
X214914166Y-77806666D02*
X214214166Y-78040000D01*
X214214166Y-78040000D02*
X214914166Y-78273333D01*
X214280833Y-78906666D02*
X214247500Y-78873333D01*
X214247500Y-78873333D02*
X214214166Y-78773333D01*
X214214166Y-78773333D02*
X214214166Y-78706666D01*
X214214166Y-78706666D02*
X214247500Y-78606666D01*
X214247500Y-78606666D02*
X214314166Y-78540000D01*
X214314166Y-78540000D02*
X214380833Y-78506666D01*
X214380833Y-78506666D02*
X214514166Y-78473333D01*
X214514166Y-78473333D02*
X214614166Y-78473333D01*
X214614166Y-78473333D02*
X214747500Y-78506666D01*
X214747500Y-78506666D02*
X214814166Y-78540000D01*
X214814166Y-78540000D02*
X214880833Y-78606666D01*
X214880833Y-78606666D02*
X214914166Y-78706666D01*
X214914166Y-78706666D02*
X214914166Y-78773333D01*
X214914166Y-78773333D02*
X214880833Y-78873333D01*
X214880833Y-78873333D02*
X214847500Y-78906666D01*
X214280833Y-79606666D02*
X214247500Y-79573333D01*
X214247500Y-79573333D02*
X214214166Y-79473333D01*
X214214166Y-79473333D02*
X214214166Y-79406666D01*
X214214166Y-79406666D02*
X214247500Y-79306666D01*
X214247500Y-79306666D02*
X214314166Y-79240000D01*
X214314166Y-79240000D02*
X214380833Y-79206666D01*
X214380833Y-79206666D02*
X214514166Y-79173333D01*
X214514166Y-79173333D02*
X214614166Y-79173333D01*
X214614166Y-79173333D02*
X214747500Y-79206666D01*
X214747500Y-79206666D02*
X214814166Y-79240000D01*
X214814166Y-79240000D02*
X214880833Y-79306666D01*
X214880833Y-79306666D02*
X214914166Y-79406666D01*
X214914166Y-79406666D02*
X214914166Y-79473333D01*
X214914166Y-79473333D02*
X214880833Y-79573333D01*
X214880833Y-79573333D02*
X214847500Y-79606666D01*
D10*
X214188390Y-80494285D02*
X214688390Y-80494285D01*
X214688390Y-80494285D02*
X214331247Y-80660952D01*
X214331247Y-80660952D02*
X214688390Y-80827618D01*
X214688390Y-80827618D02*
X214188390Y-80827618D01*
X214688390Y-81160952D02*
X214688390Y-81256190D01*
X214688390Y-81256190D02*
X214664580Y-81303809D01*
X214664580Y-81303809D02*
X214616961Y-81351428D01*
X214616961Y-81351428D02*
X214521723Y-81375238D01*
X214521723Y-81375238D02*
X214355057Y-81375238D01*
X214355057Y-81375238D02*
X214259819Y-81351428D01*
X214259819Y-81351428D02*
X214212200Y-81303809D01*
X214212200Y-81303809D02*
X214188390Y-81256190D01*
X214188390Y-81256190D02*
X214188390Y-81160952D01*
X214188390Y-81160952D02*
X214212200Y-81113333D01*
X214212200Y-81113333D02*
X214259819Y-81065714D01*
X214259819Y-81065714D02*
X214355057Y-81041905D01*
X214355057Y-81041905D02*
X214521723Y-81041905D01*
X214521723Y-81041905D02*
X214616961Y-81065714D01*
X214616961Y-81065714D02*
X214664580Y-81113333D01*
X214664580Y-81113333D02*
X214688390Y-81160952D01*
X214212200Y-81565715D02*
X214188390Y-81637143D01*
X214188390Y-81637143D02*
X214188390Y-81756191D01*
X214188390Y-81756191D02*
X214212200Y-81803810D01*
X214212200Y-81803810D02*
X214236009Y-81827619D01*
X214236009Y-81827619D02*
X214283628Y-81851429D01*
X214283628Y-81851429D02*
X214331247Y-81851429D01*
X214331247Y-81851429D02*
X214378866Y-81827619D01*
X214378866Y-81827619D02*
X214402676Y-81803810D01*
X214402676Y-81803810D02*
X214426485Y-81756191D01*
X214426485Y-81756191D02*
X214450295Y-81660953D01*
X214450295Y-81660953D02*
X214474104Y-81613334D01*
X214474104Y-81613334D02*
X214497914Y-81589524D01*
X214497914Y-81589524D02*
X214545533Y-81565715D01*
X214545533Y-81565715D02*
X214593152Y-81565715D01*
X214593152Y-81565715D02*
X214640771Y-81589524D01*
X214640771Y-81589524D02*
X214664580Y-81613334D01*
X214664580Y-81613334D02*
X214688390Y-81660953D01*
X214688390Y-81660953D02*
X214688390Y-81780000D01*
X214688390Y-81780000D02*
X214664580Y-81851429D01*
X214188390Y-82065714D02*
X214688390Y-82065714D01*
D11*
X214880833Y-83286667D02*
X214914166Y-83220000D01*
X214914166Y-83220000D02*
X214914166Y-83120000D01*
X214914166Y-83120000D02*
X214880833Y-83020000D01*
X214880833Y-83020000D02*
X214814166Y-82953334D01*
X214814166Y-82953334D02*
X214747500Y-82920000D01*
X214747500Y-82920000D02*
X214614166Y-82886667D01*
X214614166Y-82886667D02*
X214514166Y-82886667D01*
X214514166Y-82886667D02*
X214380833Y-82920000D01*
X214380833Y-82920000D02*
X214314166Y-82953334D01*
X214314166Y-82953334D02*
X214247500Y-83020000D01*
X214247500Y-83020000D02*
X214214166Y-83120000D01*
X214214166Y-83120000D02*
X214214166Y-83186667D01*
X214214166Y-83186667D02*
X214247500Y-83286667D01*
X214247500Y-83286667D02*
X214280833Y-83320000D01*
X214280833Y-83320000D02*
X214514166Y-83320000D01*
X214514166Y-83320000D02*
X214514166Y-83186667D01*
X214214166Y-83620000D02*
X214914166Y-83620000D01*
X214914166Y-83620000D02*
X214214166Y-84020000D01*
X214214166Y-84020000D02*
X214914166Y-84020000D01*
X214214166Y-84353333D02*
X214914166Y-84353333D01*
X214914166Y-84353333D02*
X214914166Y-84520000D01*
X214914166Y-84520000D02*
X214880833Y-84620000D01*
X214880833Y-84620000D02*
X214814166Y-84686667D01*
X214814166Y-84686667D02*
X214747500Y-84720000D01*
X214747500Y-84720000D02*
X214614166Y-84753333D01*
X214614166Y-84753333D02*
X214514166Y-84753333D01*
X214514166Y-84753333D02*
X214380833Y-84720000D01*
X214380833Y-84720000D02*
X214314166Y-84686667D01*
X214314166Y-84686667D02*
X214247500Y-84620000D01*
X214247500Y-84620000D02*
X214214166Y-84520000D01*
X214214166Y-84520000D02*
X214214166Y-84353333D01*
X209932500Y-96276999D02*
X209965833Y-96176999D01*
X209965833Y-96176999D02*
X209965833Y-96010333D01*
X209965833Y-96010333D02*
X209932500Y-95943666D01*
X209932500Y-95943666D02*
X209899166Y-95910333D01*
X209899166Y-95910333D02*
X209832500Y-95876999D01*
X209832500Y-95876999D02*
X209765833Y-95876999D01*
X209765833Y-95876999D02*
X209699166Y-95910333D01*
X209699166Y-95910333D02*
X209665833Y-95943666D01*
X209665833Y-95943666D02*
X209632500Y-96010333D01*
X209632500Y-96010333D02*
X209599166Y-96143666D01*
X209599166Y-96143666D02*
X209565833Y-96210333D01*
X209565833Y-96210333D02*
X209532500Y-96243666D01*
X209532500Y-96243666D02*
X209465833Y-96276999D01*
X209465833Y-96276999D02*
X209399166Y-96276999D01*
X209399166Y-96276999D02*
X209332500Y-96243666D01*
X209332500Y-96243666D02*
X209299166Y-96210333D01*
X209299166Y-96210333D02*
X209265833Y-96143666D01*
X209265833Y-96143666D02*
X209265833Y-95976999D01*
X209265833Y-95976999D02*
X209299166Y-95876999D01*
X209899166Y-95176999D02*
X209932500Y-95210332D01*
X209932500Y-95210332D02*
X209965833Y-95310332D01*
X209965833Y-95310332D02*
X209965833Y-95376999D01*
X209965833Y-95376999D02*
X209932500Y-95476999D01*
X209932500Y-95476999D02*
X209865833Y-95543666D01*
X209865833Y-95543666D02*
X209799166Y-95576999D01*
X209799166Y-95576999D02*
X209665833Y-95610332D01*
X209665833Y-95610332D02*
X209565833Y-95610332D01*
X209565833Y-95610332D02*
X209432500Y-95576999D01*
X209432500Y-95576999D02*
X209365833Y-95543666D01*
X209365833Y-95543666D02*
X209299166Y-95476999D01*
X209299166Y-95476999D02*
X209265833Y-95376999D01*
X209265833Y-95376999D02*
X209265833Y-95310332D01*
X209265833Y-95310332D02*
X209299166Y-95210332D01*
X209299166Y-95210332D02*
X209332500Y-95176999D01*
X209965833Y-94876999D02*
X209265833Y-94876999D01*
X209965833Y-94476999D02*
X209565833Y-94776999D01*
X209265833Y-94476999D02*
X209665833Y-94876999D01*
X209932500Y-93559999D02*
X209965833Y-93459999D01*
X209965833Y-93459999D02*
X209965833Y-93293333D01*
X209965833Y-93293333D02*
X209932500Y-93226666D01*
X209932500Y-93226666D02*
X209899166Y-93193333D01*
X209899166Y-93193333D02*
X209832500Y-93159999D01*
X209832500Y-93159999D02*
X209765833Y-93159999D01*
X209765833Y-93159999D02*
X209699166Y-93193333D01*
X209699166Y-93193333D02*
X209665833Y-93226666D01*
X209665833Y-93226666D02*
X209632500Y-93293333D01*
X209632500Y-93293333D02*
X209599166Y-93426666D01*
X209599166Y-93426666D02*
X209565833Y-93493333D01*
X209565833Y-93493333D02*
X209532500Y-93526666D01*
X209532500Y-93526666D02*
X209465833Y-93559999D01*
X209465833Y-93559999D02*
X209399166Y-93559999D01*
X209399166Y-93559999D02*
X209332500Y-93526666D01*
X209332500Y-93526666D02*
X209299166Y-93493333D01*
X209299166Y-93493333D02*
X209265833Y-93426666D01*
X209265833Y-93426666D02*
X209265833Y-93259999D01*
X209265833Y-93259999D02*
X209299166Y-93159999D01*
X209965833Y-92859999D02*
X209265833Y-92859999D01*
X209265833Y-92859999D02*
X209265833Y-92693332D01*
X209265833Y-92693332D02*
X209299166Y-92593332D01*
X209299166Y-92593332D02*
X209365833Y-92526666D01*
X209365833Y-92526666D02*
X209432500Y-92493332D01*
X209432500Y-92493332D02*
X209565833Y-92459999D01*
X209565833Y-92459999D02*
X209665833Y-92459999D01*
X209665833Y-92459999D02*
X209799166Y-92493332D01*
X209799166Y-92493332D02*
X209865833Y-92526666D01*
X209865833Y-92526666D02*
X209932500Y-92593332D01*
X209932500Y-92593332D02*
X209965833Y-92693332D01*
X209965833Y-92693332D02*
X209965833Y-92859999D01*
X209765833Y-92193332D02*
X209765833Y-91859999D01*
X209965833Y-92259999D02*
X209265833Y-92026666D01*
X209265833Y-92026666D02*
X209965833Y-91793332D01*
X209265833Y-91103333D02*
X209965833Y-90870000D01*
X209965833Y-90870000D02*
X209265833Y-90636666D01*
X209899166Y-90003333D02*
X209932500Y-90036666D01*
X209932500Y-90036666D02*
X209965833Y-90136666D01*
X209965833Y-90136666D02*
X209965833Y-90203333D01*
X209965833Y-90203333D02*
X209932500Y-90303333D01*
X209932500Y-90303333D02*
X209865833Y-90370000D01*
X209865833Y-90370000D02*
X209799166Y-90403333D01*
X209799166Y-90403333D02*
X209665833Y-90436666D01*
X209665833Y-90436666D02*
X209565833Y-90436666D01*
X209565833Y-90436666D02*
X209432500Y-90403333D01*
X209432500Y-90403333D02*
X209365833Y-90370000D01*
X209365833Y-90370000D02*
X209299166Y-90303333D01*
X209299166Y-90303333D02*
X209265833Y-90203333D01*
X209265833Y-90203333D02*
X209265833Y-90136666D01*
X209265833Y-90136666D02*
X209299166Y-90036666D01*
X209299166Y-90036666D02*
X209332500Y-90003333D01*
X209899166Y-89303333D02*
X209932500Y-89336666D01*
X209932500Y-89336666D02*
X209965833Y-89436666D01*
X209965833Y-89436666D02*
X209965833Y-89503333D01*
X209965833Y-89503333D02*
X209932500Y-89603333D01*
X209932500Y-89603333D02*
X209865833Y-89670000D01*
X209865833Y-89670000D02*
X209799166Y-89703333D01*
X209799166Y-89703333D02*
X209665833Y-89736666D01*
X209665833Y-89736666D02*
X209565833Y-89736666D01*
X209565833Y-89736666D02*
X209432500Y-89703333D01*
X209432500Y-89703333D02*
X209365833Y-89670000D01*
X209365833Y-89670000D02*
X209299166Y-89603333D01*
X209299166Y-89603333D02*
X209265833Y-89503333D01*
X209265833Y-89503333D02*
X209265833Y-89436666D01*
X209265833Y-89436666D02*
X209299166Y-89336666D01*
X209299166Y-89336666D02*
X209332500Y-89303333D01*
X209299166Y-88163332D02*
X209265833Y-88229999D01*
X209265833Y-88229999D02*
X209265833Y-88329999D01*
X209265833Y-88329999D02*
X209299166Y-88429999D01*
X209299166Y-88429999D02*
X209365833Y-88496666D01*
X209365833Y-88496666D02*
X209432500Y-88529999D01*
X209432500Y-88529999D02*
X209565833Y-88563332D01*
X209565833Y-88563332D02*
X209665833Y-88563332D01*
X209665833Y-88563332D02*
X209799166Y-88529999D01*
X209799166Y-88529999D02*
X209865833Y-88496666D01*
X209865833Y-88496666D02*
X209932500Y-88429999D01*
X209932500Y-88429999D02*
X209965833Y-88329999D01*
X209965833Y-88329999D02*
X209965833Y-88263332D01*
X209965833Y-88263332D02*
X209932500Y-88163332D01*
X209932500Y-88163332D02*
X209899166Y-88129999D01*
X209899166Y-88129999D02*
X209665833Y-88129999D01*
X209665833Y-88129999D02*
X209665833Y-88263332D01*
X209965833Y-87829999D02*
X209265833Y-87829999D01*
X209265833Y-87829999D02*
X209965833Y-87429999D01*
X209965833Y-87429999D02*
X209265833Y-87429999D01*
X209965833Y-87096666D02*
X209265833Y-87096666D01*
X209265833Y-87096666D02*
X209265833Y-86929999D01*
X209265833Y-86929999D02*
X209299166Y-86829999D01*
X209299166Y-86829999D02*
X209365833Y-86763333D01*
X209365833Y-86763333D02*
X209432500Y-86729999D01*
X209432500Y-86729999D02*
X209565833Y-86696666D01*
X209565833Y-86696666D02*
X209665833Y-86696666D01*
X209665833Y-86696666D02*
X209799166Y-86729999D01*
X209799166Y-86729999D02*
X209865833Y-86763333D01*
X209865833Y-86763333D02*
X209932500Y-86829999D01*
X209932500Y-86829999D02*
X209965833Y-86929999D01*
X209965833Y-86929999D02*
X209965833Y-87096666D01*
X205206666Y-95473833D02*
X205606666Y-95473833D01*
X205406666Y-96173833D02*
X205406666Y-95473833D01*
X205773333Y-95473833D02*
X206239999Y-96173833D01*
X206239999Y-95473833D02*
X205773333Y-96173833D01*
X203083333Y-96173833D02*
X202850000Y-95840500D01*
X202683333Y-96173833D02*
X202683333Y-95473833D01*
X202683333Y-95473833D02*
X202950000Y-95473833D01*
X202950000Y-95473833D02*
X203016667Y-95507166D01*
X203016667Y-95507166D02*
X203050000Y-95540500D01*
X203050000Y-95540500D02*
X203083333Y-95607166D01*
X203083333Y-95607166D02*
X203083333Y-95707166D01*
X203083333Y-95707166D02*
X203050000Y-95773833D01*
X203050000Y-95773833D02*
X203016667Y-95807166D01*
X203016667Y-95807166D02*
X202950000Y-95840500D01*
X202950000Y-95840500D02*
X202683333Y-95840500D01*
X203316667Y-95473833D02*
X203783333Y-96173833D01*
X203783333Y-95473833D02*
X203316667Y-96173833D01*
X199726666Y-95473833D02*
X199960000Y-96173833D01*
X199960000Y-96173833D02*
X200193333Y-95473833D01*
X200826666Y-96107166D02*
X200793333Y-96140500D01*
X200793333Y-96140500D02*
X200693333Y-96173833D01*
X200693333Y-96173833D02*
X200626666Y-96173833D01*
X200626666Y-96173833D02*
X200526666Y-96140500D01*
X200526666Y-96140500D02*
X200460000Y-96073833D01*
X200460000Y-96073833D02*
X200426666Y-96007166D01*
X200426666Y-96007166D02*
X200393333Y-95873833D01*
X200393333Y-95873833D02*
X200393333Y-95773833D01*
X200393333Y-95773833D02*
X200426666Y-95640500D01*
X200426666Y-95640500D02*
X200460000Y-95573833D01*
X200460000Y-95573833D02*
X200526666Y-95507166D01*
X200526666Y-95507166D02*
X200626666Y-95473833D01*
X200626666Y-95473833D02*
X200693333Y-95473833D01*
X200693333Y-95473833D02*
X200793333Y-95507166D01*
X200793333Y-95507166D02*
X200826666Y-95540500D01*
X201526666Y-96107166D02*
X201493333Y-96140500D01*
X201493333Y-96140500D02*
X201393333Y-96173833D01*
X201393333Y-96173833D02*
X201326666Y-96173833D01*
X201326666Y-96173833D02*
X201226666Y-96140500D01*
X201226666Y-96140500D02*
X201160000Y-96073833D01*
X201160000Y-96073833D02*
X201126666Y-96007166D01*
X201126666Y-96007166D02*
X201093333Y-95873833D01*
X201093333Y-95873833D02*
X201093333Y-95773833D01*
X201093333Y-95773833D02*
X201126666Y-95640500D01*
X201126666Y-95640500D02*
X201160000Y-95573833D01*
X201160000Y-95573833D02*
X201226666Y-95507166D01*
X201226666Y-95507166D02*
X201326666Y-95473833D01*
X201326666Y-95473833D02*
X201393333Y-95473833D01*
X201393333Y-95473833D02*
X201493333Y-95507166D01*
X201493333Y-95507166D02*
X201526666Y-95540500D01*
X197586667Y-95507166D02*
X197520000Y-95473833D01*
X197520000Y-95473833D02*
X197420000Y-95473833D01*
X197420000Y-95473833D02*
X197320000Y-95507166D01*
X197320000Y-95507166D02*
X197253334Y-95573833D01*
X197253334Y-95573833D02*
X197220000Y-95640500D01*
X197220000Y-95640500D02*
X197186667Y-95773833D01*
X197186667Y-95773833D02*
X197186667Y-95873833D01*
X197186667Y-95873833D02*
X197220000Y-96007166D01*
X197220000Y-96007166D02*
X197253334Y-96073833D01*
X197253334Y-96073833D02*
X197320000Y-96140500D01*
X197320000Y-96140500D02*
X197420000Y-96173833D01*
X197420000Y-96173833D02*
X197486667Y-96173833D01*
X197486667Y-96173833D02*
X197586667Y-96140500D01*
X197586667Y-96140500D02*
X197620000Y-96107166D01*
X197620000Y-96107166D02*
X197620000Y-95873833D01*
X197620000Y-95873833D02*
X197486667Y-95873833D01*
X197920000Y-96173833D02*
X197920000Y-95473833D01*
X197920000Y-95473833D02*
X198320000Y-96173833D01*
X198320000Y-96173833D02*
X198320000Y-95473833D01*
X198653333Y-96173833D02*
X198653333Y-95473833D01*
X198653333Y-95473833D02*
X198820000Y-95473833D01*
X198820000Y-95473833D02*
X198920000Y-95507166D01*
X198920000Y-95507166D02*
X198986667Y-95573833D01*
X198986667Y-95573833D02*
X199020000Y-95640500D01*
X199020000Y-95640500D02*
X199053333Y-95773833D01*
X199053333Y-95773833D02*
X199053333Y-95873833D01*
X199053333Y-95873833D02*
X199020000Y-96007166D01*
X199020000Y-96007166D02*
X198986667Y-96073833D01*
X198986667Y-96073833D02*
X198920000Y-96140500D01*
X198920000Y-96140500D02*
X198820000Y-96173833D01*
X198820000Y-96173833D02*
X198653333Y-96173833D01*
X192741666Y-95727833D02*
X192975000Y-96427833D01*
X192975000Y-96427833D02*
X193208333Y-95727833D01*
X193841666Y-96361166D02*
X193808333Y-96394500D01*
X193808333Y-96394500D02*
X193708333Y-96427833D01*
X193708333Y-96427833D02*
X193641666Y-96427833D01*
X193641666Y-96427833D02*
X193541666Y-96394500D01*
X193541666Y-96394500D02*
X193475000Y-96327833D01*
X193475000Y-96327833D02*
X193441666Y-96261166D01*
X193441666Y-96261166D02*
X193408333Y-96127833D01*
X193408333Y-96127833D02*
X193408333Y-96027833D01*
X193408333Y-96027833D02*
X193441666Y-95894500D01*
X193441666Y-95894500D02*
X193475000Y-95827833D01*
X193475000Y-95827833D02*
X193541666Y-95761166D01*
X193541666Y-95761166D02*
X193641666Y-95727833D01*
X193641666Y-95727833D02*
X193708333Y-95727833D01*
X193708333Y-95727833D02*
X193808333Y-95761166D01*
X193808333Y-95761166D02*
X193841666Y-95794500D01*
X194541666Y-96361166D02*
X194508333Y-96394500D01*
X194508333Y-96394500D02*
X194408333Y-96427833D01*
X194408333Y-96427833D02*
X194341666Y-96427833D01*
X194341666Y-96427833D02*
X194241666Y-96394500D01*
X194241666Y-96394500D02*
X194175000Y-96327833D01*
X194175000Y-96327833D02*
X194141666Y-96261166D01*
X194141666Y-96261166D02*
X194108333Y-96127833D01*
X194108333Y-96127833D02*
X194108333Y-96027833D01*
X194108333Y-96027833D02*
X194141666Y-95894500D01*
X194141666Y-95894500D02*
X194175000Y-95827833D01*
X194175000Y-95827833D02*
X194241666Y-95761166D01*
X194241666Y-95761166D02*
X194341666Y-95727833D01*
X194341666Y-95727833D02*
X194408333Y-95727833D01*
X194408333Y-95727833D02*
X194508333Y-95761166D01*
X194508333Y-95761166D02*
X194541666Y-95794500D01*
X190601667Y-95761166D02*
X190535000Y-95727833D01*
X190535000Y-95727833D02*
X190435000Y-95727833D01*
X190435000Y-95727833D02*
X190335000Y-95761166D01*
X190335000Y-95761166D02*
X190268334Y-95827833D01*
X190268334Y-95827833D02*
X190235000Y-95894500D01*
X190235000Y-95894500D02*
X190201667Y-96027833D01*
X190201667Y-96027833D02*
X190201667Y-96127833D01*
X190201667Y-96127833D02*
X190235000Y-96261166D01*
X190235000Y-96261166D02*
X190268334Y-96327833D01*
X190268334Y-96327833D02*
X190335000Y-96394500D01*
X190335000Y-96394500D02*
X190435000Y-96427833D01*
X190435000Y-96427833D02*
X190501667Y-96427833D01*
X190501667Y-96427833D02*
X190601667Y-96394500D01*
X190601667Y-96394500D02*
X190635000Y-96361166D01*
X190635000Y-96361166D02*
X190635000Y-96127833D01*
X190635000Y-96127833D02*
X190501667Y-96127833D01*
X190935000Y-96427833D02*
X190935000Y-95727833D01*
X190935000Y-95727833D02*
X191335000Y-96427833D01*
X191335000Y-96427833D02*
X191335000Y-95727833D01*
X191668333Y-96427833D02*
X191668333Y-95727833D01*
X191668333Y-95727833D02*
X191835000Y-95727833D01*
X191835000Y-95727833D02*
X191935000Y-95761166D01*
X191935000Y-95761166D02*
X192001667Y-95827833D01*
X192001667Y-95827833D02*
X192035000Y-95894500D01*
X192035000Y-95894500D02*
X192068333Y-96027833D01*
X192068333Y-96027833D02*
X192068333Y-96127833D01*
X192068333Y-96127833D02*
X192035000Y-96261166D01*
X192035000Y-96261166D02*
X192001667Y-96327833D01*
X192001667Y-96327833D02*
X191935000Y-96394500D01*
X191935000Y-96394500D02*
X191835000Y-96427833D01*
X191835000Y-96427833D02*
X191668333Y-96427833D01*
X188528333Y-96027833D02*
X188461667Y-95994500D01*
X188461667Y-95994500D02*
X188428333Y-95961166D01*
X188428333Y-95961166D02*
X188395000Y-95894500D01*
X188395000Y-95894500D02*
X188395000Y-95861166D01*
X188395000Y-95861166D02*
X188428333Y-95794500D01*
X188428333Y-95794500D02*
X188461667Y-95761166D01*
X188461667Y-95761166D02*
X188528333Y-95727833D01*
X188528333Y-95727833D02*
X188661667Y-95727833D01*
X188661667Y-95727833D02*
X188728333Y-95761166D01*
X188728333Y-95761166D02*
X188761667Y-95794500D01*
X188761667Y-95794500D02*
X188795000Y-95861166D01*
X188795000Y-95861166D02*
X188795000Y-95894500D01*
X188795000Y-95894500D02*
X188761667Y-95961166D01*
X188761667Y-95961166D02*
X188728333Y-95994500D01*
X188728333Y-95994500D02*
X188661667Y-96027833D01*
X188661667Y-96027833D02*
X188528333Y-96027833D01*
X188528333Y-96027833D02*
X188461667Y-96061166D01*
X188461667Y-96061166D02*
X188428333Y-96094500D01*
X188428333Y-96094500D02*
X188395000Y-96161166D01*
X188395000Y-96161166D02*
X188395000Y-96294500D01*
X188395000Y-96294500D02*
X188428333Y-96361166D01*
X188428333Y-96361166D02*
X188461667Y-96394500D01*
X188461667Y-96394500D02*
X188528333Y-96427833D01*
X188528333Y-96427833D02*
X188661667Y-96427833D01*
X188661667Y-96427833D02*
X188728333Y-96394500D01*
X188728333Y-96394500D02*
X188761667Y-96361166D01*
X188761667Y-96361166D02*
X188795000Y-96294500D01*
X188795000Y-96294500D02*
X188795000Y-96161166D01*
X188795000Y-96161166D02*
X188761667Y-96094500D01*
X188761667Y-96094500D02*
X188728333Y-96061166D01*
X188728333Y-96061166D02*
X188661667Y-96027833D01*
X185821667Y-95727833D02*
X186288333Y-95727833D01*
X186288333Y-95727833D02*
X185988333Y-96427833D01*
X183648333Y-95727833D02*
X183515000Y-95727833D01*
X183515000Y-95727833D02*
X183448333Y-95761166D01*
X183448333Y-95761166D02*
X183415000Y-95794500D01*
X183415000Y-95794500D02*
X183348333Y-95894500D01*
X183348333Y-95894500D02*
X183315000Y-96027833D01*
X183315000Y-96027833D02*
X183315000Y-96294500D01*
X183315000Y-96294500D02*
X183348333Y-96361166D01*
X183348333Y-96361166D02*
X183381667Y-96394500D01*
X183381667Y-96394500D02*
X183448333Y-96427833D01*
X183448333Y-96427833D02*
X183581667Y-96427833D01*
X183581667Y-96427833D02*
X183648333Y-96394500D01*
X183648333Y-96394500D02*
X183681667Y-96361166D01*
X183681667Y-96361166D02*
X183715000Y-96294500D01*
X183715000Y-96294500D02*
X183715000Y-96127833D01*
X183715000Y-96127833D02*
X183681667Y-96061166D01*
X183681667Y-96061166D02*
X183648333Y-96027833D01*
X183648333Y-96027833D02*
X183581667Y-95994500D01*
X183581667Y-95994500D02*
X183448333Y-95994500D01*
X183448333Y-95994500D02*
X183381667Y-96027833D01*
X183381667Y-96027833D02*
X183348333Y-96061166D01*
X183348333Y-96061166D02*
X183315000Y-96127833D01*
X181141667Y-95727833D02*
X180808333Y-95727833D01*
X180808333Y-95727833D02*
X180775000Y-96061166D01*
X180775000Y-96061166D02*
X180808333Y-96027833D01*
X180808333Y-96027833D02*
X180875000Y-95994500D01*
X180875000Y-95994500D02*
X181041667Y-95994500D01*
X181041667Y-95994500D02*
X181108333Y-96027833D01*
X181108333Y-96027833D02*
X181141667Y-96061166D01*
X181141667Y-96061166D02*
X181175000Y-96127833D01*
X181175000Y-96127833D02*
X181175000Y-96294500D01*
X181175000Y-96294500D02*
X181141667Y-96361166D01*
X181141667Y-96361166D02*
X181108333Y-96394500D01*
X181108333Y-96394500D02*
X181041667Y-96427833D01*
X181041667Y-96427833D02*
X180875000Y-96427833D01*
X180875000Y-96427833D02*
X180808333Y-96394500D01*
X180808333Y-96394500D02*
X180775000Y-96361166D01*
X178441333Y-95961166D02*
X178441333Y-96427833D01*
X178274667Y-95694500D02*
X178108000Y-96194500D01*
X178108000Y-96194500D02*
X178541333Y-96194500D01*
X175661667Y-95727833D02*
X176095000Y-95727833D01*
X176095000Y-95727833D02*
X175861667Y-95994500D01*
X175861667Y-95994500D02*
X175961667Y-95994500D01*
X175961667Y-95994500D02*
X176028333Y-96027833D01*
X176028333Y-96027833D02*
X176061667Y-96061166D01*
X176061667Y-96061166D02*
X176095000Y-96127833D01*
X176095000Y-96127833D02*
X176095000Y-96294500D01*
X176095000Y-96294500D02*
X176061667Y-96361166D01*
X176061667Y-96361166D02*
X176028333Y-96394500D01*
X176028333Y-96394500D02*
X175961667Y-96427833D01*
X175961667Y-96427833D02*
X175761667Y-96427833D01*
X175761667Y-96427833D02*
X175695000Y-96394500D01*
X175695000Y-96394500D02*
X175661667Y-96361166D01*
X173155000Y-95794500D02*
X173188333Y-95761166D01*
X173188333Y-95761166D02*
X173255000Y-95727833D01*
X173255000Y-95727833D02*
X173421667Y-95727833D01*
X173421667Y-95727833D02*
X173488333Y-95761166D01*
X173488333Y-95761166D02*
X173521667Y-95794500D01*
X173521667Y-95794500D02*
X173555000Y-95861166D01*
X173555000Y-95861166D02*
X173555000Y-95927833D01*
X173555000Y-95927833D02*
X173521667Y-96027833D01*
X173521667Y-96027833D02*
X173121667Y-96427833D01*
X173121667Y-96427833D02*
X173555000Y-96427833D01*
D10*
X184643300Y-94059333D02*
X184976633Y-94059333D01*
X184276633Y-94292666D02*
X184643300Y-94059333D01*
X184643300Y-94059333D02*
X184276633Y-93825999D01*
X184343300Y-93625999D02*
X184309966Y-93592666D01*
X184309966Y-93592666D02*
X184276633Y-93525999D01*
X184276633Y-93525999D02*
X184276633Y-93359333D01*
X184276633Y-93359333D02*
X184309966Y-93292666D01*
X184309966Y-93292666D02*
X184343300Y-93259333D01*
X184343300Y-93259333D02*
X184409966Y-93225999D01*
X184409966Y-93225999D02*
X184476633Y-93225999D01*
X184476633Y-93225999D02*
X184576633Y-93259333D01*
X184576633Y-93259333D02*
X184976633Y-93659333D01*
X184976633Y-93659333D02*
X184976633Y-93225999D01*
X190620856Y-95106895D02*
X190163713Y-95106895D01*
X190392285Y-95106895D02*
X190392285Y-94306895D01*
X190392285Y-94306895D02*
X190316094Y-94421180D01*
X190316094Y-94421180D02*
X190239904Y-94497371D01*
X190239904Y-94497371D02*
X190163713Y-94535466D01*
X191306571Y-94306895D02*
X191154190Y-94306895D01*
X191154190Y-94306895D02*
X191077999Y-94344990D01*
X191077999Y-94344990D02*
X191039904Y-94383085D01*
X191039904Y-94383085D02*
X190963714Y-94497371D01*
X190963714Y-94497371D02*
X190925618Y-94649752D01*
X190925618Y-94649752D02*
X190925618Y-94954514D01*
X190925618Y-94954514D02*
X190963714Y-95030704D01*
X190963714Y-95030704D02*
X191001809Y-95068800D01*
X191001809Y-95068800D02*
X191077999Y-95106895D01*
X191077999Y-95106895D02*
X191230380Y-95106895D01*
X191230380Y-95106895D02*
X191306571Y-95068800D01*
X191306571Y-95068800D02*
X191344666Y-95030704D01*
X191344666Y-95030704D02*
X191382761Y-94954514D01*
X191382761Y-94954514D02*
X191382761Y-94764038D01*
X191382761Y-94764038D02*
X191344666Y-94687847D01*
X191344666Y-94687847D02*
X191306571Y-94649752D01*
X191306571Y-94649752D02*
X191230380Y-94611657D01*
X191230380Y-94611657D02*
X191077999Y-94611657D01*
X191077999Y-94611657D02*
X191001809Y-94649752D01*
X191001809Y-94649752D02*
X190963714Y-94687847D01*
X190963714Y-94687847D02*
X190925618Y-94764038D01*
X192335143Y-95106895D02*
X192335143Y-94306895D01*
X192335143Y-94306895D02*
X192601809Y-94878323D01*
X192601809Y-94878323D02*
X192868476Y-94306895D01*
X192868476Y-94306895D02*
X192868476Y-95106895D01*
X193249429Y-95106895D02*
X193249429Y-94306895D01*
X193249429Y-94687847D02*
X193706572Y-94687847D01*
X193706572Y-95106895D02*
X193706572Y-94306895D01*
X194011333Y-94573561D02*
X194430381Y-94573561D01*
X194430381Y-94573561D02*
X194011333Y-95106895D01*
X194011333Y-95106895D02*
X194430381Y-95106895D01*
X198184633Y-84444666D02*
X197851300Y-84677999D01*
X198184633Y-84844666D02*
X197484633Y-84844666D01*
X197484633Y-84844666D02*
X197484633Y-84577999D01*
X197484633Y-84577999D02*
X197517966Y-84511333D01*
X197517966Y-84511333D02*
X197551300Y-84477999D01*
X197551300Y-84477999D02*
X197617966Y-84444666D01*
X197617966Y-84444666D02*
X197717966Y-84444666D01*
X197717966Y-84444666D02*
X197784633Y-84477999D01*
X197784633Y-84477999D02*
X197817966Y-84511333D01*
X197817966Y-84511333D02*
X197851300Y-84577999D01*
X197851300Y-84577999D02*
X197851300Y-84844666D01*
X197484633Y-84211333D02*
X197484633Y-83777999D01*
X197484633Y-83777999D02*
X197751300Y-84011333D01*
X197751300Y-84011333D02*
X197751300Y-83911333D01*
X197751300Y-83911333D02*
X197784633Y-83844666D01*
X197784633Y-83844666D02*
X197817966Y-83811333D01*
X197817966Y-83811333D02*
X197884633Y-83777999D01*
X197884633Y-83777999D02*
X198051300Y-83777999D01*
X198051300Y-83777999D02*
X198117966Y-83811333D01*
X198117966Y-83811333D02*
X198151300Y-83844666D01*
X198151300Y-83844666D02*
X198184633Y-83911333D01*
X198184633Y-83911333D02*
X198184633Y-84111333D01*
X198184633Y-84111333D02*
X198151300Y-84177999D01*
X198151300Y-84177999D02*
X198117966Y-84211333D01*
X199840952Y-85175561D02*
X199840952Y-85708895D01*
X199650476Y-84870800D02*
X199459999Y-85442228D01*
X199459999Y-85442228D02*
X199955238Y-85442228D01*
X200260000Y-85632704D02*
X200298095Y-85670800D01*
X200298095Y-85670800D02*
X200260000Y-85708895D01*
X200260000Y-85708895D02*
X200221904Y-85670800D01*
X200221904Y-85670800D02*
X200260000Y-85632704D01*
X200260000Y-85632704D02*
X200260000Y-85708895D01*
X200564761Y-84908895D02*
X201098095Y-84908895D01*
X201098095Y-84908895D02*
X200755237Y-85708895D01*
X201402857Y-85708895D02*
X201402857Y-84908895D01*
X201860000Y-85708895D02*
X201517142Y-85251752D01*
X201860000Y-84908895D02*
X201402857Y-85366038D01*
X198365333Y-72963633D02*
X198365333Y-72263633D01*
X198365333Y-72263633D02*
X198532000Y-72263633D01*
X198532000Y-72263633D02*
X198632000Y-72296966D01*
X198632000Y-72296966D02*
X198698667Y-72363633D01*
X198698667Y-72363633D02*
X198732000Y-72430300D01*
X198732000Y-72430300D02*
X198765333Y-72563633D01*
X198765333Y-72563633D02*
X198765333Y-72663633D01*
X198765333Y-72663633D02*
X198732000Y-72796966D01*
X198732000Y-72796966D02*
X198698667Y-72863633D01*
X198698667Y-72863633D02*
X198632000Y-72930300D01*
X198632000Y-72930300D02*
X198532000Y-72963633D01*
X198532000Y-72963633D02*
X198365333Y-72963633D01*
X199032000Y-72330300D02*
X199065333Y-72296966D01*
X199065333Y-72296966D02*
X199132000Y-72263633D01*
X199132000Y-72263633D02*
X199298667Y-72263633D01*
X199298667Y-72263633D02*
X199365333Y-72296966D01*
X199365333Y-72296966D02*
X199398667Y-72330300D01*
X199398667Y-72330300D02*
X199432000Y-72396966D01*
X199432000Y-72396966D02*
X199432000Y-72463633D01*
X199432000Y-72463633D02*
X199398667Y-72563633D01*
X199398667Y-72563633D02*
X198998667Y-72963633D01*
X198998667Y-72963633D02*
X199432000Y-72963633D01*
X197976895Y-74936285D02*
X197976895Y-75317237D01*
X197976895Y-75317237D02*
X197176895Y-75317237D01*
X197557847Y-74669618D02*
X197557847Y-74402952D01*
X197976895Y-74288666D02*
X197976895Y-74669618D01*
X197976895Y-74669618D02*
X197176895Y-74669618D01*
X197176895Y-74669618D02*
X197176895Y-74288666D01*
X197976895Y-73945808D02*
X197176895Y-73945808D01*
X197176895Y-73945808D02*
X197176895Y-73755332D01*
X197176895Y-73755332D02*
X197214990Y-73641046D01*
X197214990Y-73641046D02*
X197291180Y-73564856D01*
X197291180Y-73564856D02*
X197367371Y-73526761D01*
X197367371Y-73526761D02*
X197519752Y-73488665D01*
X197519752Y-73488665D02*
X197634038Y-73488665D01*
X197634038Y-73488665D02*
X197786419Y-73526761D01*
X197786419Y-73526761D02*
X197862609Y-73564856D01*
X197862609Y-73564856D02*
X197938800Y-73641046D01*
X197938800Y-73641046D02*
X197976895Y-73755332D01*
X197976895Y-73755332D02*
X197976895Y-73945808D01*
X174980666Y-72218633D02*
X174980666Y-72785300D01*
X174980666Y-72785300D02*
X175014000Y-72851966D01*
X175014000Y-72851966D02*
X175047333Y-72885300D01*
X175047333Y-72885300D02*
X175114000Y-72918633D01*
X175114000Y-72918633D02*
X175247333Y-72918633D01*
X175247333Y-72918633D02*
X175314000Y-72885300D01*
X175314000Y-72885300D02*
X175347333Y-72851966D01*
X175347333Y-72851966D02*
X175380666Y-72785300D01*
X175380666Y-72785300D02*
X175380666Y-72218633D01*
X175647333Y-72218633D02*
X176080666Y-72218633D01*
X176080666Y-72218633D02*
X175847333Y-72485300D01*
X175847333Y-72485300D02*
X175947333Y-72485300D01*
X175947333Y-72485300D02*
X176013999Y-72518633D01*
X176013999Y-72518633D02*
X176047333Y-72551966D01*
X176047333Y-72551966D02*
X176080666Y-72618633D01*
X176080666Y-72618633D02*
X176080666Y-72785300D01*
X176080666Y-72785300D02*
X176047333Y-72851966D01*
X176047333Y-72851966D02*
X176013999Y-72885300D01*
X176013999Y-72885300D02*
X175947333Y-72918633D01*
X175947333Y-72918633D02*
X175747333Y-72918633D01*
X175747333Y-72918633D02*
X175680666Y-72885300D01*
X175680666Y-72885300D02*
X175647333Y-72851966D01*
X176720856Y-72285085D02*
X176758952Y-72246990D01*
X176758952Y-72246990D02*
X176835142Y-72208895D01*
X176835142Y-72208895D02*
X177025618Y-72208895D01*
X177025618Y-72208895D02*
X177101809Y-72246990D01*
X177101809Y-72246990D02*
X177139904Y-72285085D01*
X177139904Y-72285085D02*
X177177999Y-72361276D01*
X177177999Y-72361276D02*
X177177999Y-72437466D01*
X177177999Y-72437466D02*
X177139904Y-72551752D01*
X177139904Y-72551752D02*
X176682761Y-73008895D01*
X176682761Y-73008895D02*
X177177999Y-73008895D01*
X177863714Y-72475561D02*
X177863714Y-73008895D01*
X177673238Y-72170800D02*
X177482761Y-72742228D01*
X177482761Y-72742228D02*
X177978000Y-72742228D01*
X178663714Y-73008895D02*
X178282762Y-73008895D01*
X178282762Y-73008895D02*
X178282762Y-72208895D01*
X179387524Y-72932704D02*
X179349428Y-72970800D01*
X179349428Y-72970800D02*
X179235143Y-73008895D01*
X179235143Y-73008895D02*
X179158952Y-73008895D01*
X179158952Y-73008895D02*
X179044666Y-72970800D01*
X179044666Y-72970800D02*
X178968476Y-72894609D01*
X178968476Y-72894609D02*
X178930381Y-72818419D01*
X178930381Y-72818419D02*
X178892285Y-72666038D01*
X178892285Y-72666038D02*
X178892285Y-72551752D01*
X178892285Y-72551752D02*
X178930381Y-72399371D01*
X178930381Y-72399371D02*
X178968476Y-72323180D01*
X178968476Y-72323180D02*
X179044666Y-72246990D01*
X179044666Y-72246990D02*
X179158952Y-72208895D01*
X179158952Y-72208895D02*
X179235143Y-72208895D01*
X179235143Y-72208895D02*
X179349428Y-72246990D01*
X179349428Y-72246990D02*
X179387524Y-72285085D01*
X180149428Y-73008895D02*
X179692285Y-73008895D01*
X179920857Y-73008895D02*
X179920857Y-72208895D01*
X179920857Y-72208895D02*
X179844666Y-72323180D01*
X179844666Y-72323180D02*
X179768476Y-72399371D01*
X179768476Y-72399371D02*
X179692285Y-72437466D01*
X180644667Y-72208895D02*
X180720857Y-72208895D01*
X180720857Y-72208895D02*
X180797048Y-72246990D01*
X180797048Y-72246990D02*
X180835143Y-72285085D01*
X180835143Y-72285085D02*
X180873238Y-72361276D01*
X180873238Y-72361276D02*
X180911333Y-72513657D01*
X180911333Y-72513657D02*
X180911333Y-72704133D01*
X180911333Y-72704133D02*
X180873238Y-72856514D01*
X180873238Y-72856514D02*
X180835143Y-72932704D01*
X180835143Y-72932704D02*
X180797048Y-72970800D01*
X180797048Y-72970800D02*
X180720857Y-73008895D01*
X180720857Y-73008895D02*
X180644667Y-73008895D01*
X180644667Y-73008895D02*
X180568476Y-72970800D01*
X180568476Y-72970800D02*
X180530381Y-72932704D01*
X180530381Y-72932704D02*
X180492286Y-72856514D01*
X180492286Y-72856514D02*
X180454190Y-72704133D01*
X180454190Y-72704133D02*
X180454190Y-72513657D01*
X180454190Y-72513657D02*
X180492286Y-72361276D01*
X180492286Y-72361276D02*
X180530381Y-72285085D01*
X180530381Y-72285085D02*
X180568476Y-72246990D01*
X180568476Y-72246990D02*
X180644667Y-72208895D01*
X181216095Y-72285085D02*
X181254191Y-72246990D01*
X181254191Y-72246990D02*
X181330381Y-72208895D01*
X181330381Y-72208895D02*
X181520857Y-72208895D01*
X181520857Y-72208895D02*
X181597048Y-72246990D01*
X181597048Y-72246990D02*
X181635143Y-72285085D01*
X181635143Y-72285085D02*
X181673238Y-72361276D01*
X181673238Y-72361276D02*
X181673238Y-72437466D01*
X181673238Y-72437466D02*
X181635143Y-72551752D01*
X181635143Y-72551752D02*
X181178000Y-73008895D01*
X181178000Y-73008895D02*
X181673238Y-73008895D01*
X182397048Y-72208895D02*
X182016096Y-72208895D01*
X182016096Y-72208895D02*
X181978000Y-72589847D01*
X181978000Y-72589847D02*
X182016096Y-72551752D01*
X182016096Y-72551752D02*
X182092286Y-72513657D01*
X182092286Y-72513657D02*
X182282762Y-72513657D01*
X182282762Y-72513657D02*
X182358953Y-72551752D01*
X182358953Y-72551752D02*
X182397048Y-72589847D01*
X182397048Y-72589847D02*
X182435143Y-72666038D01*
X182435143Y-72666038D02*
X182435143Y-72856514D01*
X182435143Y-72856514D02*
X182397048Y-72932704D01*
X182397048Y-72932704D02*
X182358953Y-72970800D01*
X182358953Y-72970800D02*
X182282762Y-73008895D01*
X182282762Y-73008895D02*
X182092286Y-73008895D01*
X182092286Y-73008895D02*
X182016096Y-72970800D01*
X182016096Y-72970800D02*
X181978000Y-72932704D01*
X188097333Y-73657966D02*
X188064000Y-73691300D01*
X188064000Y-73691300D02*
X187964000Y-73724633D01*
X187964000Y-73724633D02*
X187897333Y-73724633D01*
X187897333Y-73724633D02*
X187797333Y-73691300D01*
X187797333Y-73691300D02*
X187730667Y-73624633D01*
X187730667Y-73624633D02*
X187697333Y-73557966D01*
X187697333Y-73557966D02*
X187664000Y-73424633D01*
X187664000Y-73424633D02*
X187664000Y-73324633D01*
X187664000Y-73324633D02*
X187697333Y-73191300D01*
X187697333Y-73191300D02*
X187730667Y-73124633D01*
X187730667Y-73124633D02*
X187797333Y-73057966D01*
X187797333Y-73057966D02*
X187897333Y-73024633D01*
X187897333Y-73024633D02*
X187964000Y-73024633D01*
X187964000Y-73024633D02*
X188064000Y-73057966D01*
X188064000Y-73057966D02*
X188097333Y-73091300D01*
X188330667Y-73024633D02*
X188764000Y-73024633D01*
X188764000Y-73024633D02*
X188530667Y-73291300D01*
X188530667Y-73291300D02*
X188630667Y-73291300D01*
X188630667Y-73291300D02*
X188697333Y-73324633D01*
X188697333Y-73324633D02*
X188730667Y-73357966D01*
X188730667Y-73357966D02*
X188764000Y-73424633D01*
X188764000Y-73424633D02*
X188764000Y-73591300D01*
X188764000Y-73591300D02*
X188730667Y-73657966D01*
X188730667Y-73657966D02*
X188697333Y-73691300D01*
X188697333Y-73691300D02*
X188630667Y-73724633D01*
X188630667Y-73724633D02*
X188430667Y-73724633D01*
X188430667Y-73724633D02*
X188364000Y-73691300D01*
X188364000Y-73691300D02*
X188330667Y-73657966D01*
X189424572Y-73179728D02*
X189448381Y-73155919D01*
X189448381Y-73155919D02*
X189496000Y-73132109D01*
X189496000Y-73132109D02*
X189615048Y-73132109D01*
X189615048Y-73132109D02*
X189662667Y-73155919D01*
X189662667Y-73155919D02*
X189686476Y-73179728D01*
X189686476Y-73179728D02*
X189710286Y-73227347D01*
X189710286Y-73227347D02*
X189710286Y-73274966D01*
X189710286Y-73274966D02*
X189686476Y-73346395D01*
X189686476Y-73346395D02*
X189400762Y-73632109D01*
X189400762Y-73632109D02*
X189710286Y-73632109D01*
X189900762Y-73179728D02*
X189924571Y-73155919D01*
X189924571Y-73155919D02*
X189972190Y-73132109D01*
X189972190Y-73132109D02*
X190091238Y-73132109D01*
X190091238Y-73132109D02*
X190138857Y-73155919D01*
X190138857Y-73155919D02*
X190162666Y-73179728D01*
X190162666Y-73179728D02*
X190186476Y-73227347D01*
X190186476Y-73227347D02*
X190186476Y-73274966D01*
X190186476Y-73274966D02*
X190162666Y-73346395D01*
X190162666Y-73346395D02*
X189876952Y-73632109D01*
X189876952Y-73632109D02*
X190186476Y-73632109D01*
X190400761Y-73298776D02*
X190400761Y-73798776D01*
X190400761Y-73322585D02*
X190448380Y-73298776D01*
X190448380Y-73298776D02*
X190543618Y-73298776D01*
X190543618Y-73298776D02*
X190591237Y-73322585D01*
X190591237Y-73322585D02*
X190615047Y-73346395D01*
X190615047Y-73346395D02*
X190638856Y-73394014D01*
X190638856Y-73394014D02*
X190638856Y-73536871D01*
X190638856Y-73536871D02*
X190615047Y-73584490D01*
X190615047Y-73584490D02*
X190591237Y-73608300D01*
X190591237Y-73608300D02*
X190543618Y-73632109D01*
X190543618Y-73632109D02*
X190448380Y-73632109D01*
X190448380Y-73632109D02*
X190400761Y-73608300D01*
X191019809Y-73370204D02*
X190853142Y-73370204D01*
X190853142Y-73632109D02*
X190853142Y-73132109D01*
X190853142Y-73132109D02*
X191091237Y-73132109D01*
X203083333Y-76264633D02*
X202850000Y-75931300D01*
X202683333Y-76264633D02*
X202683333Y-75564633D01*
X202683333Y-75564633D02*
X202950000Y-75564633D01*
X202950000Y-75564633D02*
X203016667Y-75597966D01*
X203016667Y-75597966D02*
X203050000Y-75631300D01*
X203050000Y-75631300D02*
X203083333Y-75697966D01*
X203083333Y-75697966D02*
X203083333Y-75797966D01*
X203083333Y-75797966D02*
X203050000Y-75864633D01*
X203050000Y-75864633D02*
X203016667Y-75897966D01*
X203016667Y-75897966D02*
X202950000Y-75931300D01*
X202950000Y-75931300D02*
X202683333Y-75931300D01*
X203716667Y-75564633D02*
X203383333Y-75564633D01*
X203383333Y-75564633D02*
X203350000Y-75897966D01*
X203350000Y-75897966D02*
X203383333Y-75864633D01*
X203383333Y-75864633D02*
X203450000Y-75831300D01*
X203450000Y-75831300D02*
X203616667Y-75831300D01*
X203616667Y-75831300D02*
X203683333Y-75864633D01*
X203683333Y-75864633D02*
X203716667Y-75897966D01*
X203716667Y-75897966D02*
X203750000Y-75964633D01*
X203750000Y-75964633D02*
X203750000Y-76131300D01*
X203750000Y-76131300D02*
X203716667Y-76197966D01*
X203716667Y-76197966D02*
X203683333Y-76231300D01*
X203683333Y-76231300D02*
X203616667Y-76264633D01*
X203616667Y-76264633D02*
X203450000Y-76264633D01*
X203450000Y-76264633D02*
X203383333Y-76231300D01*
X203383333Y-76231300D02*
X203350000Y-76197966D01*
X204716143Y-78593109D02*
X205025667Y-78593109D01*
X205025667Y-78593109D02*
X204859000Y-78783585D01*
X204859000Y-78783585D02*
X204930429Y-78783585D01*
X204930429Y-78783585D02*
X204978048Y-78807395D01*
X204978048Y-78807395D02*
X205001857Y-78831204D01*
X205001857Y-78831204D02*
X205025667Y-78878823D01*
X205025667Y-78878823D02*
X205025667Y-78997871D01*
X205025667Y-78997871D02*
X205001857Y-79045490D01*
X205001857Y-79045490D02*
X204978048Y-79069300D01*
X204978048Y-79069300D02*
X204930429Y-79093109D01*
X204930429Y-79093109D02*
X204787572Y-79093109D01*
X204787572Y-79093109D02*
X204739953Y-79069300D01*
X204739953Y-79069300D02*
X204716143Y-79045490D01*
X205192333Y-78593109D02*
X205501857Y-78593109D01*
X205501857Y-78593109D02*
X205335190Y-78783585D01*
X205335190Y-78783585D02*
X205406619Y-78783585D01*
X205406619Y-78783585D02*
X205454238Y-78807395D01*
X205454238Y-78807395D02*
X205478047Y-78831204D01*
X205478047Y-78831204D02*
X205501857Y-78878823D01*
X205501857Y-78878823D02*
X205501857Y-78997871D01*
X205501857Y-78997871D02*
X205478047Y-79045490D01*
X205478047Y-79045490D02*
X205454238Y-79069300D01*
X205454238Y-79069300D02*
X205406619Y-79093109D01*
X205406619Y-79093109D02*
X205263762Y-79093109D01*
X205263762Y-79093109D02*
X205216143Y-79069300D01*
X205216143Y-79069300D02*
X205192333Y-79045490D01*
X205811380Y-78593109D02*
X205858999Y-78593109D01*
X205858999Y-78593109D02*
X205906618Y-78616919D01*
X205906618Y-78616919D02*
X205930428Y-78640728D01*
X205930428Y-78640728D02*
X205954237Y-78688347D01*
X205954237Y-78688347D02*
X205978047Y-78783585D01*
X205978047Y-78783585D02*
X205978047Y-78902633D01*
X205978047Y-78902633D02*
X205954237Y-78997871D01*
X205954237Y-78997871D02*
X205930428Y-79045490D01*
X205930428Y-79045490D02*
X205906618Y-79069300D01*
X205906618Y-79069300D02*
X205858999Y-79093109D01*
X205858999Y-79093109D02*
X205811380Y-79093109D01*
X205811380Y-79093109D02*
X205763761Y-79069300D01*
X205763761Y-79069300D02*
X205739952Y-79045490D01*
X205739952Y-79045490D02*
X205716142Y-78997871D01*
X205716142Y-78997871D02*
X205692333Y-78902633D01*
X205692333Y-78902633D02*
X205692333Y-78783585D01*
X205692333Y-78783585D02*
X205716142Y-78688347D01*
X205716142Y-78688347D02*
X205739952Y-78640728D01*
X205739952Y-78640728D02*
X205763761Y-78616919D01*
X205763761Y-78616919D02*
X205811380Y-78593109D01*
X174218666Y-86456633D02*
X174218666Y-87023300D01*
X174218666Y-87023300D02*
X174252000Y-87089966D01*
X174252000Y-87089966D02*
X174285333Y-87123300D01*
X174285333Y-87123300D02*
X174352000Y-87156633D01*
X174352000Y-87156633D02*
X174485333Y-87156633D01*
X174485333Y-87156633D02*
X174552000Y-87123300D01*
X174552000Y-87123300D02*
X174585333Y-87089966D01*
X174585333Y-87089966D02*
X174618666Y-87023300D01*
X174618666Y-87023300D02*
X174618666Y-86456633D01*
X174918666Y-86523300D02*
X174951999Y-86489966D01*
X174951999Y-86489966D02*
X175018666Y-86456633D01*
X175018666Y-86456633D02*
X175185333Y-86456633D01*
X175185333Y-86456633D02*
X175251999Y-86489966D01*
X175251999Y-86489966D02*
X175285333Y-86523300D01*
X175285333Y-86523300D02*
X175318666Y-86589966D01*
X175318666Y-86589966D02*
X175318666Y-86656633D01*
X175318666Y-86656633D02*
X175285333Y-86756633D01*
X175285333Y-86756633D02*
X174885333Y-87156633D01*
X174885333Y-87156633D02*
X175318666Y-87156633D01*
X176523999Y-87232895D02*
X176523999Y-86432895D01*
X176523999Y-86432895D02*
X176714475Y-86432895D01*
X176714475Y-86432895D02*
X176828761Y-86470990D01*
X176828761Y-86470990D02*
X176904951Y-86547180D01*
X176904951Y-86547180D02*
X176943046Y-86623371D01*
X176943046Y-86623371D02*
X176981142Y-86775752D01*
X176981142Y-86775752D02*
X176981142Y-86890038D01*
X176981142Y-86890038D02*
X176943046Y-87042419D01*
X176943046Y-87042419D02*
X176904951Y-87118609D01*
X176904951Y-87118609D02*
X176828761Y-87194800D01*
X176828761Y-87194800D02*
X176714475Y-87232895D01*
X176714475Y-87232895D02*
X176523999Y-87232895D01*
X177285903Y-87194800D02*
X177400189Y-87232895D01*
X177400189Y-87232895D02*
X177590665Y-87232895D01*
X177590665Y-87232895D02*
X177666856Y-87194800D01*
X177666856Y-87194800D02*
X177704951Y-87156704D01*
X177704951Y-87156704D02*
X177743046Y-87080514D01*
X177743046Y-87080514D02*
X177743046Y-87004323D01*
X177743046Y-87004323D02*
X177704951Y-86928133D01*
X177704951Y-86928133D02*
X177666856Y-86890038D01*
X177666856Y-86890038D02*
X177590665Y-86851942D01*
X177590665Y-86851942D02*
X177438284Y-86813847D01*
X177438284Y-86813847D02*
X177362094Y-86775752D01*
X177362094Y-86775752D02*
X177323999Y-86737657D01*
X177323999Y-86737657D02*
X177285903Y-86661466D01*
X177285903Y-86661466D02*
X177285903Y-86585276D01*
X177285903Y-86585276D02*
X177323999Y-86509085D01*
X177323999Y-86509085D02*
X177362094Y-86470990D01*
X177362094Y-86470990D02*
X177438284Y-86432895D01*
X177438284Y-86432895D02*
X177628761Y-86432895D01*
X177628761Y-86432895D02*
X177743046Y-86470990D01*
X178504951Y-87232895D02*
X178047808Y-87232895D01*
X178276380Y-87232895D02*
X178276380Y-86432895D01*
X178276380Y-86432895D02*
X178200189Y-86547180D01*
X178200189Y-86547180D02*
X178123999Y-86623371D01*
X178123999Y-86623371D02*
X178047808Y-86661466D01*
X178771618Y-86432895D02*
X179266856Y-86432895D01*
X179266856Y-86432895D02*
X179000190Y-86737657D01*
X179000190Y-86737657D02*
X179114475Y-86737657D01*
X179114475Y-86737657D02*
X179190666Y-86775752D01*
X179190666Y-86775752D02*
X179228761Y-86813847D01*
X179228761Y-86813847D02*
X179266856Y-86890038D01*
X179266856Y-86890038D02*
X179266856Y-87080514D01*
X179266856Y-87080514D02*
X179228761Y-87156704D01*
X179228761Y-87156704D02*
X179190666Y-87194800D01*
X179190666Y-87194800D02*
X179114475Y-87232895D01*
X179114475Y-87232895D02*
X178885904Y-87232895D01*
X178885904Y-87232895D02*
X178809713Y-87194800D01*
X178809713Y-87194800D02*
X178771618Y-87156704D01*
X179533523Y-86432895D02*
X180028761Y-86432895D01*
X180028761Y-86432895D02*
X179762095Y-86737657D01*
X179762095Y-86737657D02*
X179876380Y-86737657D01*
X179876380Y-86737657D02*
X179952571Y-86775752D01*
X179952571Y-86775752D02*
X179990666Y-86813847D01*
X179990666Y-86813847D02*
X180028761Y-86890038D01*
X180028761Y-86890038D02*
X180028761Y-87080514D01*
X180028761Y-87080514D02*
X179990666Y-87156704D01*
X179990666Y-87156704D02*
X179952571Y-87194800D01*
X179952571Y-87194800D02*
X179876380Y-87232895D01*
X179876380Y-87232895D02*
X179647809Y-87232895D01*
X179647809Y-87232895D02*
X179571618Y-87194800D01*
X179571618Y-87194800D02*
X179533523Y-87156704D01*
X180295428Y-86432895D02*
X180828762Y-86432895D01*
X180828762Y-86432895D02*
X180485904Y-87232895D01*
X181095428Y-87194800D02*
X181209714Y-87232895D01*
X181209714Y-87232895D02*
X181400190Y-87232895D01*
X181400190Y-87232895D02*
X181476381Y-87194800D01*
X181476381Y-87194800D02*
X181514476Y-87156704D01*
X181514476Y-87156704D02*
X181552571Y-87080514D01*
X181552571Y-87080514D02*
X181552571Y-87004323D01*
X181552571Y-87004323D02*
X181514476Y-86928133D01*
X181514476Y-86928133D02*
X181476381Y-86890038D01*
X181476381Y-86890038D02*
X181400190Y-86851942D01*
X181400190Y-86851942D02*
X181247809Y-86813847D01*
X181247809Y-86813847D02*
X181171619Y-86775752D01*
X181171619Y-86775752D02*
X181133524Y-86737657D01*
X181133524Y-86737657D02*
X181095428Y-86661466D01*
X181095428Y-86661466D02*
X181095428Y-86585276D01*
X181095428Y-86585276D02*
X181133524Y-86509085D01*
X181133524Y-86509085D02*
X181171619Y-86470990D01*
X181171619Y-86470990D02*
X181247809Y-86432895D01*
X181247809Y-86432895D02*
X181438286Y-86432895D01*
X181438286Y-86432895D02*
X181552571Y-86470990D01*
X181704953Y-87309085D02*
X182314476Y-87309085D01*
X198511333Y-92707966D02*
X198478000Y-92741300D01*
X198478000Y-92741300D02*
X198378000Y-92774633D01*
X198378000Y-92774633D02*
X198311333Y-92774633D01*
X198311333Y-92774633D02*
X198211333Y-92741300D01*
X198211333Y-92741300D02*
X198144667Y-92674633D01*
X198144667Y-92674633D02*
X198111333Y-92607966D01*
X198111333Y-92607966D02*
X198078000Y-92474633D01*
X198078000Y-92474633D02*
X198078000Y-92374633D01*
X198078000Y-92374633D02*
X198111333Y-92241300D01*
X198111333Y-92241300D02*
X198144667Y-92174633D01*
X198144667Y-92174633D02*
X198211333Y-92107966D01*
X198211333Y-92107966D02*
X198311333Y-92074633D01*
X198311333Y-92074633D02*
X198378000Y-92074633D01*
X198378000Y-92074633D02*
X198478000Y-92107966D01*
X198478000Y-92107966D02*
X198511333Y-92141300D01*
X199111333Y-92307966D02*
X199111333Y-92774633D01*
X198944667Y-92041300D02*
X198778000Y-92541300D01*
X198778000Y-92541300D02*
X199211333Y-92541300D01*
X201910109Y-94801427D02*
X201910109Y-94753808D01*
X201910109Y-94753808D02*
X201933919Y-94706189D01*
X201933919Y-94706189D02*
X201957728Y-94682379D01*
X201957728Y-94682379D02*
X202005347Y-94658570D01*
X202005347Y-94658570D02*
X202100585Y-94634760D01*
X202100585Y-94634760D02*
X202219633Y-94634760D01*
X202219633Y-94634760D02*
X202314871Y-94658570D01*
X202314871Y-94658570D02*
X202362490Y-94682379D01*
X202362490Y-94682379D02*
X202386300Y-94706189D01*
X202386300Y-94706189D02*
X202410109Y-94753808D01*
X202410109Y-94753808D02*
X202410109Y-94801427D01*
X202410109Y-94801427D02*
X202386300Y-94849046D01*
X202386300Y-94849046D02*
X202362490Y-94872855D01*
X202362490Y-94872855D02*
X202314871Y-94896665D01*
X202314871Y-94896665D02*
X202219633Y-94920474D01*
X202219633Y-94920474D02*
X202100585Y-94920474D01*
X202100585Y-94920474D02*
X202005347Y-94896665D01*
X202005347Y-94896665D02*
X201957728Y-94872855D01*
X201957728Y-94872855D02*
X201933919Y-94849046D01*
X201933919Y-94849046D02*
X201910109Y-94801427D01*
X202362490Y-94420475D02*
X202386300Y-94396665D01*
X202386300Y-94396665D02*
X202410109Y-94420475D01*
X202410109Y-94420475D02*
X202386300Y-94444284D01*
X202386300Y-94444284D02*
X202362490Y-94420475D01*
X202362490Y-94420475D02*
X202410109Y-94420475D01*
X202410109Y-93920475D02*
X202410109Y-94206189D01*
X202410109Y-94063332D02*
X201910109Y-94063332D01*
X201910109Y-94063332D02*
X201981538Y-94110951D01*
X201981538Y-94110951D02*
X202029157Y-94158570D01*
X202029157Y-94158570D02*
X202052966Y-94206189D01*
X202076776Y-93491904D02*
X202410109Y-93491904D01*
X202076776Y-93706190D02*
X202338680Y-93706190D01*
X202338680Y-93706190D02*
X202386300Y-93682380D01*
X202386300Y-93682380D02*
X202410109Y-93634761D01*
X202410109Y-93634761D02*
X202410109Y-93563333D01*
X202410109Y-93563333D02*
X202386300Y-93515714D01*
X202386300Y-93515714D02*
X202362490Y-93491904D01*
X202148204Y-93087142D02*
X202148204Y-93253809D01*
X202410109Y-93253809D02*
X201910109Y-93253809D01*
X201910109Y-93253809D02*
X201910109Y-93015714D01*
X183525333Y-73657966D02*
X183492000Y-73691300D01*
X183492000Y-73691300D02*
X183392000Y-73724633D01*
X183392000Y-73724633D02*
X183325333Y-73724633D01*
X183325333Y-73724633D02*
X183225333Y-73691300D01*
X183225333Y-73691300D02*
X183158667Y-73624633D01*
X183158667Y-73624633D02*
X183125333Y-73557966D01*
X183125333Y-73557966D02*
X183092000Y-73424633D01*
X183092000Y-73424633D02*
X183092000Y-73324633D01*
X183092000Y-73324633D02*
X183125333Y-73191300D01*
X183125333Y-73191300D02*
X183158667Y-73124633D01*
X183158667Y-73124633D02*
X183225333Y-73057966D01*
X183225333Y-73057966D02*
X183325333Y-73024633D01*
X183325333Y-73024633D02*
X183392000Y-73024633D01*
X183392000Y-73024633D02*
X183492000Y-73057966D01*
X183492000Y-73057966D02*
X183525333Y-73091300D01*
X184192000Y-73724633D02*
X183792000Y-73724633D01*
X183992000Y-73724633D02*
X183992000Y-73024633D01*
X183992000Y-73024633D02*
X183925333Y-73124633D01*
X183925333Y-73124633D02*
X183858667Y-73191300D01*
X183858667Y-73191300D02*
X183792000Y-73224633D01*
X184852572Y-73132109D02*
X184900191Y-73132109D01*
X184900191Y-73132109D02*
X184947810Y-73155919D01*
X184947810Y-73155919D02*
X184971620Y-73179728D01*
X184971620Y-73179728D02*
X184995429Y-73227347D01*
X184995429Y-73227347D02*
X185019239Y-73322585D01*
X185019239Y-73322585D02*
X185019239Y-73441633D01*
X185019239Y-73441633D02*
X184995429Y-73536871D01*
X184995429Y-73536871D02*
X184971620Y-73584490D01*
X184971620Y-73584490D02*
X184947810Y-73608300D01*
X184947810Y-73608300D02*
X184900191Y-73632109D01*
X184900191Y-73632109D02*
X184852572Y-73632109D01*
X184852572Y-73632109D02*
X184804953Y-73608300D01*
X184804953Y-73608300D02*
X184781144Y-73584490D01*
X184781144Y-73584490D02*
X184757334Y-73536871D01*
X184757334Y-73536871D02*
X184733525Y-73441633D01*
X184733525Y-73441633D02*
X184733525Y-73322585D01*
X184733525Y-73322585D02*
X184757334Y-73227347D01*
X184757334Y-73227347D02*
X184781144Y-73179728D01*
X184781144Y-73179728D02*
X184804953Y-73155919D01*
X184804953Y-73155919D02*
X184852572Y-73132109D01*
X185233524Y-73584490D02*
X185257334Y-73608300D01*
X185257334Y-73608300D02*
X185233524Y-73632109D01*
X185233524Y-73632109D02*
X185209715Y-73608300D01*
X185209715Y-73608300D02*
X185233524Y-73584490D01*
X185233524Y-73584490D02*
X185233524Y-73632109D01*
X185733524Y-73632109D02*
X185447810Y-73632109D01*
X185590667Y-73632109D02*
X185590667Y-73132109D01*
X185590667Y-73132109D02*
X185543048Y-73203538D01*
X185543048Y-73203538D02*
X185495429Y-73251157D01*
X185495429Y-73251157D02*
X185447810Y-73274966D01*
X186162095Y-73298776D02*
X186162095Y-73632109D01*
X185947809Y-73298776D02*
X185947809Y-73560680D01*
X185947809Y-73560680D02*
X185971619Y-73608300D01*
X185971619Y-73608300D02*
X186019238Y-73632109D01*
X186019238Y-73632109D02*
X186090666Y-73632109D01*
X186090666Y-73632109D02*
X186138285Y-73608300D01*
X186138285Y-73608300D02*
X186162095Y-73584490D01*
X186566857Y-73370204D02*
X186400190Y-73370204D01*
X186400190Y-73632109D02*
X186400190Y-73132109D01*
X186400190Y-73132109D02*
X186638285Y-73132109D01*
X195633371Y-99895000D02*
X196061942Y-99895000D01*
X196061942Y-99895000D02*
X196147657Y-99923571D01*
X196147657Y-99923571D02*
X196204800Y-99980714D01*
X196204800Y-99980714D02*
X196233371Y-100066428D01*
X196233371Y-100066428D02*
X196233371Y-100123571D01*
X195633371Y-99666428D02*
X195633371Y-99295000D01*
X195633371Y-99295000D02*
X195861942Y-99495000D01*
X195861942Y-99495000D02*
X195861942Y-99409285D01*
X195861942Y-99409285D02*
X195890514Y-99352143D01*
X195890514Y-99352143D02*
X195919085Y-99323571D01*
X195919085Y-99323571D02*
X195976228Y-99295000D01*
X195976228Y-99295000D02*
X196119085Y-99295000D01*
X196119085Y-99295000D02*
X196176228Y-99323571D01*
X196176228Y-99323571D02*
X196204800Y-99352143D01*
X196204800Y-99352143D02*
X196233371Y-99409285D01*
X196233371Y-99409285D02*
X196233371Y-99580714D01*
X196233371Y-99580714D02*
X196204800Y-99637857D01*
X196204800Y-99637857D02*
X196176228Y-99666428D01*
X173546633Y-94604666D02*
X173213300Y-94837999D01*
X173546633Y-95004666D02*
X172846633Y-95004666D01*
X172846633Y-95004666D02*
X172846633Y-94737999D01*
X172846633Y-94737999D02*
X172879966Y-94671333D01*
X172879966Y-94671333D02*
X172913300Y-94637999D01*
X172913300Y-94637999D02*
X172979966Y-94604666D01*
X172979966Y-94604666D02*
X173079966Y-94604666D01*
X173079966Y-94604666D02*
X173146633Y-94637999D01*
X173146633Y-94637999D02*
X173179966Y-94671333D01*
X173179966Y-94671333D02*
X173213300Y-94737999D01*
X173213300Y-94737999D02*
X173213300Y-95004666D01*
X173546633Y-93937999D02*
X173546633Y-94337999D01*
X173546633Y-94137999D02*
X172846633Y-94137999D01*
X172846633Y-94137999D02*
X172946633Y-94204666D01*
X172946633Y-94204666D02*
X173013300Y-94271333D01*
X173013300Y-94271333D02*
X173046633Y-94337999D01*
X175676762Y-93444109D02*
X175391048Y-93444109D01*
X175533905Y-93444109D02*
X175533905Y-92944109D01*
X175533905Y-92944109D02*
X175486286Y-93015538D01*
X175486286Y-93015538D02*
X175438667Y-93063157D01*
X175438667Y-93063157D02*
X175391048Y-93086966D01*
X175986285Y-92944109D02*
X176033904Y-92944109D01*
X176033904Y-92944109D02*
X176081523Y-92967919D01*
X176081523Y-92967919D02*
X176105333Y-92991728D01*
X176105333Y-92991728D02*
X176129142Y-93039347D01*
X176129142Y-93039347D02*
X176152952Y-93134585D01*
X176152952Y-93134585D02*
X176152952Y-93253633D01*
X176152952Y-93253633D02*
X176129142Y-93348871D01*
X176129142Y-93348871D02*
X176105333Y-93396490D01*
X176105333Y-93396490D02*
X176081523Y-93420300D01*
X176081523Y-93420300D02*
X176033904Y-93444109D01*
X176033904Y-93444109D02*
X175986285Y-93444109D01*
X175986285Y-93444109D02*
X175938666Y-93420300D01*
X175938666Y-93420300D02*
X175914857Y-93396490D01*
X175914857Y-93396490D02*
X175891047Y-93348871D01*
X175891047Y-93348871D02*
X175867238Y-93253633D01*
X175867238Y-93253633D02*
X175867238Y-93134585D01*
X175867238Y-93134585D02*
X175891047Y-93039347D01*
X175891047Y-93039347D02*
X175914857Y-92991728D01*
X175914857Y-92991728D02*
X175938666Y-92967919D01*
X175938666Y-92967919D02*
X175986285Y-92944109D01*
X176367237Y-93444109D02*
X176367237Y-92944109D01*
X176652951Y-93444109D02*
X176438666Y-93158395D01*
X176652951Y-92944109D02*
X176367237Y-93229823D01*
X198765333Y-79566633D02*
X198532000Y-79233300D01*
X198365333Y-79566633D02*
X198365333Y-78866633D01*
X198365333Y-78866633D02*
X198632000Y-78866633D01*
X198632000Y-78866633D02*
X198698667Y-78899966D01*
X198698667Y-78899966D02*
X198732000Y-78933300D01*
X198732000Y-78933300D02*
X198765333Y-78999966D01*
X198765333Y-78999966D02*
X198765333Y-79099966D01*
X198765333Y-79099966D02*
X198732000Y-79166633D01*
X198732000Y-79166633D02*
X198698667Y-79199966D01*
X198698667Y-79199966D02*
X198632000Y-79233300D01*
X198632000Y-79233300D02*
X198365333Y-79233300D01*
X199365333Y-79099966D02*
X199365333Y-79566633D01*
X199198667Y-78833300D02*
X199032000Y-79333300D01*
X199032000Y-79333300D02*
X199465333Y-79333300D01*
X200094952Y-78952561D02*
X200094952Y-79485895D01*
X199904476Y-78647800D02*
X199713999Y-79219228D01*
X199713999Y-79219228D02*
X200209238Y-79219228D01*
X200514000Y-79409704D02*
X200552095Y-79447800D01*
X200552095Y-79447800D02*
X200514000Y-79485895D01*
X200514000Y-79485895D02*
X200475904Y-79447800D01*
X200475904Y-79447800D02*
X200514000Y-79409704D01*
X200514000Y-79409704D02*
X200514000Y-79485895D01*
X200818761Y-78685895D02*
X201352095Y-78685895D01*
X201352095Y-78685895D02*
X201009237Y-79485895D01*
X201656857Y-79485895D02*
X201656857Y-78685895D01*
X202114000Y-79485895D02*
X201771142Y-79028752D01*
X202114000Y-78685895D02*
X201656857Y-79143038D01*
X168741000Y-85549966D02*
X168841000Y-85583300D01*
X168841000Y-85583300D02*
X168874333Y-85616633D01*
X168874333Y-85616633D02*
X168907666Y-85683300D01*
X168907666Y-85683300D02*
X168907666Y-85783300D01*
X168907666Y-85783300D02*
X168874333Y-85849966D01*
X168874333Y-85849966D02*
X168841000Y-85883300D01*
X168841000Y-85883300D02*
X168774333Y-85916633D01*
X168774333Y-85916633D02*
X168507666Y-85916633D01*
X168507666Y-85916633D02*
X168507666Y-85216633D01*
X168507666Y-85216633D02*
X168741000Y-85216633D01*
X168741000Y-85216633D02*
X168807666Y-85249966D01*
X168807666Y-85249966D02*
X168841000Y-85283300D01*
X168841000Y-85283300D02*
X168874333Y-85349966D01*
X168874333Y-85349966D02*
X168874333Y-85416633D01*
X168874333Y-85416633D02*
X168841000Y-85483300D01*
X168841000Y-85483300D02*
X168807666Y-85516633D01*
X168807666Y-85516633D02*
X168741000Y-85549966D01*
X168741000Y-85549966D02*
X168507666Y-85549966D01*
X169107666Y-85216633D02*
X169507666Y-85216633D01*
X169307666Y-85916633D02*
X169307666Y-85216633D01*
X170107666Y-85916633D02*
X169707666Y-85916633D01*
X169907666Y-85916633D02*
X169907666Y-85216633D01*
X169907666Y-85216633D02*
X169840999Y-85316633D01*
X169840999Y-85316633D02*
X169774333Y-85383300D01*
X169774333Y-85383300D02*
X169707666Y-85416633D01*
X168776856Y-78177847D02*
X168891142Y-78215942D01*
X168891142Y-78215942D02*
X168929237Y-78254038D01*
X168929237Y-78254038D02*
X168967333Y-78330228D01*
X168967333Y-78330228D02*
X168967333Y-78444514D01*
X168967333Y-78444514D02*
X168929237Y-78520704D01*
X168929237Y-78520704D02*
X168891142Y-78558800D01*
X168891142Y-78558800D02*
X168814952Y-78596895D01*
X168814952Y-78596895D02*
X168510190Y-78596895D01*
X168510190Y-78596895D02*
X168510190Y-77796895D01*
X168510190Y-77796895D02*
X168776856Y-77796895D01*
X168776856Y-77796895D02*
X168853047Y-77834990D01*
X168853047Y-77834990D02*
X168891142Y-77873085D01*
X168891142Y-77873085D02*
X168929237Y-77949276D01*
X168929237Y-77949276D02*
X168929237Y-78025466D01*
X168929237Y-78025466D02*
X168891142Y-78101657D01*
X168891142Y-78101657D02*
X168853047Y-78139752D01*
X168853047Y-78139752D02*
X168776856Y-78177847D01*
X168776856Y-78177847D02*
X168510190Y-78177847D01*
X169653047Y-78596895D02*
X169653047Y-78177847D01*
X169653047Y-78177847D02*
X169614952Y-78101657D01*
X169614952Y-78101657D02*
X169538761Y-78063561D01*
X169538761Y-78063561D02*
X169386380Y-78063561D01*
X169386380Y-78063561D02*
X169310190Y-78101657D01*
X169653047Y-78558800D02*
X169576856Y-78596895D01*
X169576856Y-78596895D02*
X169386380Y-78596895D01*
X169386380Y-78596895D02*
X169310190Y-78558800D01*
X169310190Y-78558800D02*
X169272094Y-78482609D01*
X169272094Y-78482609D02*
X169272094Y-78406419D01*
X169272094Y-78406419D02*
X169310190Y-78330228D01*
X169310190Y-78330228D02*
X169386380Y-78292133D01*
X169386380Y-78292133D02*
X169576856Y-78292133D01*
X169576856Y-78292133D02*
X169653047Y-78254038D01*
X169919714Y-78063561D02*
X170224476Y-78063561D01*
X170034000Y-77796895D02*
X170034000Y-78482609D01*
X170034000Y-78482609D02*
X170072095Y-78558800D01*
X170072095Y-78558800D02*
X170148285Y-78596895D01*
X170148285Y-78596895D02*
X170224476Y-78596895D01*
X170376857Y-78063561D02*
X170681619Y-78063561D01*
X170491143Y-77796895D02*
X170491143Y-78482609D01*
X170491143Y-78482609D02*
X170529238Y-78558800D01*
X170529238Y-78558800D02*
X170605428Y-78596895D01*
X170605428Y-78596895D02*
X170681619Y-78596895D01*
X171253048Y-78558800D02*
X171176857Y-78596895D01*
X171176857Y-78596895D02*
X171024476Y-78596895D01*
X171024476Y-78596895D02*
X170948286Y-78558800D01*
X170948286Y-78558800D02*
X170910190Y-78482609D01*
X170910190Y-78482609D02*
X170910190Y-78177847D01*
X170910190Y-78177847D02*
X170948286Y-78101657D01*
X170948286Y-78101657D02*
X171024476Y-78063561D01*
X171024476Y-78063561D02*
X171176857Y-78063561D01*
X171176857Y-78063561D02*
X171253048Y-78101657D01*
X171253048Y-78101657D02*
X171291143Y-78177847D01*
X171291143Y-78177847D02*
X171291143Y-78254038D01*
X171291143Y-78254038D02*
X170910190Y-78330228D01*
X171634000Y-78596895D02*
X171634000Y-78063561D01*
X171634000Y-78215942D02*
X171672095Y-78139752D01*
X171672095Y-78139752D02*
X171710190Y-78101657D01*
X171710190Y-78101657D02*
X171786381Y-78063561D01*
X171786381Y-78063561D02*
X171862571Y-78063561D01*
X172053047Y-78063561D02*
X172243523Y-78596895D01*
X172434000Y-78063561D02*
X172243523Y-78596895D01*
X172243523Y-78596895D02*
X172167333Y-78787371D01*
X172167333Y-78787371D02*
X172129238Y-78825466D01*
X172129238Y-78825466D02*
X172053047Y-78863561D01*
X202683333Y-72962633D02*
X202683333Y-72262633D01*
X202683333Y-72262633D02*
X202850000Y-72262633D01*
X202850000Y-72262633D02*
X202950000Y-72295966D01*
X202950000Y-72295966D02*
X203016667Y-72362633D01*
X203016667Y-72362633D02*
X203050000Y-72429300D01*
X203050000Y-72429300D02*
X203083333Y-72562633D01*
X203083333Y-72562633D02*
X203083333Y-72662633D01*
X203083333Y-72662633D02*
X203050000Y-72795966D01*
X203050000Y-72795966D02*
X203016667Y-72862633D01*
X203016667Y-72862633D02*
X202950000Y-72929300D01*
X202950000Y-72929300D02*
X202850000Y-72962633D01*
X202850000Y-72962633D02*
X202683333Y-72962633D01*
X203750000Y-72962633D02*
X203350000Y-72962633D01*
X203550000Y-72962633D02*
X203550000Y-72262633D01*
X203550000Y-72262633D02*
X203483333Y-72362633D01*
X203483333Y-72362633D02*
X203416667Y-72429300D01*
X203416667Y-72429300D02*
X203350000Y-72462633D01*
X207120895Y-74682285D02*
X207120895Y-75063237D01*
X207120895Y-75063237D02*
X206320895Y-75063237D01*
X206701847Y-74415618D02*
X206701847Y-74148952D01*
X207120895Y-74034666D02*
X207120895Y-74415618D01*
X207120895Y-74415618D02*
X206320895Y-74415618D01*
X206320895Y-74415618D02*
X206320895Y-74034666D01*
X207120895Y-73691808D02*
X206320895Y-73691808D01*
X206320895Y-73691808D02*
X206320895Y-73501332D01*
X206320895Y-73501332D02*
X206358990Y-73387046D01*
X206358990Y-73387046D02*
X206435180Y-73310856D01*
X206435180Y-73310856D02*
X206511371Y-73272761D01*
X206511371Y-73272761D02*
X206663752Y-73234665D01*
X206663752Y-73234665D02*
X206778038Y-73234665D01*
X206778038Y-73234665D02*
X206930419Y-73272761D01*
X206930419Y-73272761D02*
X207006609Y-73310856D01*
X207006609Y-73310856D02*
X207082800Y-73387046D01*
X207082800Y-73387046D02*
X207120895Y-73501332D01*
X207120895Y-73501332D02*
X207120895Y-73691808D01*
X213253666Y-97281633D02*
X213253666Y-97781633D01*
X213253666Y-97781633D02*
X213220333Y-97881633D01*
X213220333Y-97881633D02*
X213153666Y-97948300D01*
X213153666Y-97948300D02*
X213053666Y-97981633D01*
X213053666Y-97981633D02*
X212987000Y-97981633D01*
X213953666Y-97981633D02*
X213553666Y-97981633D01*
X213753666Y-97981633D02*
X213753666Y-97281633D01*
X213753666Y-97281633D02*
X213686999Y-97381633D01*
X213686999Y-97381633D02*
X213620333Y-97448300D01*
X213620333Y-97448300D02*
X213553666Y-97481633D01*
X213253666Y-76072633D02*
X213253666Y-76572633D01*
X213253666Y-76572633D02*
X213220333Y-76672633D01*
X213220333Y-76672633D02*
X213153666Y-76739300D01*
X213153666Y-76739300D02*
X213053666Y-76772633D01*
X213053666Y-76772633D02*
X212987000Y-76772633D01*
X213886999Y-76305966D02*
X213886999Y-76772633D01*
X213720333Y-76039300D02*
X213553666Y-76539300D01*
X213553666Y-76539300D02*
X213986999Y-76539300D01*
X185648666Y-77088633D02*
X185648666Y-77655300D01*
X185648666Y-77655300D02*
X185682000Y-77721966D01*
X185682000Y-77721966D02*
X185715333Y-77755300D01*
X185715333Y-77755300D02*
X185782000Y-77788633D01*
X185782000Y-77788633D02*
X185915333Y-77788633D01*
X185915333Y-77788633D02*
X185982000Y-77755300D01*
X185982000Y-77755300D02*
X186015333Y-77721966D01*
X186015333Y-77721966D02*
X186048666Y-77655300D01*
X186048666Y-77655300D02*
X186048666Y-77088633D01*
X186681999Y-77321966D02*
X186681999Y-77788633D01*
X186515333Y-77055300D02*
X186348666Y-77555300D01*
X186348666Y-77555300D02*
X186781999Y-77555300D01*
X185048323Y-88423143D02*
X185048323Y-88042190D01*
X185276895Y-88499333D02*
X184476895Y-88232666D01*
X184476895Y-88232666D02*
X185276895Y-87966000D01*
X184476895Y-87813619D02*
X184476895Y-87356476D01*
X185276895Y-87585048D02*
X184476895Y-87585048D01*
X185276895Y-87089809D02*
X184476895Y-87089809D01*
X184476895Y-87089809D02*
X185048323Y-86823143D01*
X185048323Y-86823143D02*
X184476895Y-86556476D01*
X184476895Y-86556476D02*
X185276895Y-86556476D01*
X184857847Y-86175523D02*
X184857847Y-85908857D01*
X185276895Y-85794571D02*
X185276895Y-86175523D01*
X185276895Y-86175523D02*
X184476895Y-86175523D01*
X184476895Y-86175523D02*
X184476895Y-85794571D01*
X184514990Y-85032666D02*
X184476895Y-85108856D01*
X184476895Y-85108856D02*
X184476895Y-85223142D01*
X184476895Y-85223142D02*
X184514990Y-85337428D01*
X184514990Y-85337428D02*
X184591180Y-85413618D01*
X184591180Y-85413618D02*
X184667371Y-85451713D01*
X184667371Y-85451713D02*
X184819752Y-85489809D01*
X184819752Y-85489809D02*
X184934038Y-85489809D01*
X184934038Y-85489809D02*
X185086419Y-85451713D01*
X185086419Y-85451713D02*
X185162609Y-85413618D01*
X185162609Y-85413618D02*
X185238800Y-85337428D01*
X185238800Y-85337428D02*
X185276895Y-85223142D01*
X185276895Y-85223142D02*
X185276895Y-85146951D01*
X185276895Y-85146951D02*
X185238800Y-85032666D01*
X185238800Y-85032666D02*
X185200704Y-84994570D01*
X185200704Y-84994570D02*
X184934038Y-84994570D01*
X184934038Y-84994570D02*
X184934038Y-85146951D01*
X185048323Y-84689809D02*
X185048323Y-84308856D01*
X185276895Y-84765999D02*
X184476895Y-84499332D01*
X184476895Y-84499332D02*
X185276895Y-84232666D01*
X184476895Y-84042190D02*
X184476895Y-83546952D01*
X184476895Y-83546952D02*
X184781657Y-83813618D01*
X184781657Y-83813618D02*
X184781657Y-83699333D01*
X184781657Y-83699333D02*
X184819752Y-83623142D01*
X184819752Y-83623142D02*
X184857847Y-83585047D01*
X184857847Y-83585047D02*
X184934038Y-83546952D01*
X184934038Y-83546952D02*
X185124514Y-83546952D01*
X185124514Y-83546952D02*
X185200704Y-83585047D01*
X185200704Y-83585047D02*
X185238800Y-83623142D01*
X185238800Y-83623142D02*
X185276895Y-83699333D01*
X185276895Y-83699333D02*
X185276895Y-83927904D01*
X185276895Y-83927904D02*
X185238800Y-84004095D01*
X185238800Y-84004095D02*
X185200704Y-84042190D01*
X184553085Y-83242190D02*
X184514990Y-83204094D01*
X184514990Y-83204094D02*
X184476895Y-83127904D01*
X184476895Y-83127904D02*
X184476895Y-82937428D01*
X184476895Y-82937428D02*
X184514990Y-82861237D01*
X184514990Y-82861237D02*
X184553085Y-82823142D01*
X184553085Y-82823142D02*
X184629276Y-82785047D01*
X184629276Y-82785047D02*
X184705466Y-82785047D01*
X184705466Y-82785047D02*
X184819752Y-82823142D01*
X184819752Y-82823142D02*
X185276895Y-83280285D01*
X185276895Y-83280285D02*
X185276895Y-82785047D01*
X184819752Y-82327904D02*
X184781657Y-82404094D01*
X184781657Y-82404094D02*
X184743561Y-82442189D01*
X184743561Y-82442189D02*
X184667371Y-82480285D01*
X184667371Y-82480285D02*
X184629276Y-82480285D01*
X184629276Y-82480285D02*
X184553085Y-82442189D01*
X184553085Y-82442189D02*
X184514990Y-82404094D01*
X184514990Y-82404094D02*
X184476895Y-82327904D01*
X184476895Y-82327904D02*
X184476895Y-82175523D01*
X184476895Y-82175523D02*
X184514990Y-82099332D01*
X184514990Y-82099332D02*
X184553085Y-82061237D01*
X184553085Y-82061237D02*
X184629276Y-82023142D01*
X184629276Y-82023142D02*
X184667371Y-82023142D01*
X184667371Y-82023142D02*
X184743561Y-82061237D01*
X184743561Y-82061237D02*
X184781657Y-82099332D01*
X184781657Y-82099332D02*
X184819752Y-82175523D01*
X184819752Y-82175523D02*
X184819752Y-82327904D01*
X184819752Y-82327904D02*
X184857847Y-82404094D01*
X184857847Y-82404094D02*
X184895942Y-82442189D01*
X184895942Y-82442189D02*
X184972133Y-82480285D01*
X184972133Y-82480285D02*
X185124514Y-82480285D01*
X185124514Y-82480285D02*
X185200704Y-82442189D01*
X185200704Y-82442189D02*
X185238800Y-82404094D01*
X185238800Y-82404094D02*
X185276895Y-82327904D01*
X185276895Y-82327904D02*
X185276895Y-82175523D01*
X185276895Y-82175523D02*
X185238800Y-82099332D01*
X185238800Y-82099332D02*
X185200704Y-82061237D01*
X185200704Y-82061237D02*
X185124514Y-82023142D01*
X185124514Y-82023142D02*
X184972133Y-82023142D01*
X184972133Y-82023142D02*
X184895942Y-82061237D01*
X184895942Y-82061237D02*
X184857847Y-82099332D01*
X184857847Y-82099332D02*
X184819752Y-82175523D01*
X185276895Y-81680284D02*
X184476895Y-81680284D01*
X184476895Y-81680284D02*
X184476895Y-81375522D01*
X184476895Y-81375522D02*
X184514990Y-81299332D01*
X184514990Y-81299332D02*
X184553085Y-81261237D01*
X184553085Y-81261237D02*
X184629276Y-81223141D01*
X184629276Y-81223141D02*
X184743561Y-81223141D01*
X184743561Y-81223141D02*
X184819752Y-81261237D01*
X184819752Y-81261237D02*
X184857847Y-81299332D01*
X184857847Y-81299332D02*
X184895942Y-81375522D01*
X184895942Y-81375522D02*
X184895942Y-81680284D01*
X184972133Y-80880284D02*
X184972133Y-80270761D01*
X185048323Y-79927904D02*
X185048323Y-79546951D01*
X185276895Y-80004094D02*
X184476895Y-79737427D01*
X184476895Y-79737427D02*
X185276895Y-79470761D01*
X184476895Y-79204094D02*
X185124514Y-79204094D01*
X185124514Y-79204094D02*
X185200704Y-79165999D01*
X185200704Y-79165999D02*
X185238800Y-79127904D01*
X185238800Y-79127904D02*
X185276895Y-79051713D01*
X185276895Y-79051713D02*
X185276895Y-78899332D01*
X185276895Y-78899332D02*
X185238800Y-78823142D01*
X185238800Y-78823142D02*
X185200704Y-78785047D01*
X185200704Y-78785047D02*
X185124514Y-78746951D01*
X185124514Y-78746951D02*
X184476895Y-78746951D01*
X198765333Y-89659966D02*
X198732000Y-89693300D01*
X198732000Y-89693300D02*
X198632000Y-89726633D01*
X198632000Y-89726633D02*
X198565333Y-89726633D01*
X198565333Y-89726633D02*
X198465333Y-89693300D01*
X198465333Y-89693300D02*
X198398667Y-89626633D01*
X198398667Y-89626633D02*
X198365333Y-89559966D01*
X198365333Y-89559966D02*
X198332000Y-89426633D01*
X198332000Y-89426633D02*
X198332000Y-89326633D01*
X198332000Y-89326633D02*
X198365333Y-89193300D01*
X198365333Y-89193300D02*
X198398667Y-89126633D01*
X198398667Y-89126633D02*
X198465333Y-89059966D01*
X198465333Y-89059966D02*
X198565333Y-89026633D01*
X198565333Y-89026633D02*
X198632000Y-89026633D01*
X198632000Y-89026633D02*
X198732000Y-89059966D01*
X198732000Y-89059966D02*
X198765333Y-89093300D01*
X199032000Y-89093300D02*
X199065333Y-89059966D01*
X199065333Y-89059966D02*
X199132000Y-89026633D01*
X199132000Y-89026633D02*
X199298667Y-89026633D01*
X199298667Y-89026633D02*
X199365333Y-89059966D01*
X199365333Y-89059966D02*
X199398667Y-89093300D01*
X199398667Y-89093300D02*
X199432000Y-89159966D01*
X199432000Y-89159966D02*
X199432000Y-89226633D01*
X199432000Y-89226633D02*
X199398667Y-89326633D01*
X199398667Y-89326633D02*
X198998667Y-89726633D01*
X198998667Y-89726633D02*
X199432000Y-89726633D01*
X200107713Y-88795085D02*
X200145809Y-88756990D01*
X200145809Y-88756990D02*
X200221999Y-88718895D01*
X200221999Y-88718895D02*
X200412475Y-88718895D01*
X200412475Y-88718895D02*
X200488666Y-88756990D01*
X200488666Y-88756990D02*
X200526761Y-88795085D01*
X200526761Y-88795085D02*
X200564856Y-88871276D01*
X200564856Y-88871276D02*
X200564856Y-88947466D01*
X200564856Y-88947466D02*
X200526761Y-89061752D01*
X200526761Y-89061752D02*
X200069618Y-89518895D01*
X200069618Y-89518895D02*
X200564856Y-89518895D01*
X200869618Y-88795085D02*
X200907714Y-88756990D01*
X200907714Y-88756990D02*
X200983904Y-88718895D01*
X200983904Y-88718895D02*
X201174380Y-88718895D01*
X201174380Y-88718895D02*
X201250571Y-88756990D01*
X201250571Y-88756990D02*
X201288666Y-88795085D01*
X201288666Y-88795085D02*
X201326761Y-88871276D01*
X201326761Y-88871276D02*
X201326761Y-88947466D01*
X201326761Y-88947466D02*
X201288666Y-89061752D01*
X201288666Y-89061752D02*
X200831523Y-89518895D01*
X200831523Y-89518895D02*
X201326761Y-89518895D01*
X201669619Y-88985561D02*
X201669619Y-89785561D01*
X201669619Y-89023657D02*
X201745809Y-88985561D01*
X201745809Y-88985561D02*
X201898190Y-88985561D01*
X201898190Y-88985561D02*
X201974381Y-89023657D01*
X201974381Y-89023657D02*
X202012476Y-89061752D01*
X202012476Y-89061752D02*
X202050571Y-89137942D01*
X202050571Y-89137942D02*
X202050571Y-89366514D01*
X202050571Y-89366514D02*
X202012476Y-89442704D01*
X202012476Y-89442704D02*
X201974381Y-89480800D01*
X201974381Y-89480800D02*
X201898190Y-89518895D01*
X201898190Y-89518895D02*
X201745809Y-89518895D01*
X201745809Y-89518895D02*
X201669619Y-89480800D01*
X202660095Y-89099847D02*
X202393429Y-89099847D01*
X202393429Y-89518895D02*
X202393429Y-88718895D01*
X202393429Y-88718895D02*
X202774381Y-88718895D01*
X167625300Y-95837333D02*
X167958633Y-95837333D01*
X167258633Y-96070666D02*
X167625300Y-95837333D01*
X167625300Y-95837333D02*
X167258633Y-95603999D01*
X167958633Y-95003999D02*
X167958633Y-95403999D01*
X167958633Y-95203999D02*
X167258633Y-95203999D01*
X167258633Y-95203999D02*
X167358633Y-95270666D01*
X167358633Y-95270666D02*
X167425300Y-95337333D01*
X167425300Y-95337333D02*
X167458633Y-95403999D01*
X166950895Y-93598571D02*
X166950895Y-93103333D01*
X166950895Y-93103333D02*
X167255657Y-93369999D01*
X167255657Y-93369999D02*
X167255657Y-93255714D01*
X167255657Y-93255714D02*
X167293752Y-93179523D01*
X167293752Y-93179523D02*
X167331847Y-93141428D01*
X167331847Y-93141428D02*
X167408038Y-93103333D01*
X167408038Y-93103333D02*
X167598514Y-93103333D01*
X167598514Y-93103333D02*
X167674704Y-93141428D01*
X167674704Y-93141428D02*
X167712800Y-93179523D01*
X167712800Y-93179523D02*
X167750895Y-93255714D01*
X167750895Y-93255714D02*
X167750895Y-93484285D01*
X167750895Y-93484285D02*
X167712800Y-93560476D01*
X167712800Y-93560476D02*
X167674704Y-93598571D01*
X167027085Y-92798571D02*
X166988990Y-92760475D01*
X166988990Y-92760475D02*
X166950895Y-92684285D01*
X166950895Y-92684285D02*
X166950895Y-92493809D01*
X166950895Y-92493809D02*
X166988990Y-92417618D01*
X166988990Y-92417618D02*
X167027085Y-92379523D01*
X167027085Y-92379523D02*
X167103276Y-92341428D01*
X167103276Y-92341428D02*
X167179466Y-92341428D01*
X167179466Y-92341428D02*
X167293752Y-92379523D01*
X167293752Y-92379523D02*
X167750895Y-92836666D01*
X167750895Y-92836666D02*
X167750895Y-92341428D01*
X167674704Y-91998570D02*
X167712800Y-91960475D01*
X167712800Y-91960475D02*
X167750895Y-91998570D01*
X167750895Y-91998570D02*
X167712800Y-92036666D01*
X167712800Y-92036666D02*
X167674704Y-91998570D01*
X167674704Y-91998570D02*
X167750895Y-91998570D01*
X166950895Y-91693809D02*
X166950895Y-91160475D01*
X166950895Y-91160475D02*
X167750895Y-91503333D01*
X166950895Y-90512856D02*
X166950895Y-90665237D01*
X166950895Y-90665237D02*
X166988990Y-90741428D01*
X166988990Y-90741428D02*
X167027085Y-90779523D01*
X167027085Y-90779523D02*
X167141371Y-90855713D01*
X167141371Y-90855713D02*
X167293752Y-90893809D01*
X167293752Y-90893809D02*
X167598514Y-90893809D01*
X167598514Y-90893809D02*
X167674704Y-90855713D01*
X167674704Y-90855713D02*
X167712800Y-90817618D01*
X167712800Y-90817618D02*
X167750895Y-90741428D01*
X167750895Y-90741428D02*
X167750895Y-90589047D01*
X167750895Y-90589047D02*
X167712800Y-90512856D01*
X167712800Y-90512856D02*
X167674704Y-90474761D01*
X167674704Y-90474761D02*
X167598514Y-90436666D01*
X167598514Y-90436666D02*
X167408038Y-90436666D01*
X167408038Y-90436666D02*
X167331847Y-90474761D01*
X167331847Y-90474761D02*
X167293752Y-90512856D01*
X167293752Y-90512856D02*
X167255657Y-90589047D01*
X167255657Y-90589047D02*
X167255657Y-90741428D01*
X167255657Y-90741428D02*
X167293752Y-90817618D01*
X167293752Y-90817618D02*
X167331847Y-90855713D01*
X167331847Y-90855713D02*
X167408038Y-90893809D01*
X167293752Y-89979523D02*
X167255657Y-90055713D01*
X167255657Y-90055713D02*
X167217561Y-90093808D01*
X167217561Y-90093808D02*
X167141371Y-90131904D01*
X167141371Y-90131904D02*
X167103276Y-90131904D01*
X167103276Y-90131904D02*
X167027085Y-90093808D01*
X167027085Y-90093808D02*
X166988990Y-90055713D01*
X166988990Y-90055713D02*
X166950895Y-89979523D01*
X166950895Y-89979523D02*
X166950895Y-89827142D01*
X166950895Y-89827142D02*
X166988990Y-89750951D01*
X166988990Y-89750951D02*
X167027085Y-89712856D01*
X167027085Y-89712856D02*
X167103276Y-89674761D01*
X167103276Y-89674761D02*
X167141371Y-89674761D01*
X167141371Y-89674761D02*
X167217561Y-89712856D01*
X167217561Y-89712856D02*
X167255657Y-89750951D01*
X167255657Y-89750951D02*
X167293752Y-89827142D01*
X167293752Y-89827142D02*
X167293752Y-89979523D01*
X167293752Y-89979523D02*
X167331847Y-90055713D01*
X167331847Y-90055713D02*
X167369942Y-90093808D01*
X167369942Y-90093808D02*
X167446133Y-90131904D01*
X167446133Y-90131904D02*
X167598514Y-90131904D01*
X167598514Y-90131904D02*
X167674704Y-90093808D01*
X167674704Y-90093808D02*
X167712800Y-90055713D01*
X167712800Y-90055713D02*
X167750895Y-89979523D01*
X167750895Y-89979523D02*
X167750895Y-89827142D01*
X167750895Y-89827142D02*
X167712800Y-89750951D01*
X167712800Y-89750951D02*
X167674704Y-89712856D01*
X167674704Y-89712856D02*
X167598514Y-89674761D01*
X167598514Y-89674761D02*
X167446133Y-89674761D01*
X167446133Y-89674761D02*
X167369942Y-89712856D01*
X167369942Y-89712856D02*
X167331847Y-89750951D01*
X167331847Y-89750951D02*
X167293752Y-89827142D01*
X167750895Y-88722379D02*
X166950895Y-88722379D01*
X167750895Y-88265236D02*
X167293752Y-88608094D01*
X166950895Y-88265236D02*
X167408038Y-88722379D01*
X167750895Y-87922379D02*
X166950895Y-87922379D01*
X167331847Y-87922379D02*
X167331847Y-87465236D01*
X167750895Y-87465236D02*
X166950895Y-87465236D01*
X167217561Y-87160475D02*
X167217561Y-86741427D01*
X167217561Y-86741427D02*
X167750895Y-87160475D01*
X167750895Y-87160475D02*
X167750895Y-86741427D01*
X203083333Y-79566633D02*
X202850000Y-79233300D01*
X202683333Y-79566633D02*
X202683333Y-78866633D01*
X202683333Y-78866633D02*
X202950000Y-78866633D01*
X202950000Y-78866633D02*
X203016667Y-78899966D01*
X203016667Y-78899966D02*
X203050000Y-78933300D01*
X203050000Y-78933300D02*
X203083333Y-78999966D01*
X203083333Y-78999966D02*
X203083333Y-79099966D01*
X203083333Y-79099966D02*
X203050000Y-79166633D01*
X203050000Y-79166633D02*
X203016667Y-79199966D01*
X203016667Y-79199966D02*
X202950000Y-79233300D01*
X202950000Y-79233300D02*
X202683333Y-79233300D01*
X203683333Y-78866633D02*
X203550000Y-78866633D01*
X203550000Y-78866633D02*
X203483333Y-78899966D01*
X203483333Y-78899966D02*
X203450000Y-78933300D01*
X203450000Y-78933300D02*
X203383333Y-79033300D01*
X203383333Y-79033300D02*
X203350000Y-79166633D01*
X203350000Y-79166633D02*
X203350000Y-79433300D01*
X203350000Y-79433300D02*
X203383333Y-79499966D01*
X203383333Y-79499966D02*
X203416667Y-79533300D01*
X203416667Y-79533300D02*
X203483333Y-79566633D01*
X203483333Y-79566633D02*
X203616667Y-79566633D01*
X203616667Y-79566633D02*
X203683333Y-79533300D01*
X203683333Y-79533300D02*
X203716667Y-79499966D01*
X203716667Y-79499966D02*
X203750000Y-79433300D01*
X203750000Y-79433300D02*
X203750000Y-79266633D01*
X203750000Y-79266633D02*
X203716667Y-79199966D01*
X203716667Y-79199966D02*
X203683333Y-79166633D01*
X203683333Y-79166633D02*
X203616667Y-79133300D01*
X203616667Y-79133300D02*
X203483333Y-79133300D01*
X203483333Y-79133300D02*
X203416667Y-79166633D01*
X203416667Y-79166633D02*
X203383333Y-79199966D01*
X203383333Y-79199966D02*
X203350000Y-79266633D01*
X203917618Y-82660895D02*
X203460475Y-82660895D01*
X203689047Y-82660895D02*
X203689047Y-81860895D01*
X203689047Y-81860895D02*
X203612856Y-81975180D01*
X203612856Y-81975180D02*
X203536666Y-82051371D01*
X203536666Y-82051371D02*
X203460475Y-82089466D01*
X204412857Y-81860895D02*
X204489047Y-81860895D01*
X204489047Y-81860895D02*
X204565238Y-81898990D01*
X204565238Y-81898990D02*
X204603333Y-81937085D01*
X204603333Y-81937085D02*
X204641428Y-82013276D01*
X204641428Y-82013276D02*
X204679523Y-82165657D01*
X204679523Y-82165657D02*
X204679523Y-82356133D01*
X204679523Y-82356133D02*
X204641428Y-82508514D01*
X204641428Y-82508514D02*
X204603333Y-82584704D01*
X204603333Y-82584704D02*
X204565238Y-82622800D01*
X204565238Y-82622800D02*
X204489047Y-82660895D01*
X204489047Y-82660895D02*
X204412857Y-82660895D01*
X204412857Y-82660895D02*
X204336666Y-82622800D01*
X204336666Y-82622800D02*
X204298571Y-82584704D01*
X204298571Y-82584704D02*
X204260476Y-82508514D01*
X204260476Y-82508514D02*
X204222380Y-82356133D01*
X204222380Y-82356133D02*
X204222380Y-82165657D01*
X204222380Y-82165657D02*
X204260476Y-82013276D01*
X204260476Y-82013276D02*
X204298571Y-81937085D01*
X204298571Y-81937085D02*
X204336666Y-81898990D01*
X204336666Y-81898990D02*
X204412857Y-81860895D01*
X205022381Y-82660895D02*
X205022381Y-81860895D01*
X205479524Y-82660895D02*
X205136666Y-82203752D01*
X205479524Y-81860895D02*
X205022381Y-82318038D01*
X174980666Y-79374633D02*
X174980666Y-79941300D01*
X174980666Y-79941300D02*
X175014000Y-80007966D01*
X175014000Y-80007966D02*
X175047333Y-80041300D01*
X175047333Y-80041300D02*
X175114000Y-80074633D01*
X175114000Y-80074633D02*
X175247333Y-80074633D01*
X175247333Y-80074633D02*
X175314000Y-80041300D01*
X175314000Y-80041300D02*
X175347333Y-80007966D01*
X175347333Y-80007966D02*
X175380666Y-79941300D01*
X175380666Y-79941300D02*
X175380666Y-79374633D01*
X176080666Y-80074633D02*
X175680666Y-80074633D01*
X175880666Y-80074633D02*
X175880666Y-79374633D01*
X175880666Y-79374633D02*
X175813999Y-79474633D01*
X175813999Y-79474633D02*
X175747333Y-79541300D01*
X175747333Y-79541300D02*
X175680666Y-79574633D01*
X176466856Y-79397085D02*
X176504952Y-79358990D01*
X176504952Y-79358990D02*
X176581142Y-79320895D01*
X176581142Y-79320895D02*
X176771618Y-79320895D01*
X176771618Y-79320895D02*
X176847809Y-79358990D01*
X176847809Y-79358990D02*
X176885904Y-79397085D01*
X176885904Y-79397085D02*
X176923999Y-79473276D01*
X176923999Y-79473276D02*
X176923999Y-79549466D01*
X176923999Y-79549466D02*
X176885904Y-79663752D01*
X176885904Y-79663752D02*
X176428761Y-80120895D01*
X176428761Y-80120895D02*
X176923999Y-80120895D01*
X177609714Y-79587561D02*
X177609714Y-80120895D01*
X177419238Y-79282800D02*
X177228761Y-79854228D01*
X177228761Y-79854228D02*
X177724000Y-79854228D01*
X178409714Y-80120895D02*
X178028762Y-80120895D01*
X178028762Y-80120895D02*
X178028762Y-79320895D01*
X179133524Y-80044704D02*
X179095428Y-80082800D01*
X179095428Y-80082800D02*
X178981143Y-80120895D01*
X178981143Y-80120895D02*
X178904952Y-80120895D01*
X178904952Y-80120895D02*
X178790666Y-80082800D01*
X178790666Y-80082800D02*
X178714476Y-80006609D01*
X178714476Y-80006609D02*
X178676381Y-79930419D01*
X178676381Y-79930419D02*
X178638285Y-79778038D01*
X178638285Y-79778038D02*
X178638285Y-79663752D01*
X178638285Y-79663752D02*
X178676381Y-79511371D01*
X178676381Y-79511371D02*
X178714476Y-79435180D01*
X178714476Y-79435180D02*
X178790666Y-79358990D01*
X178790666Y-79358990D02*
X178904952Y-79320895D01*
X178904952Y-79320895D02*
X178981143Y-79320895D01*
X178981143Y-79320895D02*
X179095428Y-79358990D01*
X179095428Y-79358990D02*
X179133524Y-79397085D01*
X179895428Y-80120895D02*
X179438285Y-80120895D01*
X179666857Y-80120895D02*
X179666857Y-79320895D01*
X179666857Y-79320895D02*
X179590666Y-79435180D01*
X179590666Y-79435180D02*
X179514476Y-79511371D01*
X179514476Y-79511371D02*
X179438285Y-79549466D01*
X180390667Y-79320895D02*
X180466857Y-79320895D01*
X180466857Y-79320895D02*
X180543048Y-79358990D01*
X180543048Y-79358990D02*
X180581143Y-79397085D01*
X180581143Y-79397085D02*
X180619238Y-79473276D01*
X180619238Y-79473276D02*
X180657333Y-79625657D01*
X180657333Y-79625657D02*
X180657333Y-79816133D01*
X180657333Y-79816133D02*
X180619238Y-79968514D01*
X180619238Y-79968514D02*
X180581143Y-80044704D01*
X180581143Y-80044704D02*
X180543048Y-80082800D01*
X180543048Y-80082800D02*
X180466857Y-80120895D01*
X180466857Y-80120895D02*
X180390667Y-80120895D01*
X180390667Y-80120895D02*
X180314476Y-80082800D01*
X180314476Y-80082800D02*
X180276381Y-80044704D01*
X180276381Y-80044704D02*
X180238286Y-79968514D01*
X180238286Y-79968514D02*
X180200190Y-79816133D01*
X180200190Y-79816133D02*
X180200190Y-79625657D01*
X180200190Y-79625657D02*
X180238286Y-79473276D01*
X180238286Y-79473276D02*
X180276381Y-79397085D01*
X180276381Y-79397085D02*
X180314476Y-79358990D01*
X180314476Y-79358990D02*
X180390667Y-79320895D01*
X180962095Y-79397085D02*
X181000191Y-79358990D01*
X181000191Y-79358990D02*
X181076381Y-79320895D01*
X181076381Y-79320895D02*
X181266857Y-79320895D01*
X181266857Y-79320895D02*
X181343048Y-79358990D01*
X181343048Y-79358990D02*
X181381143Y-79397085D01*
X181381143Y-79397085D02*
X181419238Y-79473276D01*
X181419238Y-79473276D02*
X181419238Y-79549466D01*
X181419238Y-79549466D02*
X181381143Y-79663752D01*
X181381143Y-79663752D02*
X180924000Y-80120895D01*
X180924000Y-80120895D02*
X181419238Y-80120895D01*
X182143048Y-79320895D02*
X181762096Y-79320895D01*
X181762096Y-79320895D02*
X181724000Y-79701847D01*
X181724000Y-79701847D02*
X181762096Y-79663752D01*
X181762096Y-79663752D02*
X181838286Y-79625657D01*
X181838286Y-79625657D02*
X182028762Y-79625657D01*
X182028762Y-79625657D02*
X182104953Y-79663752D01*
X182104953Y-79663752D02*
X182143048Y-79701847D01*
X182143048Y-79701847D02*
X182181143Y-79778038D01*
X182181143Y-79778038D02*
X182181143Y-79968514D01*
X182181143Y-79968514D02*
X182143048Y-80044704D01*
X182143048Y-80044704D02*
X182104953Y-80082800D01*
X182104953Y-80082800D02*
X182028762Y-80120895D01*
X182028762Y-80120895D02*
X181838286Y-80120895D01*
X181838286Y-80120895D02*
X181762096Y-80082800D01*
X181762096Y-80082800D02*
X181724000Y-80044704D01*
X198765333Y-76264633D02*
X198532000Y-75931300D01*
X198365333Y-76264633D02*
X198365333Y-75564633D01*
X198365333Y-75564633D02*
X198632000Y-75564633D01*
X198632000Y-75564633D02*
X198698667Y-75597966D01*
X198698667Y-75597966D02*
X198732000Y-75631300D01*
X198732000Y-75631300D02*
X198765333Y-75697966D01*
X198765333Y-75697966D02*
X198765333Y-75797966D01*
X198765333Y-75797966D02*
X198732000Y-75864633D01*
X198732000Y-75864633D02*
X198698667Y-75897966D01*
X198698667Y-75897966D02*
X198632000Y-75931300D01*
X198632000Y-75931300D02*
X198365333Y-75931300D01*
X198998667Y-75564633D02*
X199465333Y-75564633D01*
X199465333Y-75564633D02*
X199165333Y-76264633D01*
X197303895Y-78498571D02*
X197303895Y-78003333D01*
X197303895Y-78003333D02*
X197608657Y-78269999D01*
X197608657Y-78269999D02*
X197608657Y-78155714D01*
X197608657Y-78155714D02*
X197646752Y-78079523D01*
X197646752Y-78079523D02*
X197684847Y-78041428D01*
X197684847Y-78041428D02*
X197761038Y-78003333D01*
X197761038Y-78003333D02*
X197951514Y-78003333D01*
X197951514Y-78003333D02*
X198027704Y-78041428D01*
X198027704Y-78041428D02*
X198065800Y-78079523D01*
X198065800Y-78079523D02*
X198103895Y-78155714D01*
X198103895Y-78155714D02*
X198103895Y-78384285D01*
X198103895Y-78384285D02*
X198065800Y-78460476D01*
X198065800Y-78460476D02*
X198027704Y-78498571D01*
X197303895Y-77736666D02*
X197303895Y-77241428D01*
X197303895Y-77241428D02*
X197608657Y-77508094D01*
X197608657Y-77508094D02*
X197608657Y-77393809D01*
X197608657Y-77393809D02*
X197646752Y-77317618D01*
X197646752Y-77317618D02*
X197684847Y-77279523D01*
X197684847Y-77279523D02*
X197761038Y-77241428D01*
X197761038Y-77241428D02*
X197951514Y-77241428D01*
X197951514Y-77241428D02*
X198027704Y-77279523D01*
X198027704Y-77279523D02*
X198065800Y-77317618D01*
X198065800Y-77317618D02*
X198103895Y-77393809D01*
X198103895Y-77393809D02*
X198103895Y-77622380D01*
X198103895Y-77622380D02*
X198065800Y-77698571D01*
X198065800Y-77698571D02*
X198027704Y-77736666D01*
X197303895Y-76746189D02*
X197303895Y-76669999D01*
X197303895Y-76669999D02*
X197341990Y-76593808D01*
X197341990Y-76593808D02*
X197380085Y-76555713D01*
X197380085Y-76555713D02*
X197456276Y-76517618D01*
X197456276Y-76517618D02*
X197608657Y-76479523D01*
X197608657Y-76479523D02*
X197799133Y-76479523D01*
X197799133Y-76479523D02*
X197951514Y-76517618D01*
X197951514Y-76517618D02*
X198027704Y-76555713D01*
X198027704Y-76555713D02*
X198065800Y-76593808D01*
X198065800Y-76593808D02*
X198103895Y-76669999D01*
X198103895Y-76669999D02*
X198103895Y-76746189D01*
X198103895Y-76746189D02*
X198065800Y-76822380D01*
X198065800Y-76822380D02*
X198027704Y-76860475D01*
X198027704Y-76860475D02*
X197951514Y-76898570D01*
X197951514Y-76898570D02*
X197799133Y-76936666D01*
X197799133Y-76936666D02*
X197608657Y-76936666D01*
X197608657Y-76936666D02*
X197456276Y-76898570D01*
X197456276Y-76898570D02*
X197380085Y-76860475D01*
X197380085Y-76860475D02*
X197341990Y-76822380D01*
X197341990Y-76822380D02*
X197303895Y-76746189D01*
X178224666Y-93444109D02*
X178058000Y-93206014D01*
X177938952Y-93444109D02*
X177938952Y-92944109D01*
X177938952Y-92944109D02*
X178129428Y-92944109D01*
X178129428Y-92944109D02*
X178177047Y-92967919D01*
X178177047Y-92967919D02*
X178200857Y-92991728D01*
X178200857Y-92991728D02*
X178224666Y-93039347D01*
X178224666Y-93039347D02*
X178224666Y-93110776D01*
X178224666Y-93110776D02*
X178200857Y-93158395D01*
X178200857Y-93158395D02*
X178177047Y-93182204D01*
X178177047Y-93182204D02*
X178129428Y-93206014D01*
X178129428Y-93206014D02*
X177938952Y-93206014D01*
X178415143Y-92991728D02*
X178438952Y-92967919D01*
X178438952Y-92967919D02*
X178486571Y-92944109D01*
X178486571Y-92944109D02*
X178605619Y-92944109D01*
X178605619Y-92944109D02*
X178653238Y-92967919D01*
X178653238Y-92967919D02*
X178677047Y-92991728D01*
X178677047Y-92991728D02*
X178700857Y-93039347D01*
X178700857Y-93039347D02*
X178700857Y-93086966D01*
X178700857Y-93086966D02*
X178677047Y-93158395D01*
X178677047Y-93158395D02*
X178391333Y-93444109D01*
X178391333Y-93444109D02*
X178700857Y-93444109D01*
X182482895Y-95040381D02*
X182482895Y-95497524D01*
X182482895Y-95268952D02*
X181682895Y-95268952D01*
X181682895Y-95268952D02*
X181797180Y-95345143D01*
X181797180Y-95345143D02*
X181873371Y-95421333D01*
X181873371Y-95421333D02*
X181911466Y-95497524D01*
X181682895Y-94545142D02*
X181682895Y-94468952D01*
X181682895Y-94468952D02*
X181720990Y-94392761D01*
X181720990Y-94392761D02*
X181759085Y-94354666D01*
X181759085Y-94354666D02*
X181835276Y-94316571D01*
X181835276Y-94316571D02*
X181987657Y-94278476D01*
X181987657Y-94278476D02*
X182178133Y-94278476D01*
X182178133Y-94278476D02*
X182330514Y-94316571D01*
X182330514Y-94316571D02*
X182406704Y-94354666D01*
X182406704Y-94354666D02*
X182444800Y-94392761D01*
X182444800Y-94392761D02*
X182482895Y-94468952D01*
X182482895Y-94468952D02*
X182482895Y-94545142D01*
X182482895Y-94545142D02*
X182444800Y-94621333D01*
X182444800Y-94621333D02*
X182406704Y-94659428D01*
X182406704Y-94659428D02*
X182330514Y-94697523D01*
X182330514Y-94697523D02*
X182178133Y-94735619D01*
X182178133Y-94735619D02*
X181987657Y-94735619D01*
X181987657Y-94735619D02*
X181835276Y-94697523D01*
X181835276Y-94697523D02*
X181759085Y-94659428D01*
X181759085Y-94659428D02*
X181720990Y-94621333D01*
X181720990Y-94621333D02*
X181682895Y-94545142D01*
X182482895Y-93935618D02*
X181682895Y-93935618D01*
X182482895Y-93478475D02*
X182025752Y-93821333D01*
X181682895Y-93478475D02*
X182140038Y-93935618D01*
X170560633Y-99801333D02*
X171060633Y-99801333D01*
X171060633Y-99801333D02*
X171160633Y-99834666D01*
X171160633Y-99834666D02*
X171227300Y-99901333D01*
X171227300Y-99901333D02*
X171260633Y-100001333D01*
X171260633Y-100001333D02*
X171260633Y-100068000D01*
X170627300Y-99501333D02*
X170593966Y-99468000D01*
X170593966Y-99468000D02*
X170560633Y-99401333D01*
X170560633Y-99401333D02*
X170560633Y-99234667D01*
X170560633Y-99234667D02*
X170593966Y-99168000D01*
X170593966Y-99168000D02*
X170627300Y-99134667D01*
X170627300Y-99134667D02*
X170693966Y-99101333D01*
X170693966Y-99101333D02*
X170760633Y-99101333D01*
X170760633Y-99101333D02*
X170860633Y-99134667D01*
X170860633Y-99134667D02*
X171260633Y-99534667D01*
X171260633Y-99534667D02*
X171260633Y-99101333D01*
X192415333Y-73657966D02*
X192382000Y-73691300D01*
X192382000Y-73691300D02*
X192282000Y-73724633D01*
X192282000Y-73724633D02*
X192215333Y-73724633D01*
X192215333Y-73724633D02*
X192115333Y-73691300D01*
X192115333Y-73691300D02*
X192048667Y-73624633D01*
X192048667Y-73624633D02*
X192015333Y-73557966D01*
X192015333Y-73557966D02*
X191982000Y-73424633D01*
X191982000Y-73424633D02*
X191982000Y-73324633D01*
X191982000Y-73324633D02*
X192015333Y-73191300D01*
X192015333Y-73191300D02*
X192048667Y-73124633D01*
X192048667Y-73124633D02*
X192115333Y-73057966D01*
X192115333Y-73057966D02*
X192215333Y-73024633D01*
X192215333Y-73024633D02*
X192282000Y-73024633D01*
X192282000Y-73024633D02*
X192382000Y-73057966D01*
X192382000Y-73057966D02*
X192415333Y-73091300D01*
X193048667Y-73024633D02*
X192715333Y-73024633D01*
X192715333Y-73024633D02*
X192682000Y-73357966D01*
X192682000Y-73357966D02*
X192715333Y-73324633D01*
X192715333Y-73324633D02*
X192782000Y-73291300D01*
X192782000Y-73291300D02*
X192948667Y-73291300D01*
X192948667Y-73291300D02*
X193015333Y-73324633D01*
X193015333Y-73324633D02*
X193048667Y-73357966D01*
X193048667Y-73357966D02*
X193082000Y-73424633D01*
X193082000Y-73424633D02*
X193082000Y-73591300D01*
X193082000Y-73591300D02*
X193048667Y-73657966D01*
X193048667Y-73657966D02*
X193015333Y-73691300D01*
X193015333Y-73691300D02*
X192948667Y-73724633D01*
X192948667Y-73724633D02*
X192782000Y-73724633D01*
X192782000Y-73724633D02*
X192715333Y-73691300D01*
X192715333Y-73691300D02*
X192682000Y-73657966D01*
X193833904Y-73770895D02*
X193376761Y-73770895D01*
X193605333Y-73770895D02*
X193605333Y-72970895D01*
X193605333Y-72970895D02*
X193529142Y-73085180D01*
X193529142Y-73085180D02*
X193452952Y-73161371D01*
X193452952Y-73161371D02*
X193376761Y-73199466D01*
X194329143Y-72970895D02*
X194405333Y-72970895D01*
X194405333Y-72970895D02*
X194481524Y-73008990D01*
X194481524Y-73008990D02*
X194519619Y-73047085D01*
X194519619Y-73047085D02*
X194557714Y-73123276D01*
X194557714Y-73123276D02*
X194595809Y-73275657D01*
X194595809Y-73275657D02*
X194595809Y-73466133D01*
X194595809Y-73466133D02*
X194557714Y-73618514D01*
X194557714Y-73618514D02*
X194519619Y-73694704D01*
X194519619Y-73694704D02*
X194481524Y-73732800D01*
X194481524Y-73732800D02*
X194405333Y-73770895D01*
X194405333Y-73770895D02*
X194329143Y-73770895D01*
X194329143Y-73770895D02*
X194252952Y-73732800D01*
X194252952Y-73732800D02*
X194214857Y-73694704D01*
X194214857Y-73694704D02*
X194176762Y-73618514D01*
X194176762Y-73618514D02*
X194138666Y-73466133D01*
X194138666Y-73466133D02*
X194138666Y-73275657D01*
X194138666Y-73275657D02*
X194176762Y-73123276D01*
X194176762Y-73123276D02*
X194214857Y-73047085D01*
X194214857Y-73047085D02*
X194252952Y-73008990D01*
X194252952Y-73008990D02*
X194329143Y-72970895D01*
X195091048Y-72970895D02*
X195167238Y-72970895D01*
X195167238Y-72970895D02*
X195243429Y-73008990D01*
X195243429Y-73008990D02*
X195281524Y-73047085D01*
X195281524Y-73047085D02*
X195319619Y-73123276D01*
X195319619Y-73123276D02*
X195357714Y-73275657D01*
X195357714Y-73275657D02*
X195357714Y-73466133D01*
X195357714Y-73466133D02*
X195319619Y-73618514D01*
X195319619Y-73618514D02*
X195281524Y-73694704D01*
X195281524Y-73694704D02*
X195243429Y-73732800D01*
X195243429Y-73732800D02*
X195167238Y-73770895D01*
X195167238Y-73770895D02*
X195091048Y-73770895D01*
X195091048Y-73770895D02*
X195014857Y-73732800D01*
X195014857Y-73732800D02*
X194976762Y-73694704D01*
X194976762Y-73694704D02*
X194938667Y-73618514D01*
X194938667Y-73618514D02*
X194900571Y-73466133D01*
X194900571Y-73466133D02*
X194900571Y-73275657D01*
X194900571Y-73275657D02*
X194938667Y-73123276D01*
X194938667Y-73123276D02*
X194976762Y-73047085D01*
X194976762Y-73047085D02*
X195014857Y-73008990D01*
X195014857Y-73008990D02*
X195091048Y-72970895D01*
X195700572Y-73237561D02*
X195700572Y-73770895D01*
X195700572Y-73313752D02*
X195738667Y-73275657D01*
X195738667Y-73275657D02*
X195814857Y-73237561D01*
X195814857Y-73237561D02*
X195929143Y-73237561D01*
X195929143Y-73237561D02*
X196005334Y-73275657D01*
X196005334Y-73275657D02*
X196043429Y-73351847D01*
X196043429Y-73351847D02*
X196043429Y-73770895D01*
X196691048Y-73351847D02*
X196424382Y-73351847D01*
X196424382Y-73770895D02*
X196424382Y-72970895D01*
X196424382Y-72970895D02*
X196805334Y-72970895D01*
%TO.C,Y2*%
D12*
X187105000Y-93935000D02*
X194475000Y-93935000D01*
X194475000Y-90215000D02*
X187105000Y-90215000D01*
X194475000Y-93935000D02*
X194475000Y-90215000D01*
%TO.C,R3*%
X200252064Y-84555000D02*
X199797936Y-84555000D01*
X200252064Y-83085000D02*
X199797936Y-83085000D01*
%TO.C,D2*%
X198340000Y-73335000D02*
X198340000Y-75255000D01*
X198340000Y-75255000D02*
X201025000Y-75255000D01*
X201025000Y-73335000D02*
X198340000Y-73335000D01*
%TO.C,U3*%
X175040000Y-73440000D02*
X180560000Y-73440000D01*
X175040000Y-73710000D02*
X175040000Y-73440000D01*
X175040000Y-78960000D02*
X175040000Y-78690000D01*
X180560000Y-73440000D02*
X180560000Y-73710000D01*
X180560000Y-78690000D02*
X180560000Y-78960000D01*
X180560000Y-78960000D02*
X175040000Y-78960000D01*
X174210000Y-73700000D02*
X173870000Y-73230000D01*
X174550000Y-73230000D01*
X174210000Y-73700000D01*
G36*
X174210000Y-73700000D02*
G01*
X173870000Y-73230000D01*
X174550000Y-73230000D01*
X174210000Y-73700000D01*
G37*
%TO.C,C3*%
X188968748Y-74195000D02*
X189491252Y-74195000D01*
X188968748Y-75665000D02*
X189491252Y-75665000D01*
%TO.C,R5*%
X204697064Y-78205000D02*
X204242936Y-78205000D01*
X204697064Y-76735000D02*
X204242936Y-76735000D01*
%TO.C,U2*%
D13*
X175800000Y-87650000D02*
X179800000Y-87650000D01*
X175800000Y-92690000D02*
X179800000Y-92690000D01*
D14*
X173455000Y-87675000D02*
G75*
G02*
X173255000Y-87675000I-100000J0D01*
G01*
X173255000Y-87675000D02*
G75*
G02*
X173455000Y-87675000I100000J0D01*
G01*
%TO.C,C4*%
D12*
X200286252Y-94715000D02*
X199763748Y-94715000D01*
X200286252Y-93245000D02*
X199763748Y-93245000D01*
%TO.C,C1*%
X184523748Y-74195000D02*
X185046252Y-74195000D01*
X184523748Y-75665000D02*
X185046252Y-75665000D01*
%TO.C,J3*%
X196740000Y-99805000D02*
X196740000Y-98425000D01*
X198120000Y-99805000D02*
X196740000Y-99805000D01*
X199390000Y-99805000D02*
X207120000Y-99805000D01*
X199390000Y-99805000D02*
X199390000Y-97045000D01*
X207120000Y-99805000D02*
X207120000Y-97045000D01*
X199390000Y-97045000D02*
X207120000Y-97045000D01*
%TO.C,R1*%
X175667936Y-93880000D02*
X176122064Y-93880000D01*
X175667936Y-95350000D02*
X176122064Y-95350000D01*
%TO.C,R4*%
X200252064Y-81380000D02*
X199797936Y-81380000D01*
X200252064Y-79910000D02*
X199797936Y-79910000D01*
%TO.C,BT1*%
X168800000Y-79260000D02*
X170180000Y-79260000D01*
X168800000Y-80640000D02*
X168800000Y-79260000D01*
X168800000Y-81910000D02*
X168800000Y-84560000D01*
X168800000Y-81910000D02*
X171560000Y-81910000D01*
X168800000Y-84560000D02*
X171560000Y-84560000D01*
X171560000Y-81910000D02*
X171560000Y-84560000D01*
%TO.C,D1*%
X202785000Y-73335000D02*
X202785000Y-75255000D01*
X202785000Y-75255000D02*
X205470000Y-75255000D01*
X205470000Y-73335000D02*
X202785000Y-73335000D01*
%TO.C,J1*%
X210710000Y-86250000D02*
X212090000Y-86250000D01*
X210710000Y-87630000D02*
X210710000Y-86250000D01*
X210710000Y-88900000D02*
X210710000Y-96630000D01*
X210710000Y-88900000D02*
X213470000Y-88900000D01*
X210710000Y-96630000D02*
X213470000Y-96630000D01*
X213470000Y-88900000D02*
X213470000Y-96630000D01*
%TO.C,J4*%
X208165000Y-77360000D02*
X209545000Y-77360000D01*
X208165000Y-78740000D02*
X208165000Y-77360000D01*
X208165000Y-80010000D02*
X208165000Y-85200000D01*
X208165000Y-80010000D02*
X210815000Y-80010000D01*
X208165000Y-85200000D02*
X213465000Y-85200000D01*
X210815000Y-77360000D02*
X213465000Y-77360000D01*
X210815000Y-80010000D02*
X210815000Y-77360000D01*
X213465000Y-77360000D02*
X213465000Y-85200000D01*
%TO.C,U4*%
D13*
X187000000Y-79685000D02*
X187000000Y-79790000D01*
X187000000Y-79685000D02*
X187105000Y-79685000D01*
X187000000Y-86685000D02*
X187000000Y-86580000D01*
X187000000Y-86685000D02*
X187105000Y-86685000D01*
X194000000Y-79685000D02*
X193895000Y-79685000D01*
X194000000Y-79685000D02*
X194000000Y-79790000D01*
X194000000Y-86685000D02*
X193895000Y-86685000D01*
X194000000Y-86685000D02*
X194000000Y-86580000D01*
D14*
X184760000Y-80385000D02*
G75*
G02*
X184560000Y-80385000I-100000J0D01*
G01*
X184560000Y-80385000D02*
G75*
G02*
X184760000Y-80385000I100000J0D01*
G01*
%TO.C,C2*%
D12*
X199763748Y-90070000D02*
X200286252Y-90070000D01*
X199763748Y-91540000D02*
X200286252Y-91540000D01*
%TO.C,Y1*%
X168320000Y-95990000D02*
X172040000Y-95990000D01*
X172040000Y-95990000D02*
X172040000Y-88620000D01*
X168320000Y-88620000D02*
X168320000Y-95990000D01*
%TO.C,R6*%
X204242936Y-79910000D02*
X204697064Y-79910000D01*
X204242936Y-81380000D02*
X204697064Y-81380000D01*
%TO.C,U1*%
X175040000Y-80425000D02*
X180560000Y-80425000D01*
X175040000Y-80695000D02*
X175040000Y-80425000D01*
X175040000Y-85945000D02*
X175040000Y-85675000D01*
X180560000Y-80425000D02*
X180560000Y-80695000D01*
X180560000Y-85675000D02*
X180560000Y-85945000D01*
X180560000Y-85945000D02*
X175040000Y-85945000D01*
X174210000Y-80685000D02*
X173870000Y-80215000D01*
X174550000Y-80215000D01*
X174210000Y-80685000D01*
G36*
X174210000Y-80685000D02*
G01*
X173870000Y-80215000D01*
X174550000Y-80215000D01*
X174210000Y-80685000D01*
G37*
%TO.C,R7*%
X199797936Y-76735000D02*
X200252064Y-76735000D01*
X199797936Y-78205000D02*
X200252064Y-78205000D01*
%TO.C,R2*%
X179477936Y-93880000D02*
X179932064Y-93880000D01*
X179477936Y-95350000D02*
X179932064Y-95350000D01*
%TO.C,J2*%
X171975000Y-99805000D02*
X171975000Y-98425000D01*
X173355000Y-99805000D02*
X171975000Y-99805000D01*
X174625000Y-99805000D02*
X195055000Y-99805000D01*
X174625000Y-99805000D02*
X174625000Y-97045000D01*
X195055000Y-99805000D02*
X195055000Y-97045000D01*
X174625000Y-97045000D02*
X195055000Y-97045000D01*
%TO.C,C5*%
X193413748Y-74195000D02*
X193936252Y-74195000D01*
X193413748Y-75665000D02*
X193936252Y-75665000D01*
%TD*%
M02*
