%TF.GenerationSoftware,KiCad,Pcbnew,10.0.3-2.fc44*%
%TF.CreationDate,2026-06-25T23:19:12+05:30*%
%TF.ProjectId,MCU Datalogger,4d435520-4461-4746-916c-6f676765722e,1*%
%TF.SameCoordinates,Original*%
%TF.FileFunction,Legend,Bot*%
%TF.FilePolarity,Positive*%
%FSLAX46Y46*%
G04 Gerber Fmt 4.6, Leading zero omitted, Abs format (unit mm)*
G04 Created by KiCad (PCBNEW 10.0.3-2.fc44) date 2026-06-25 23:19:12*
%MOMM*%
%LPD*%
G01*
G04 APERTURE LIST*
%ADD10C,0.200000*%
%ADD11C,0.010000*%
G04 APERTURE END LIST*
D10*
G36*
X207411282Y-90961362D02*
G01*
X207435073Y-90969437D01*
X207465378Y-90994905D01*
X207476244Y-91011251D01*
X207482931Y-91028596D01*
X207483494Y-91031048D01*
X207484942Y-91047298D01*
X207482585Y-91062454D01*
X207476659Y-91075977D01*
X207467456Y-91087134D01*
X207464199Y-91089849D01*
X207451151Y-91098542D01*
X207431026Y-91102737D01*
X207415045Y-91103832D01*
X207519214Y-91604835D01*
X207543052Y-91607397D01*
X207564237Y-91613603D01*
X207581685Y-91622728D01*
X207596175Y-91634806D01*
X207607040Y-91648997D01*
X207614704Y-91665585D01*
X207617583Y-91676215D01*
X207616821Y-91707699D01*
X207611027Y-91721562D01*
X207602102Y-91732881D01*
X207599692Y-91735017D01*
X207574030Y-91746009D01*
X207535457Y-91749000D01*
X207256104Y-91749000D01*
X207172313Y-91743559D01*
X207092517Y-91723136D01*
X207018587Y-91688395D01*
X206952585Y-91640305D01*
X206923224Y-91611675D01*
X206896577Y-91580204D01*
X206872957Y-91546225D01*
X206852416Y-91509735D01*
X206835307Y-91471283D01*
X206821598Y-91430660D01*
X206813719Y-91399122D01*
X206800896Y-91337511D01*
X206794312Y-91296398D01*
X206791825Y-91256690D01*
X206791936Y-91253791D01*
X206944014Y-91253791D01*
X206945276Y-91316954D01*
X206947930Y-91333359D01*
X206960997Y-91396313D01*
X206970060Y-91430387D01*
X206982435Y-91461882D01*
X206997763Y-91490349D01*
X207015996Y-91516008D01*
X207036752Y-91538514D01*
X207060031Y-91557989D01*
X207085525Y-91574215D01*
X207113195Y-91587173D01*
X207142890Y-91596729D01*
X207174443Y-91602744D01*
X207224780Y-91604835D01*
X207371264Y-91604835D01*
X207267095Y-91103832D01*
X207121953Y-91103832D01*
X207092217Y-91104441D01*
X207064744Y-91108865D01*
X207040196Y-91116700D01*
X207018083Y-91127826D01*
X206998738Y-91141892D01*
X206982035Y-91158830D01*
X206956951Y-91200930D01*
X206944014Y-91253791D01*
X206791936Y-91253791D01*
X206793278Y-91218696D01*
X206798516Y-91182498D01*
X206807321Y-91148520D01*
X206819576Y-91116705D01*
X206834967Y-91087529D01*
X206853464Y-91060853D01*
X206874675Y-91037117D01*
X206898657Y-91016194D01*
X206925012Y-90998422D01*
X206953827Y-90983768D01*
X206984796Y-90972461D01*
X207017943Y-90964589D01*
X207081043Y-90959607D01*
X207371325Y-90959607D01*
X207411282Y-90961362D01*
G37*
G36*
X206362297Y-91143457D02*
G01*
X206442895Y-91166078D01*
X206518501Y-91203133D01*
X206553293Y-91226625D01*
X206585433Y-91253031D01*
X206614406Y-91281885D01*
X206640190Y-91313163D01*
X206661999Y-91345807D01*
X206680233Y-91380345D01*
X206694185Y-91415275D01*
X206704320Y-91451593D01*
X206705153Y-91455481D01*
X206710606Y-91491227D01*
X206711898Y-91525439D01*
X206709249Y-91557322D01*
X206702840Y-91587476D01*
X206692942Y-91615410D01*
X206679602Y-91641413D01*
X206643072Y-91687095D01*
X206593411Y-91723987D01*
X206530375Y-91750906D01*
X206453790Y-91766032D01*
X206403208Y-91768539D01*
X206294226Y-91761431D01*
X206225347Y-91751439D01*
X206161026Y-91738270D01*
X206091127Y-91716759D01*
X206068104Y-91705975D01*
X206050129Y-91692858D01*
X206038487Y-91679435D01*
X206030525Y-91664092D01*
X206027135Y-91652340D01*
X206025439Y-91634927D01*
X206027659Y-91619095D01*
X206033381Y-91605490D01*
X206042315Y-91594320D01*
X206053857Y-91586190D01*
X206067906Y-91581224D01*
X206081845Y-91579800D01*
X206131243Y-91586761D01*
X206258079Y-91615345D01*
X206338008Y-91624066D01*
X206360893Y-91624375D01*
X206405458Y-91622406D01*
X206444086Y-91616438D01*
X206472758Y-91608010D01*
X206497236Y-91596481D01*
X206515821Y-91583357D01*
X206531145Y-91567614D01*
X206551859Y-91529432D01*
X206555188Y-91518434D01*
X205999291Y-91518434D01*
X205987384Y-91461037D01*
X205981739Y-91424419D01*
X205980242Y-91389657D01*
X206136861Y-91389657D01*
X206525696Y-91389657D01*
X206495945Y-91350933D01*
X206450347Y-91316874D01*
X206390793Y-91291819D01*
X206357550Y-91284200D01*
X206323065Y-91280422D01*
X206308442Y-91280053D01*
X206275957Y-91281963D01*
X206245958Y-91287515D01*
X206219015Y-91296357D01*
X206195218Y-91308261D01*
X206175585Y-91322391D01*
X206159513Y-91338893D01*
X206147860Y-91356495D01*
X206139945Y-91375819D01*
X206136861Y-91389657D01*
X205980242Y-91389657D01*
X205980226Y-91389285D01*
X205982649Y-91356251D01*
X205988827Y-91324949D01*
X205998520Y-91295796D01*
X206011644Y-91268621D01*
X206047616Y-91220836D01*
X206096182Y-91182358D01*
X206157072Y-91154405D01*
X206229967Y-91138659D01*
X206279865Y-91135889D01*
X206362297Y-91143457D01*
G37*
G36*
X205160256Y-91229678D02*
G01*
X205155249Y-91199926D01*
X205155554Y-91180707D01*
X205163932Y-91156917D01*
X205185215Y-91140706D01*
X205210570Y-91135889D01*
X205227276Y-91137991D01*
X205241766Y-91144891D01*
X205263815Y-91168068D01*
X205296832Y-91155274D01*
X205332705Y-91145628D01*
X205414776Y-91136121D01*
X205430999Y-91135889D01*
X205518841Y-91143425D01*
X205559958Y-91152641D01*
X205598371Y-91165200D01*
X205633182Y-91180628D01*
X205664614Y-91198883D01*
X205691220Y-91218838D01*
X205714051Y-91241017D01*
X205731783Y-91263740D01*
X205745611Y-91288117D01*
X205757918Y-91324872D01*
X205761691Y-91352718D01*
X205760832Y-91378122D01*
X205756134Y-91398570D01*
X205747659Y-91417223D01*
X205720384Y-91448289D01*
X205675583Y-91474384D01*
X205605467Y-91495983D01*
X205519659Y-91509580D01*
X205443224Y-91519002D01*
X205403028Y-91529157D01*
X205399431Y-91530585D01*
X205381548Y-91540709D01*
X205369591Y-91552199D01*
X205364620Y-91562255D01*
X205364321Y-91572595D01*
X205375098Y-91588070D01*
X205407210Y-91605182D01*
X205469494Y-91620201D01*
X205528513Y-91624375D01*
X205569190Y-91622431D01*
X205605382Y-91616645D01*
X205634273Y-91608091D01*
X205659166Y-91596455D01*
X205686721Y-91575404D01*
X205690620Y-91553481D01*
X205698167Y-91536487D01*
X205707193Y-91526144D01*
X205718874Y-91518964D01*
X205747843Y-91513794D01*
X205767285Y-91515747D01*
X205785342Y-91521601D01*
X205815621Y-91543225D01*
X205828446Y-91560740D01*
X205837289Y-91584292D01*
X205842732Y-91607583D01*
X205852013Y-91652340D01*
X205856022Y-91681300D01*
X205854852Y-91704734D01*
X205850161Y-91719646D01*
X205842121Y-91731170D01*
X205818861Y-91743704D01*
X205796142Y-91746191D01*
X205776777Y-91744066D01*
X205758474Y-91737009D01*
X205747843Y-91730742D01*
X205688613Y-91753096D01*
X205608268Y-91766344D01*
X205553060Y-91768539D01*
X205460271Y-91761013D01*
X205416680Y-91751796D01*
X205375904Y-91739244D01*
X205338855Y-91723821D01*
X205305333Y-91705590D01*
X205276915Y-91685712D01*
X205252432Y-91663648D01*
X205233385Y-91641185D01*
X205218368Y-91617128D01*
X205203365Y-91575404D01*
X205200024Y-91549839D01*
X205200680Y-91525169D01*
X205205154Y-91501885D01*
X205213315Y-91480030D01*
X205224965Y-91459995D01*
X205240026Y-91441912D01*
X205269371Y-91418661D01*
X205294428Y-91405657D01*
X205325433Y-91394220D01*
X205417387Y-91374102D01*
X205458843Y-91368225D01*
X205568386Y-91348685D01*
X205585613Y-91338806D01*
X205594619Y-91328209D01*
X205595436Y-91320659D01*
X205585531Y-91308837D01*
X205550812Y-91293621D01*
X205482974Y-91281137D01*
X205456889Y-91280053D01*
X205420729Y-91282006D01*
X205388686Y-91287858D01*
X205363147Y-91296506D01*
X205340806Y-91308333D01*
X205327807Y-91317850D01*
X205315492Y-91345694D01*
X205301454Y-91362550D01*
X205277004Y-91371739D01*
X205263876Y-91372438D01*
X205230215Y-91365090D01*
X205197564Y-91343068D01*
X205186035Y-91328273D01*
X205177755Y-91308528D01*
X205170453Y-91278710D01*
X205160256Y-91229678D01*
G37*
G36*
X204518386Y-91151520D02*
G01*
X204767636Y-91151520D01*
X204807539Y-91153268D01*
X204831322Y-91161290D01*
X204848576Y-91173255D01*
X204862792Y-91187813D01*
X204873117Y-91203944D01*
X204879449Y-91221553D01*
X204879743Y-91222900D01*
X204881786Y-91242303D01*
X204879226Y-91258660D01*
X204873367Y-91270308D01*
X204864143Y-91279741D01*
X204835075Y-91292163D01*
X204797616Y-91295685D01*
X204696256Y-91295685D01*
X204760491Y-91604835D01*
X204922119Y-91604835D01*
X204960816Y-91606583D01*
X204984401Y-91614605D01*
X205014873Y-91640273D01*
X205025700Y-91656622D01*
X205032314Y-91673963D01*
X205032822Y-91676215D01*
X205034771Y-91695165D01*
X205032200Y-91711342D01*
X205026296Y-91723154D01*
X205017008Y-91732789D01*
X204987909Y-91745510D01*
X204952100Y-91749000D01*
X204481078Y-91749000D01*
X204452609Y-91747057D01*
X204428092Y-91741273D01*
X204409561Y-91732891D01*
X204394324Y-91721531D01*
X204383068Y-91708197D01*
X204374817Y-91692320D01*
X204370069Y-91676215D01*
X204368655Y-91659938D01*
X204371211Y-91644685D01*
X204377391Y-91631305D01*
X204387095Y-91619849D01*
X204388265Y-91618818D01*
X204401129Y-91610574D01*
X204418645Y-91606270D01*
X204451097Y-91604835D01*
X204612602Y-91604835D01*
X204518386Y-91151520D01*
G37*
G36*
X204486268Y-90904896D02*
G01*
X204658825Y-90904896D01*
X204690272Y-91056144D01*
X204517714Y-91056144D01*
X204486268Y-90904896D01*
G37*
G36*
X203868907Y-91143463D02*
G01*
X203943856Y-91166138D01*
X204014361Y-91203449D01*
X204077030Y-91254056D01*
X204104279Y-91283559D01*
X204128477Y-91315593D01*
X204149002Y-91349302D01*
X204166050Y-91385025D01*
X204186826Y-91452244D01*
X204192369Y-91488354D01*
X204193827Y-91523104D01*
X204191379Y-91556107D01*
X204185194Y-91587410D01*
X204175481Y-91616688D01*
X204162362Y-91643929D01*
X204146025Y-91668904D01*
X204126588Y-91691502D01*
X204078915Y-91728916D01*
X204050853Y-91743409D01*
X204020240Y-91754785D01*
X203986990Y-91762908D01*
X203951456Y-91767509D01*
X203923899Y-91768539D01*
X203886657Y-91766567D01*
X203849840Y-91760580D01*
X203814163Y-91750750D01*
X203778676Y-91736883D01*
X203723497Y-91706990D01*
X203736564Y-91769943D01*
X203752934Y-91811657D01*
X203782227Y-91845100D01*
X203822957Y-91868130D01*
X203847019Y-91874938D01*
X203872940Y-91878153D01*
X203882316Y-91878387D01*
X204031610Y-91878387D01*
X204070330Y-91880135D01*
X204093892Y-91888157D01*
X204122082Y-91910772D01*
X204133318Y-91926892D01*
X204140826Y-91944411D01*
X204142557Y-91951172D01*
X204144001Y-91967368D01*
X204141492Y-91982553D01*
X204135352Y-91995950D01*
X204125706Y-92007430D01*
X204124422Y-92008569D01*
X204101236Y-92019841D01*
X204061530Y-92022551D01*
X203908206Y-92022551D01*
X203839005Y-92015022D01*
X203771645Y-91992500D01*
X203709472Y-91955662D01*
X203681586Y-91932415D01*
X203656523Y-91906428D01*
X203634830Y-91878298D01*
X203616529Y-91848017D01*
X203602323Y-91816858D01*
X203591885Y-91784164D01*
X203588675Y-91769943D01*
X203517557Y-91427858D01*
X203666933Y-91427858D01*
X203669947Y-91449436D01*
X203688168Y-91500252D01*
X203720926Y-91546895D01*
X203766752Y-91585571D01*
X203793453Y-91600504D01*
X203821976Y-91611906D01*
X203851179Y-91619321D01*
X203881331Y-91622759D01*
X203890865Y-91622970D01*
X203917898Y-91621062D01*
X203942907Y-91615521D01*
X203965758Y-91606571D01*
X203986086Y-91594509D01*
X204003645Y-91579620D01*
X204018204Y-91562178D01*
X204029459Y-91542595D01*
X204037281Y-91521041D01*
X204041412Y-91498019D01*
X204041716Y-91473595D01*
X204038571Y-91450840D01*
X204020738Y-91401679D01*
X203988024Y-91355745D01*
X203941789Y-91317115D01*
X203914826Y-91302140D01*
X203886129Y-91290748D01*
X203857021Y-91283446D01*
X203827161Y-91280195D01*
X203819546Y-91280053D01*
X203791925Y-91281961D01*
X203766419Y-91287502D01*
X203743216Y-91296424D01*
X203722616Y-91308442D01*
X203704926Y-91323213D01*
X203690291Y-91340505D01*
X203679046Y-91359841D01*
X203671258Y-91381114D01*
X203667181Y-91403797D01*
X203666933Y-91427858D01*
X203517557Y-91427858D01*
X203490612Y-91298249D01*
X203474187Y-91298249D01*
X203436628Y-91296119D01*
X203412992Y-91289024D01*
X203411905Y-91288480D01*
X203381552Y-91262901D01*
X203370753Y-91246473D01*
X203363930Y-91228711D01*
X203363178Y-91225465D01*
X203361725Y-91209006D01*
X203364179Y-91193314D01*
X203370270Y-91179426D01*
X203379930Y-91167677D01*
X203381069Y-91166663D01*
X203396275Y-91158512D01*
X203418742Y-91154758D01*
X203444206Y-91154085D01*
X203608520Y-91154085D01*
X203617252Y-91196095D01*
X203662242Y-91164953D01*
X203719750Y-91144044D01*
X203788134Y-91135914D01*
X203792313Y-91135889D01*
X203868907Y-91143463D01*
G37*
G36*
X203052501Y-91152681D02*
G01*
X203186713Y-91152681D01*
X203218418Y-91153909D01*
X203238492Y-91158298D01*
X203266882Y-91174316D01*
X203291589Y-91205098D01*
X203299003Y-91225465D01*
X203300485Y-91241838D01*
X203298077Y-91257470D01*
X203292023Y-91271385D01*
X203282412Y-91283167D01*
X203281113Y-91284327D01*
X203263700Y-91292944D01*
X203235241Y-91296714D01*
X203230371Y-91296967D01*
X203294302Y-91604469D01*
X203297049Y-91604469D01*
X203335724Y-91606224D01*
X203359331Y-91614300D01*
X203387457Y-91636773D01*
X203398801Y-91652845D01*
X203406250Y-91670016D01*
X203407814Y-91676093D01*
X203409266Y-91692594D01*
X203406811Y-91708331D01*
X203400723Y-91722226D01*
X203391065Y-91733952D01*
X203389862Y-91735017D01*
X203378178Y-91742151D01*
X203362091Y-91746663D01*
X203327091Y-91749000D01*
X203173707Y-91749000D01*
X203145238Y-91747056D01*
X203120721Y-91741269D01*
X203102201Y-91732885D01*
X203086971Y-91721520D01*
X203075718Y-91708178D01*
X203067466Y-91692287D01*
X203062698Y-91676093D01*
X203061257Y-91659876D01*
X203063725Y-91644539D01*
X203079589Y-91618039D01*
X203080528Y-91617108D01*
X203095674Y-91608931D01*
X203118004Y-91605156D01*
X203143665Y-91604469D01*
X203146413Y-91604469D01*
X203097381Y-91368530D01*
X203052207Y-91331786D01*
X203012332Y-91305852D01*
X202984578Y-91292827D01*
X202957292Y-91284584D01*
X202913222Y-91280053D01*
X202879327Y-91282031D01*
X202852518Y-91288062D01*
X202836168Y-91295815D01*
X202824038Y-91306276D01*
X202812569Y-91331808D01*
X202814487Y-91371339D01*
X202862969Y-91604469D01*
X202886184Y-91606391D01*
X202906923Y-91612027D01*
X202924159Y-91620708D01*
X202938611Y-91632437D01*
X202949687Y-91646504D01*
X202957695Y-91663108D01*
X202961338Y-91676093D01*
X202963381Y-91695543D01*
X202960822Y-91711934D01*
X202954966Y-91723602D01*
X202945748Y-91733048D01*
X202916724Y-91745477D01*
X202879333Y-91749000D01*
X202757395Y-91749000D01*
X202728176Y-91747038D01*
X202703171Y-91741124D01*
X202684916Y-91732741D01*
X202669934Y-91721310D01*
X202658974Y-91707916D01*
X202650917Y-91691838D01*
X202646386Y-91676093D01*
X202644897Y-91659632D01*
X202647307Y-91643924D01*
X202653357Y-91629996D01*
X202662971Y-91618219D01*
X202664216Y-91617108D01*
X202681764Y-91608471D01*
X202710492Y-91604705D01*
X202715080Y-91604469D01*
X202665437Y-91365721D01*
X202659980Y-91329799D01*
X202659176Y-91296899D01*
X202662455Y-91269787D01*
X202669544Y-91245029D01*
X202679732Y-91223800D01*
X202693333Y-91204580D01*
X202711599Y-91186264D01*
X202755442Y-91158028D01*
X202811256Y-91140769D01*
X202868159Y-91135889D01*
X202907163Y-91137976D01*
X202943096Y-91144767D01*
X203001813Y-91168815D01*
X203064408Y-91210078D01*
X203052501Y-91152681D01*
G37*
G36*
X202166205Y-91143457D02*
G01*
X202246803Y-91166078D01*
X202322409Y-91203133D01*
X202357201Y-91226625D01*
X202389341Y-91253031D01*
X202418313Y-91281885D01*
X202444098Y-91313163D01*
X202465907Y-91345807D01*
X202484140Y-91380345D01*
X202498093Y-91415275D01*
X202508228Y-91451593D01*
X202509061Y-91455481D01*
X202514514Y-91491227D01*
X202515806Y-91525439D01*
X202513157Y-91557322D01*
X202506748Y-91587476D01*
X202496849Y-91615410D01*
X202483510Y-91641413D01*
X202446980Y-91687095D01*
X202397318Y-91723987D01*
X202334283Y-91750906D01*
X202257698Y-91766032D01*
X202207116Y-91768539D01*
X202098134Y-91761431D01*
X202029255Y-91751439D01*
X201964934Y-91738270D01*
X201895034Y-91716759D01*
X201872012Y-91705975D01*
X201854037Y-91692858D01*
X201842395Y-91679435D01*
X201834432Y-91664092D01*
X201831043Y-91652340D01*
X201829347Y-91634927D01*
X201831567Y-91619095D01*
X201837289Y-91605490D01*
X201846222Y-91594320D01*
X201857765Y-91586190D01*
X201871814Y-91581224D01*
X201885753Y-91579800D01*
X201935151Y-91586761D01*
X202061986Y-91615345D01*
X202141916Y-91624066D01*
X202164801Y-91624375D01*
X202209366Y-91622406D01*
X202247994Y-91616438D01*
X202276666Y-91608010D01*
X202301144Y-91596481D01*
X202319729Y-91583357D01*
X202335053Y-91567614D01*
X202355767Y-91529432D01*
X202359096Y-91518434D01*
X201803199Y-91518434D01*
X201791292Y-91461037D01*
X201785646Y-91424419D01*
X201784150Y-91389657D01*
X201940769Y-91389657D01*
X202329603Y-91389657D01*
X202299852Y-91350933D01*
X202254255Y-91316874D01*
X202194701Y-91291819D01*
X202161458Y-91284200D01*
X202126973Y-91280422D01*
X202112349Y-91280053D01*
X202079865Y-91281963D01*
X202049865Y-91287515D01*
X202022923Y-91296357D01*
X201999126Y-91308261D01*
X201979493Y-91322391D01*
X201963421Y-91338893D01*
X201951768Y-91356495D01*
X201943853Y-91375819D01*
X201940769Y-91389657D01*
X201784150Y-91389657D01*
X201784134Y-91389285D01*
X201786557Y-91356251D01*
X201792735Y-91324949D01*
X201802428Y-91295796D01*
X201815552Y-91268621D01*
X201851524Y-91220836D01*
X201900090Y-91182358D01*
X201960980Y-91154405D01*
X202033875Y-91138659D01*
X202083773Y-91135889D01*
X202166205Y-91143457D01*
G37*
G36*
X201065433Y-90906644D02*
G01*
X201088972Y-90914666D01*
X201106266Y-90926656D01*
X201120505Y-90941246D01*
X201130803Y-90957366D01*
X201137112Y-90974985D01*
X201137393Y-90976276D01*
X201138983Y-90993350D01*
X201136522Y-91009014D01*
X201130497Y-91022363D01*
X201121024Y-91033726D01*
X201119502Y-91035078D01*
X201103227Y-91043975D01*
X201078843Y-91048370D01*
X201056671Y-91049061D01*
X201040245Y-91049061D01*
X201071081Y-91197499D01*
X201118079Y-91165528D01*
X201176924Y-91144592D01*
X201248808Y-91135992D01*
X201258232Y-91135889D01*
X201305037Y-91137858D01*
X201349152Y-91143826D01*
X201388291Y-91153120D01*
X201425592Y-91166074D01*
X201494426Y-91202430D01*
X201524457Y-91224061D01*
X201555901Y-91251177D01*
X201583862Y-91280422D01*
X201608095Y-91311382D01*
X201628786Y-91344140D01*
X201645803Y-91378376D01*
X201659198Y-91414101D01*
X201668988Y-91451512D01*
X201674821Y-91489179D01*
X201676379Y-91525357D01*
X201673883Y-91558336D01*
X201667503Y-91589741D01*
X201657654Y-91618469D01*
X201644182Y-91645530D01*
X201619284Y-91680367D01*
X201597388Y-91702781D01*
X201573143Y-91721804D01*
X201518893Y-91749233D01*
X201452391Y-91764828D01*
X201391161Y-91768539D01*
X201346386Y-91766510D01*
X201304746Y-91760126D01*
X201233162Y-91736738D01*
X201177327Y-91708394D01*
X201185753Y-91749000D01*
X201021439Y-91749000D01*
X200983949Y-91746869D01*
X200960253Y-91739774D01*
X200959157Y-91739230D01*
X200928804Y-91713652D01*
X200918005Y-91697224D01*
X200911182Y-91679462D01*
X200910430Y-91676215D01*
X200908983Y-91659846D01*
X200911420Y-91644211D01*
X200917498Y-91630294D01*
X200927129Y-91618536D01*
X200928321Y-91617475D01*
X200943746Y-91609224D01*
X200966559Y-91605473D01*
X200991458Y-91604835D01*
X201007883Y-91604835D01*
X200968074Y-91413339D01*
X201120495Y-91413339D01*
X201123471Y-91449497D01*
X201142283Y-91502826D01*
X201174588Y-91548877D01*
X201219337Y-91585859D01*
X201274975Y-91611536D01*
X201306197Y-91619421D01*
X201339194Y-91623662D01*
X201359837Y-91624375D01*
X201394566Y-91622410D01*
X201424782Y-91616470D01*
X201448078Y-91607855D01*
X201468479Y-91596037D01*
X201494171Y-91572351D01*
X201516207Y-91532961D01*
X201524440Y-91486570D01*
X201521038Y-91451512D01*
X201503372Y-91403477D01*
X201469431Y-91355864D01*
X201444162Y-91332077D01*
X201418221Y-91313406D01*
X201391057Y-91299108D01*
X201335217Y-91283393D01*
X201286809Y-91280053D01*
X201249509Y-91282055D01*
X201217995Y-91288250D01*
X201195509Y-91296802D01*
X201175824Y-91308617D01*
X201151132Y-91331894D01*
X201129668Y-91368195D01*
X201120495Y-91413339D01*
X200968074Y-91413339D01*
X200862376Y-90904896D01*
X201026690Y-90904896D01*
X201065433Y-90906644D01*
G37*
G36*
X199867742Y-90905362D02*
G01*
X199888702Y-90909048D01*
X199918347Y-90927045D01*
X199931771Y-90941744D01*
X199941942Y-90958633D01*
X199947869Y-90976215D01*
X199949444Y-90993198D01*
X199946995Y-91008788D01*
X199940978Y-91022173D01*
X199931536Y-91033570D01*
X199929918Y-91035017D01*
X199919103Y-91042656D01*
X199904167Y-91047012D01*
X199867147Y-91049061D01*
X199850722Y-91049061D01*
X199966249Y-91604835D01*
X199982674Y-91604835D01*
X200021394Y-91606583D01*
X200044956Y-91614605D01*
X200074099Y-91637897D01*
X200085036Y-91653793D01*
X200092153Y-91671177D01*
X200093377Y-91676215D01*
X200094958Y-91693243D01*
X200092501Y-91708870D01*
X200086477Y-91722229D01*
X200077013Y-91733604D01*
X200075425Y-91735017D01*
X200063718Y-91742166D01*
X200047585Y-91746680D01*
X200012655Y-91749000D01*
X199848279Y-91749000D01*
X199839548Y-91707051D01*
X199807118Y-91729566D01*
X199774674Y-91746503D01*
X199745640Y-91756965D01*
X199714628Y-91763922D01*
X199651114Y-91768539D01*
X199567958Y-91760931D01*
X199489273Y-91738500D01*
X199417394Y-91702119D01*
X199384792Y-91679113D01*
X199354777Y-91653149D01*
X199327729Y-91624582D01*
X199303675Y-91593428D01*
X199283096Y-91560333D01*
X199265850Y-91525043D01*
X199242801Y-91451512D01*
X199237567Y-91417526D01*
X199387468Y-91417526D01*
X199390690Y-91451512D01*
X199408539Y-91500122D01*
X199442797Y-91548604D01*
X199467932Y-91572351D01*
X199494445Y-91590872D01*
X199522410Y-91605266D01*
X199550233Y-91615042D01*
X199580072Y-91621329D01*
X199623881Y-91624375D01*
X199659262Y-91622410D01*
X199689886Y-91616470D01*
X199713287Y-91607900D01*
X199733703Y-91596153D01*
X199759558Y-91572351D01*
X199781624Y-91533098D01*
X199790086Y-91486992D01*
X199787035Y-91454321D01*
X199768374Y-91401732D01*
X199735935Y-91355575D01*
X199690881Y-91318197D01*
X199664177Y-91303645D01*
X199635301Y-91292377D01*
X199604572Y-91284621D01*
X199572279Y-91280596D01*
X199555005Y-91280053D01*
X199517068Y-91282054D01*
X199485171Y-91288247D01*
X199462598Y-91296758D01*
X199442910Y-91308504D01*
X199417923Y-91332077D01*
X199395860Y-91371322D01*
X199387468Y-91417526D01*
X199237567Y-91417526D01*
X199237073Y-91414319D01*
X199235595Y-91378476D01*
X199238158Y-91345650D01*
X199244614Y-91314317D01*
X199254550Y-91285594D01*
X199268130Y-91258498D01*
X199292810Y-91224061D01*
X199314718Y-91201633D01*
X199338972Y-91182602D01*
X199393219Y-91155177D01*
X199459710Y-91139592D01*
X199520872Y-91135889D01*
X199561608Y-91137835D01*
X199601177Y-91143643D01*
X199638922Y-91153124D01*
X199675161Y-91166282D01*
X199733607Y-91197499D01*
X199672791Y-90904835D01*
X199837166Y-90904835D01*
X199867742Y-90905362D01*
G37*
G36*
X198925041Y-91739779D02*
G01*
X199026463Y-91878387D01*
X199160675Y-91878387D01*
X199197886Y-91880491D01*
X199221281Y-91887403D01*
X199222957Y-91888157D01*
X199251170Y-91910829D01*
X199262419Y-91926982D01*
X199269926Y-91944531D01*
X199271622Y-91951172D01*
X199273058Y-91967324D01*
X199270551Y-91982472D01*
X199264412Y-91995879D01*
X199254775Y-92007371D01*
X199253426Y-92008569D01*
X199230248Y-92019841D01*
X199190594Y-92022551D01*
X198896099Y-92022551D01*
X198859156Y-92020421D01*
X198834972Y-92013326D01*
X198833878Y-92012782D01*
X198803432Y-91987086D01*
X198792640Y-91970641D01*
X198785859Y-91952867D01*
X198785151Y-91949767D01*
X198783674Y-91933415D01*
X198786119Y-91917941D01*
X198792140Y-91904622D01*
X198801686Y-91893700D01*
X198803347Y-91892370D01*
X198817017Y-91883642D01*
X198835876Y-91879422D01*
X198863431Y-91878387D01*
X198433197Y-91297394D01*
X198409719Y-91292683D01*
X198389468Y-91284524D01*
X198373730Y-91273978D01*
X198361101Y-91260678D01*
X198346113Y-91227644D01*
X198345758Y-91226015D01*
X198344176Y-91208986D01*
X198346628Y-91193360D01*
X198352645Y-91179984D01*
X198362096Y-91168599D01*
X198363649Y-91167213D01*
X198376548Y-91158930D01*
X198394059Y-91154608D01*
X198426481Y-91153169D01*
X198552449Y-91153169D01*
X198584208Y-91154398D01*
X198604289Y-91158787D01*
X198632761Y-91174903D01*
X198657455Y-91205753D01*
X198664801Y-91226015D01*
X198666254Y-91242430D01*
X198663810Y-91258109D01*
X198657722Y-91272021D01*
X198648064Y-91283789D01*
X198646910Y-91284816D01*
X198629277Y-91293445D01*
X198600094Y-91297192D01*
X198596107Y-91297394D01*
X198808293Y-91580167D01*
X198898724Y-91297394D01*
X198875296Y-91294186D01*
X198854892Y-91287439D01*
X198838454Y-91277951D01*
X198825017Y-91265652D01*
X198807914Y-91234182D01*
X198805851Y-91226015D01*
X198804230Y-91208809D01*
X198806582Y-91192739D01*
X198812515Y-91178868D01*
X198821931Y-91167212D01*
X198823497Y-91165809D01*
X198835363Y-91158707D01*
X198852014Y-91154752D01*
X198886573Y-91153169D01*
X199009855Y-91153169D01*
X199040385Y-91154398D01*
X199060291Y-91158787D01*
X199088884Y-91174467D01*
X199112891Y-91204210D01*
X199120863Y-91226015D01*
X199122678Y-91244153D01*
X199120153Y-91259916D01*
X199114232Y-91272046D01*
X199104952Y-91282060D01*
X199076046Y-91295582D01*
X199067191Y-91297394D01*
X198925041Y-91739779D01*
G37*
G36*
X207295854Y-92915235D02*
G01*
X207056252Y-93429000D01*
X206912393Y-93429000D01*
X206778243Y-92783649D01*
X206753381Y-92781061D01*
X206731670Y-92774753D01*
X206714632Y-92765744D01*
X206700598Y-92753759D01*
X206690145Y-92739613D01*
X206682715Y-92722906D01*
X206679874Y-92712208D01*
X206678319Y-92695140D01*
X206680807Y-92679471D01*
X206686856Y-92666100D01*
X206696353Y-92654723D01*
X206697765Y-92653467D01*
X206710595Y-92645197D01*
X206728057Y-92640874D01*
X206760657Y-92639423D01*
X206938649Y-92639423D01*
X206976361Y-92641534D01*
X206999345Y-92648494D01*
X207000870Y-92649254D01*
X207031216Y-92674826D01*
X207041998Y-92691235D01*
X207048790Y-92708962D01*
X207049535Y-92712208D01*
X207051025Y-92728625D01*
X207048615Y-92744289D01*
X207042564Y-92758172D01*
X207032950Y-92769903D01*
X207031706Y-92771009D01*
X207018199Y-92778387D01*
X207000062Y-92782323D01*
X206968630Y-92783649D01*
X206926132Y-92783649D01*
X207002397Y-93150441D01*
X207241266Y-92639423D01*
X207401489Y-92639423D01*
X207439231Y-92641534D01*
X207462240Y-92648494D01*
X207463771Y-92649254D01*
X207494156Y-92674904D01*
X207504943Y-92691341D01*
X207511724Y-92709095D01*
X207512437Y-92712208D01*
X207511502Y-92742454D01*
X207496424Y-92769156D01*
X207494546Y-92771009D01*
X207481114Y-92778374D01*
X207463044Y-92782312D01*
X207431470Y-92783649D01*
X207416388Y-92783649D01*
X207520558Y-93284835D01*
X207543843Y-93286757D01*
X207564623Y-93292391D01*
X207581866Y-93301060D01*
X207596308Y-93312769D01*
X207607357Y-93326802D01*
X207615330Y-93343359D01*
X207618927Y-93356215D01*
X207620874Y-93375182D01*
X207618275Y-93391369D01*
X207612346Y-93403129D01*
X207603011Y-93412730D01*
X207573691Y-93425443D01*
X207536861Y-93429000D01*
X207360212Y-93429000D01*
X207330993Y-93427039D01*
X207305988Y-93421128D01*
X207287722Y-93412747D01*
X207272733Y-93401321D01*
X207261771Y-93387936D01*
X207253715Y-93371871D01*
X207249204Y-93356215D01*
X207247751Y-93339756D01*
X207250205Y-93324064D01*
X207256296Y-93310176D01*
X207265956Y-93298427D01*
X207267095Y-93297414D01*
X207279467Y-93289625D01*
X207296162Y-93285931D01*
X207330232Y-93284835D01*
X207372669Y-93284835D01*
X207295854Y-92915235D01*
G37*
G36*
X206196823Y-92831520D02*
G01*
X206446072Y-92831520D01*
X206485976Y-92833268D01*
X206509759Y-92841290D01*
X206527013Y-92853255D01*
X206541228Y-92867813D01*
X206551554Y-92883944D01*
X206557886Y-92901553D01*
X206558180Y-92902900D01*
X206560223Y-92922303D01*
X206557663Y-92938660D01*
X206551804Y-92950308D01*
X206542580Y-92959741D01*
X206513512Y-92972163D01*
X206476053Y-92975685D01*
X206374692Y-92975685D01*
X206438928Y-93284835D01*
X206600556Y-93284835D01*
X206639253Y-93286583D01*
X206662838Y-93294605D01*
X206693310Y-93320273D01*
X206704137Y-93336622D01*
X206710750Y-93353963D01*
X206711259Y-93356215D01*
X206713207Y-93375165D01*
X206710637Y-93391342D01*
X206704733Y-93403154D01*
X206695445Y-93412789D01*
X206666346Y-93425510D01*
X206630537Y-93429000D01*
X206159515Y-93429000D01*
X206131045Y-93427057D01*
X206106529Y-93421273D01*
X206087998Y-93412891D01*
X206072761Y-93401531D01*
X206061505Y-93388197D01*
X206053254Y-93372320D01*
X206048506Y-93356215D01*
X206047092Y-93339938D01*
X206049648Y-93324685D01*
X206055828Y-93311305D01*
X206065532Y-93299849D01*
X206066702Y-93298818D01*
X206079566Y-93290574D01*
X206097082Y-93286270D01*
X206129534Y-93284835D01*
X206291039Y-93284835D01*
X206196823Y-92831520D01*
G37*
G36*
X206164705Y-92584896D02*
G01*
X206337262Y-92584896D01*
X206368709Y-92736144D01*
X206196151Y-92736144D01*
X206164705Y-92584896D01*
G37*
G36*
X205160256Y-92909678D02*
G01*
X205155249Y-92879926D01*
X205155554Y-92860707D01*
X205163932Y-92836917D01*
X205185215Y-92820706D01*
X205210570Y-92815889D01*
X205227276Y-92817991D01*
X205241766Y-92824891D01*
X205263815Y-92848068D01*
X205296832Y-92835274D01*
X205332705Y-92825628D01*
X205414776Y-92816121D01*
X205430999Y-92815889D01*
X205518841Y-92823425D01*
X205559958Y-92832641D01*
X205598371Y-92845200D01*
X205633182Y-92860628D01*
X205664614Y-92878883D01*
X205691220Y-92898838D01*
X205714051Y-92921017D01*
X205731783Y-92943740D01*
X205745611Y-92968117D01*
X205757918Y-93004872D01*
X205761691Y-93032718D01*
X205760832Y-93058122D01*
X205756134Y-93078570D01*
X205747659Y-93097223D01*
X205720384Y-93128289D01*
X205675583Y-93154384D01*
X205605467Y-93175983D01*
X205519659Y-93189580D01*
X205443224Y-93199002D01*
X205403028Y-93209157D01*
X205399431Y-93210585D01*
X205381548Y-93220709D01*
X205369591Y-93232199D01*
X205364620Y-93242255D01*
X205364321Y-93252595D01*
X205375098Y-93268070D01*
X205407210Y-93285182D01*
X205469494Y-93300201D01*
X205528513Y-93304375D01*
X205569190Y-93302431D01*
X205605382Y-93296645D01*
X205634273Y-93288091D01*
X205659166Y-93276455D01*
X205686721Y-93255404D01*
X205690620Y-93233481D01*
X205698167Y-93216487D01*
X205707193Y-93206144D01*
X205718874Y-93198964D01*
X205747843Y-93193794D01*
X205767285Y-93195747D01*
X205785342Y-93201601D01*
X205815621Y-93223225D01*
X205828446Y-93240740D01*
X205837289Y-93264292D01*
X205842732Y-93287583D01*
X205852013Y-93332340D01*
X205856022Y-93361300D01*
X205854852Y-93384734D01*
X205850161Y-93399646D01*
X205842121Y-93411170D01*
X205818861Y-93423704D01*
X205796142Y-93426191D01*
X205776777Y-93424066D01*
X205758474Y-93417009D01*
X205747843Y-93410742D01*
X205688613Y-93433096D01*
X205608268Y-93446344D01*
X205553060Y-93448539D01*
X205460271Y-93441013D01*
X205416680Y-93431796D01*
X205375904Y-93419244D01*
X205338855Y-93403821D01*
X205305333Y-93385590D01*
X205276915Y-93365712D01*
X205252432Y-93343648D01*
X205233385Y-93321185D01*
X205218368Y-93297128D01*
X205203365Y-93255404D01*
X205200024Y-93229839D01*
X205200680Y-93205169D01*
X205205154Y-93181885D01*
X205213315Y-93160030D01*
X205224965Y-93139995D01*
X205240026Y-93121912D01*
X205269371Y-93098661D01*
X205294428Y-93085657D01*
X205325433Y-93074220D01*
X205417387Y-93054102D01*
X205458843Y-93048225D01*
X205568386Y-93028685D01*
X205585613Y-93018806D01*
X205594619Y-93008209D01*
X205595436Y-93000659D01*
X205585531Y-92988837D01*
X205550812Y-92973621D01*
X205482974Y-92961137D01*
X205456889Y-92960053D01*
X205420729Y-92962006D01*
X205388686Y-92967858D01*
X205363147Y-92976506D01*
X205340806Y-92988333D01*
X205327807Y-92997850D01*
X205315492Y-93025694D01*
X205301454Y-93042550D01*
X205277004Y-93051739D01*
X205263876Y-93052438D01*
X205230215Y-93045090D01*
X205197564Y-93023068D01*
X205186035Y-93008273D01*
X205177755Y-92988528D01*
X205170453Y-92958710D01*
X205160256Y-92909678D01*
G37*
G36*
X204679098Y-92583492D02*
G01*
X204843412Y-92583492D01*
X204873996Y-92584018D01*
X204895008Y-92587705D01*
X204924620Y-92605689D01*
X204938023Y-92620380D01*
X204948181Y-92637260D01*
X204954115Y-92654872D01*
X204955704Y-92671946D01*
X204953244Y-92687610D01*
X204947219Y-92700959D01*
X204937746Y-92712322D01*
X204936224Y-92713673D01*
X204925485Y-92721255D01*
X204910692Y-92725586D01*
X204873393Y-92727656D01*
X204856967Y-92727656D01*
X204972739Y-93284469D01*
X204975486Y-93284469D01*
X205014161Y-93286224D01*
X205037768Y-93294300D01*
X205068094Y-93319814D01*
X205078966Y-93336181D01*
X205085665Y-93353548D01*
X205086250Y-93356093D01*
X205087832Y-93373163D01*
X205085375Y-93388827D01*
X205079355Y-93402210D01*
X205069896Y-93413595D01*
X205068299Y-93415017D01*
X205041887Y-93426314D01*
X205005528Y-93429000D01*
X204852144Y-93429000D01*
X204815036Y-93426869D01*
X204789562Y-93419774D01*
X204788457Y-93419230D01*
X204758161Y-93393686D01*
X204747354Y-93377245D01*
X204740512Y-93359462D01*
X204739731Y-93356093D01*
X204738310Y-93339876D01*
X204740923Y-93324539D01*
X204747242Y-93310869D01*
X204757229Y-93298714D01*
X204758965Y-93297108D01*
X204769471Y-93289821D01*
X204783882Y-93286023D01*
X204822102Y-93284469D01*
X204824849Y-93284469D01*
X204775512Y-93047126D01*
X204709082Y-92997594D01*
X204659823Y-92971011D01*
X204636224Y-92964059D01*
X204611647Y-92960734D01*
X204590315Y-92960053D01*
X204557233Y-92962082D01*
X204531764Y-92968468D01*
X204507639Y-92983989D01*
X204495917Y-92999226D01*
X204491184Y-93017229D01*
X204496343Y-93061170D01*
X204542749Y-93284469D01*
X204545497Y-93284469D01*
X204584858Y-93286224D01*
X204609061Y-93294300D01*
X204626307Y-93306261D01*
X204640533Y-93320834D01*
X204650874Y-93336987D01*
X204657226Y-93354637D01*
X204657543Y-93356093D01*
X204659112Y-93373209D01*
X204656511Y-93388910D01*
X204650351Y-93401944D01*
X204640614Y-93413095D01*
X204638309Y-93415017D01*
X204626625Y-93422151D01*
X204610538Y-93426663D01*
X204575539Y-93429000D01*
X204422154Y-93429000D01*
X204392471Y-93427038D01*
X204367333Y-93421124D01*
X204349262Y-93412809D01*
X204334513Y-93401489D01*
X204315753Y-93372165D01*
X204311146Y-93356093D01*
X204309656Y-93339632D01*
X204312066Y-93323924D01*
X204318116Y-93309996D01*
X204327730Y-93298219D01*
X204328975Y-93297108D01*
X204344122Y-93288931D01*
X204366451Y-93285156D01*
X204392112Y-93284469D01*
X204394860Y-93284469D01*
X204344607Y-93042913D01*
X204339847Y-93010539D01*
X204339314Y-92980114D01*
X204342679Y-92952730D01*
X204349732Y-92927437D01*
X204360040Y-92904916D01*
X204373619Y-92884636D01*
X204409940Y-92851426D01*
X204458865Y-92828260D01*
X204521107Y-92816729D01*
X204545191Y-92815889D01*
X204609529Y-92823531D01*
X204674780Y-92846868D01*
X204737615Y-92885953D01*
X204742845Y-92890078D01*
X204679098Y-92583492D01*
G37*
G36*
X203855013Y-92823022D02*
G01*
X203977719Y-92846993D01*
X204005903Y-92855090D01*
X204025387Y-92863858D01*
X204041101Y-92875463D01*
X204052196Y-92888594D01*
X204060123Y-92904110D01*
X204064155Y-92918105D01*
X204065807Y-92935215D01*
X204063593Y-92950874D01*
X204057848Y-92964619D01*
X204048907Y-92976002D01*
X204037281Y-92984470D01*
X204023191Y-92989758D01*
X204008162Y-92991438D01*
X203948934Y-92982890D01*
X203871731Y-92967555D01*
X203808023Y-92960617D01*
X203785291Y-92960053D01*
X203743607Y-92962035D01*
X203712203Y-92968091D01*
X203695219Y-92975385D01*
X203683645Y-92985123D01*
X203678041Y-92995114D01*
X203675980Y-93006876D01*
X203677274Y-93019954D01*
X203682587Y-93045416D01*
X203739115Y-93037121D01*
X203794919Y-93033153D01*
X203818264Y-93032777D01*
X203866979Y-93034727D01*
X203913406Y-93040561D01*
X203955975Y-93049848D01*
X203996330Y-93062705D01*
X204033483Y-93078651D01*
X204068454Y-93097948D01*
X204120514Y-93136397D01*
X204164075Y-93184109D01*
X204181344Y-93211317D01*
X204194235Y-93238956D01*
X204202030Y-93265235D01*
X204204809Y-93288018D01*
X204203660Y-93309989D01*
X204190163Y-93351165D01*
X204161857Y-93388058D01*
X204118446Y-93418745D01*
X204060500Y-93440058D01*
X204026675Y-93446095D01*
X203990374Y-93448506D01*
X203985509Y-93448539D01*
X203894182Y-93440895D01*
X203846265Y-93431078D01*
X203799423Y-93417453D01*
X203756531Y-93400973D01*
X203762332Y-93429000D01*
X203596613Y-93429000D01*
X203566930Y-93427039D01*
X203541792Y-93421128D01*
X203523710Y-93412816D01*
X203508955Y-93401500D01*
X203490193Y-93372198D01*
X203485605Y-93356215D01*
X203484151Y-93339757D01*
X203486600Y-93324059D01*
X203492685Y-93310170D01*
X203502336Y-93298442D01*
X203503496Y-93297414D01*
X203518982Y-93289188D01*
X203541939Y-93285458D01*
X203566632Y-93284835D01*
X203583058Y-93284835D01*
X203561474Y-93181032D01*
X203709392Y-93181032D01*
X203721482Y-93239223D01*
X203770305Y-93262342D01*
X203818110Y-93280479D01*
X203861898Y-93292883D01*
X203904756Y-93300818D01*
X203956933Y-93304375D01*
X203983809Y-93302513D01*
X204007041Y-93297294D01*
X204025247Y-93289479D01*
X204038034Y-93279498D01*
X204043795Y-93270091D01*
X204044774Y-93259863D01*
X204044555Y-93258640D01*
X204031992Y-93234828D01*
X203998822Y-93206659D01*
X203988684Y-93200449D01*
X203958667Y-93185843D01*
X203927847Y-93175665D01*
X203863611Y-93167331D01*
X203851725Y-93167171D01*
X203799364Y-93169199D01*
X203743764Y-93175581D01*
X203709392Y-93181032D01*
X203561474Y-93181032D01*
X203527981Y-93019954D01*
X203523733Y-92989976D01*
X203523815Y-92962124D01*
X203527771Y-92937908D01*
X203535412Y-92915699D01*
X203560521Y-92878508D01*
X203599426Y-92849165D01*
X203654432Y-92827933D01*
X203728670Y-92816816D01*
X203760806Y-92815889D01*
X203855013Y-92823022D01*
G37*
G36*
X203126446Y-92832681D02*
G01*
X203259253Y-92832681D01*
X203290989Y-92833909D01*
X203311093Y-92838298D01*
X203339452Y-92854327D01*
X203364154Y-92885144D01*
X203371543Y-92905465D01*
X203373025Y-92921838D01*
X203370617Y-92937470D01*
X203364563Y-92951385D01*
X203354952Y-92963167D01*
X203353653Y-92964327D01*
X203339006Y-92972463D01*
X203315143Y-92976323D01*
X203304316Y-92976967D01*
X203368246Y-93284469D01*
X203390396Y-93286378D01*
X203410382Y-93291928D01*
X203427617Y-93300675D01*
X203442147Y-93312428D01*
X203453464Y-93326609D01*
X203461610Y-93343191D01*
X203465272Y-93356093D01*
X203467219Y-93375107D01*
X203464619Y-93391329D01*
X203458690Y-93403104D01*
X203449358Y-93412716D01*
X203420063Y-93425436D01*
X203383206Y-93429000D01*
X203262672Y-93429000D01*
X203234224Y-93427056D01*
X203209713Y-93421269D01*
X203191185Y-93412882D01*
X203175945Y-93401512D01*
X203164685Y-93388166D01*
X203156428Y-93372272D01*
X203151664Y-93356093D01*
X203150182Y-93339677D01*
X203152590Y-93324007D01*
X203158640Y-93310068D01*
X203168246Y-93298278D01*
X203169555Y-93297108D01*
X203186873Y-93288527D01*
X203215024Y-93284749D01*
X203220357Y-93284469D01*
X203164609Y-93016229D01*
X203127181Y-92985787D01*
X203096297Y-92968173D01*
X203076933Y-92962264D01*
X203056835Y-92960104D01*
X203052868Y-92960053D01*
X203035694Y-92962103D01*
X203024773Y-92968635D01*
X203019115Y-92986829D01*
X203021421Y-93006398D01*
X203109288Y-93429000D01*
X202975137Y-93429000D01*
X202945944Y-93427038D01*
X202920956Y-93421124D01*
X202902708Y-93412739D01*
X202887729Y-93401305D01*
X202876771Y-93387908D01*
X202868715Y-93371824D01*
X202864190Y-93356093D01*
X202862700Y-93339632D01*
X202865110Y-93323924D01*
X202871160Y-93309996D01*
X202880775Y-93298219D01*
X202882020Y-93297108D01*
X202899285Y-93288492D01*
X202926712Y-93284722D01*
X202931357Y-93284469D01*
X202875608Y-93016229D01*
X202831863Y-92982311D01*
X202798448Y-92965130D01*
X202763989Y-92960053D01*
X202745360Y-92962180D01*
X202734322Y-92969249D01*
X202729988Y-92987848D01*
X202732543Y-93006398D01*
X202820409Y-93429000D01*
X202686198Y-93429000D01*
X202656979Y-93427038D01*
X202631974Y-93421124D01*
X202613719Y-93412741D01*
X202598737Y-93401310D01*
X202587777Y-93387916D01*
X202579720Y-93371838D01*
X202575190Y-93356093D01*
X202573700Y-93339632D01*
X202576110Y-93323924D01*
X202582160Y-93309996D01*
X202591774Y-93298219D01*
X202593019Y-93297108D01*
X202610193Y-93288527D01*
X202637330Y-93284749D01*
X202642418Y-93284469D01*
X202582273Y-92995224D01*
X202578418Y-92967249D01*
X202578675Y-92940936D01*
X202582731Y-92917018D01*
X202590383Y-92895117D01*
X202601253Y-92875745D01*
X202615279Y-92858726D01*
X202652060Y-92832595D01*
X202700192Y-92818113D01*
X202731261Y-92815889D01*
X202760699Y-92817868D01*
X202789264Y-92823909D01*
X202842615Y-92847505D01*
X202885378Y-92878904D01*
X202902174Y-92859402D01*
X202921290Y-92843331D01*
X202941857Y-92831191D01*
X202964399Y-92822495D01*
X203011957Y-92815889D01*
X203041802Y-92818086D01*
X203070133Y-92825647D01*
X203123980Y-92854108D01*
X203131941Y-92859303D01*
X203126446Y-92832681D01*
G37*
G36*
X201536929Y-92641362D02*
G01*
X201560544Y-92649437D01*
X201590849Y-92674905D01*
X201601715Y-92691251D01*
X201608402Y-92708596D01*
X201608965Y-92711048D01*
X201608197Y-92742454D01*
X201602401Y-92756335D01*
X201593490Y-92767691D01*
X201591074Y-92769849D01*
X201578800Y-92777706D01*
X201562612Y-92782042D01*
X201528182Y-92783832D01*
X201513100Y-92783832D01*
X201617269Y-93284835D01*
X201632351Y-93284835D01*
X201669607Y-93286939D01*
X201692970Y-93293851D01*
X201694633Y-93294605D01*
X201725065Y-93320195D01*
X201735887Y-93336516D01*
X201742514Y-93353832D01*
X201743054Y-93356215D01*
X201742161Y-93387171D01*
X201736287Y-93401576D01*
X201727159Y-93413260D01*
X201725163Y-93415017D01*
X201699703Y-93426009D01*
X201662332Y-93429000D01*
X201369302Y-93429000D01*
X201340083Y-93427039D01*
X201315078Y-93421128D01*
X201296811Y-93412747D01*
X201281822Y-93401321D01*
X201270860Y-93387936D01*
X201262804Y-93371871D01*
X201258293Y-93356215D01*
X201256879Y-93339938D01*
X201259435Y-93324685D01*
X201265615Y-93311305D01*
X201275319Y-93299849D01*
X201276489Y-93298818D01*
X201289353Y-93290574D01*
X201306869Y-93286270D01*
X201339321Y-93284835D01*
X201469380Y-93284835D01*
X201444040Y-93162897D01*
X201315324Y-93162897D01*
X201255641Y-93160861D01*
X201203329Y-93154425D01*
X201165034Y-93145558D01*
X201129869Y-93133158D01*
X201069299Y-93099261D01*
X201036521Y-93073321D01*
X200986783Y-93019044D01*
X200966134Y-92988035D01*
X200949275Y-92955642D01*
X200930153Y-92897771D01*
X200926639Y-92873842D01*
X201084019Y-92873842D01*
X201086896Y-92900580D01*
X201093758Y-92924087D01*
X201103977Y-92945232D01*
X201133404Y-92979679D01*
X201174748Y-93004021D01*
X201228466Y-93017082D01*
X201257927Y-93018672D01*
X201414059Y-93018672D01*
X201365211Y-92783832D01*
X201209078Y-92783832D01*
X201177540Y-92785760D01*
X201150290Y-92791443D01*
X201129373Y-92799738D01*
X201112259Y-92810895D01*
X201099978Y-92823586D01*
X201091114Y-92838511D01*
X201084019Y-92873842D01*
X200926639Y-92873842D01*
X200925403Y-92865425D01*
X200924799Y-92834656D01*
X200928084Y-92806200D01*
X200935068Y-92779522D01*
X200945489Y-92755002D01*
X200959270Y-92732480D01*
X200996637Y-92693750D01*
X201047164Y-92664167D01*
X201111059Y-92645388D01*
X201179098Y-92639607D01*
X201498201Y-92639607D01*
X201536929Y-92641362D01*
G37*
G36*
X200498140Y-92823022D02*
G01*
X200620845Y-92846993D01*
X200649030Y-92855090D01*
X200668513Y-92863858D01*
X200684228Y-92875463D01*
X200695323Y-92888594D01*
X200703249Y-92904110D01*
X200707281Y-92918105D01*
X200708933Y-92935215D01*
X200706719Y-92950874D01*
X200700974Y-92964619D01*
X200692033Y-92976002D01*
X200680408Y-92984470D01*
X200666317Y-92989758D01*
X200651289Y-92991438D01*
X200592060Y-92982890D01*
X200514857Y-92967555D01*
X200451149Y-92960617D01*
X200428417Y-92960053D01*
X200386734Y-92962035D01*
X200355330Y-92968091D01*
X200338345Y-92975385D01*
X200326772Y-92985123D01*
X200321167Y-92995114D01*
X200319107Y-93006876D01*
X200320401Y-93019954D01*
X200325713Y-93045416D01*
X200382242Y-93037121D01*
X200438046Y-93033153D01*
X200461390Y-93032777D01*
X200510105Y-93034727D01*
X200556533Y-93040561D01*
X200599101Y-93049848D01*
X200639456Y-93062705D01*
X200676609Y-93078651D01*
X200711580Y-93097948D01*
X200763640Y-93136397D01*
X200807202Y-93184109D01*
X200824470Y-93211317D01*
X200837362Y-93238956D01*
X200845157Y-93265235D01*
X200847936Y-93288018D01*
X200846786Y-93309989D01*
X200833289Y-93351165D01*
X200804983Y-93388058D01*
X200761573Y-93418745D01*
X200703626Y-93440058D01*
X200669801Y-93446095D01*
X200633500Y-93448506D01*
X200628635Y-93448539D01*
X200537308Y-93440895D01*
X200489392Y-93431078D01*
X200442549Y-93417453D01*
X200399658Y-93400973D01*
X200405458Y-93429000D01*
X200239740Y-93429000D01*
X200210056Y-93427039D01*
X200184919Y-93421128D01*
X200166836Y-93412816D01*
X200152081Y-93401500D01*
X200133319Y-93372198D01*
X200128731Y-93356215D01*
X200127278Y-93339757D01*
X200129727Y-93324059D01*
X200135812Y-93310170D01*
X200145462Y-93298442D01*
X200146622Y-93297414D01*
X200162108Y-93289188D01*
X200185065Y-93285458D01*
X200209759Y-93284835D01*
X200226184Y-93284835D01*
X200204600Y-93181032D01*
X200352519Y-93181032D01*
X200364609Y-93239223D01*
X200413431Y-93262342D01*
X200461236Y-93280479D01*
X200505025Y-93292883D01*
X200547883Y-93300818D01*
X200600059Y-93304375D01*
X200626935Y-93302513D01*
X200650167Y-93297294D01*
X200668373Y-93289479D01*
X200681160Y-93279498D01*
X200686921Y-93270091D01*
X200687900Y-93259863D01*
X200687681Y-93258640D01*
X200675118Y-93234828D01*
X200641949Y-93206659D01*
X200631810Y-93200449D01*
X200601794Y-93185843D01*
X200570973Y-93175665D01*
X200506737Y-93167331D01*
X200494851Y-93167171D01*
X200442490Y-93169199D01*
X200386890Y-93175581D01*
X200352519Y-93181032D01*
X200204600Y-93181032D01*
X200171107Y-93019954D01*
X200166859Y-92989976D01*
X200166941Y-92962124D01*
X200170897Y-92937908D01*
X200178539Y-92915699D01*
X200203647Y-92878508D01*
X200242553Y-92849165D01*
X200297558Y-92827933D01*
X200371796Y-92816816D01*
X200403932Y-92815889D01*
X200498140Y-92823022D01*
G37*
G36*
X199581627Y-92831276D02*
G01*
X199772015Y-92831276D01*
X199801019Y-92833145D01*
X199825504Y-92838409D01*
X199834602Y-92842511D01*
X199863645Y-92865660D01*
X199874596Y-92881533D01*
X199881755Y-92898905D01*
X199883023Y-92904061D01*
X199884974Y-92923027D01*
X199882406Y-92939227D01*
X199876503Y-92951062D01*
X199867211Y-92960719D01*
X199838117Y-92973467D01*
X199802301Y-92976967D01*
X199759802Y-92976967D01*
X199823794Y-93284835D01*
X199897739Y-93284835D01*
X199936459Y-93286583D01*
X199960020Y-93294605D01*
X199988234Y-93317132D01*
X199999545Y-93333169D01*
X200006935Y-93350297D01*
X200008442Y-93356215D01*
X200010393Y-93375182D01*
X200007821Y-93391369D01*
X200001917Y-93403178D01*
X199992627Y-93412809D01*
X199963519Y-93425518D01*
X199927719Y-93429000D01*
X199521055Y-93429000D01*
X199491273Y-93427039D01*
X199465890Y-93421128D01*
X199447475Y-93412782D01*
X199432401Y-93401412D01*
X199413329Y-93372167D01*
X199408703Y-93356215D01*
X199407289Y-93339938D01*
X199409845Y-93324685D01*
X199416025Y-93311305D01*
X199425729Y-93299849D01*
X199426899Y-93298818D01*
X199439805Y-93290574D01*
X199457615Y-93286270D01*
X199491074Y-93284835D01*
X199675905Y-93284835D01*
X199636460Y-93095058D01*
X199528097Y-93022396D01*
X199453627Y-92979596D01*
X199422148Y-92966421D01*
X199396959Y-92960569D01*
X199387943Y-92960053D01*
X199371700Y-92962221D01*
X199357447Y-92969577D01*
X199343307Y-92982585D01*
X199325685Y-92998816D01*
X199308299Y-93007213D01*
X199291345Y-93009268D01*
X199258613Y-93002027D01*
X199226762Y-92979822D01*
X199214187Y-92964130D01*
X199205245Y-92946362D01*
X199201952Y-92934896D01*
X199200393Y-92917326D01*
X199203751Y-92901181D01*
X199222730Y-92872827D01*
X199227719Y-92867668D01*
X199250058Y-92849013D01*
X199273702Y-92834573D01*
X199297435Y-92824719D01*
X199322565Y-92818538D01*
X199355214Y-92815889D01*
X199390345Y-92818026D01*
X199425304Y-92825172D01*
X199494085Y-92852795D01*
X199598480Y-92912487D01*
X199581627Y-92831276D01*
G37*
G36*
X198819703Y-92823022D02*
G01*
X198942408Y-92846993D01*
X198970593Y-92855090D01*
X198990076Y-92863858D01*
X199005791Y-92875463D01*
X199016886Y-92888594D01*
X199024812Y-92904110D01*
X199028845Y-92918105D01*
X199030497Y-92935215D01*
X199028282Y-92950874D01*
X199022537Y-92964619D01*
X199013596Y-92976002D01*
X199001971Y-92984470D01*
X198987880Y-92989758D01*
X198972852Y-92991438D01*
X198913623Y-92982890D01*
X198836420Y-92967555D01*
X198772712Y-92960617D01*
X198749980Y-92960053D01*
X198708297Y-92962035D01*
X198676893Y-92968091D01*
X198659909Y-92975385D01*
X198648335Y-92985123D01*
X198642731Y-92995114D01*
X198640670Y-93006876D01*
X198641964Y-93019954D01*
X198647276Y-93045416D01*
X198703805Y-93037121D01*
X198759609Y-93033153D01*
X198782953Y-93032777D01*
X198831668Y-93034727D01*
X198878096Y-93040561D01*
X198920665Y-93049848D01*
X198961019Y-93062705D01*
X198998172Y-93078651D01*
X199033143Y-93097948D01*
X199085204Y-93136397D01*
X199128765Y-93184109D01*
X199146034Y-93211317D01*
X199158925Y-93238956D01*
X199166720Y-93265235D01*
X199169499Y-93288018D01*
X199168349Y-93309989D01*
X199154852Y-93351165D01*
X199126546Y-93388058D01*
X199083136Y-93418745D01*
X199025189Y-93440058D01*
X198991365Y-93446095D01*
X198955064Y-93448506D01*
X198950198Y-93448539D01*
X198858872Y-93440895D01*
X198810955Y-93431078D01*
X198764113Y-93417453D01*
X198721221Y-93400973D01*
X198727021Y-93429000D01*
X198561303Y-93429000D01*
X198531619Y-93427039D01*
X198506482Y-93421128D01*
X198488400Y-93412816D01*
X198473644Y-93401500D01*
X198454882Y-93372198D01*
X198450294Y-93356215D01*
X198448841Y-93339757D01*
X198451290Y-93324059D01*
X198457375Y-93310170D01*
X198467025Y-93298442D01*
X198468185Y-93297414D01*
X198483671Y-93289188D01*
X198506628Y-93285458D01*
X198531322Y-93284835D01*
X198547747Y-93284835D01*
X198526163Y-93181032D01*
X198674082Y-93181032D01*
X198686172Y-93239223D01*
X198734995Y-93262342D01*
X198782799Y-93280479D01*
X198826588Y-93292883D01*
X198869446Y-93300818D01*
X198921622Y-93304375D01*
X198948499Y-93302513D01*
X198971731Y-93297294D01*
X198989936Y-93289479D01*
X199002724Y-93279498D01*
X199008485Y-93270091D01*
X199009463Y-93259863D01*
X199009244Y-93258640D01*
X198996681Y-93234828D01*
X198963512Y-93206659D01*
X198953374Y-93200449D01*
X198923357Y-93185843D01*
X198892536Y-93175665D01*
X198828300Y-93167331D01*
X198816414Y-93167171D01*
X198764053Y-93169199D01*
X198708454Y-93175581D01*
X198674082Y-93181032D01*
X198526163Y-93181032D01*
X198492670Y-93019954D01*
X198488423Y-92989976D01*
X198488505Y-92962124D01*
X198492460Y-92937908D01*
X198500102Y-92915699D01*
X198525211Y-92878508D01*
X198564116Y-92849165D01*
X198619122Y-92827933D01*
X198693359Y-92816816D01*
X198725495Y-92815889D01*
X198819703Y-92823022D01*
G37*
G36*
X198067444Y-93206433D02*
G01*
X198045401Y-93192450D01*
X197936346Y-93307244D01*
X197955389Y-93330450D01*
X197965046Y-93353238D01*
X197965717Y-93356215D01*
X197967668Y-93375182D01*
X197965097Y-93391369D01*
X197959194Y-93403181D01*
X197949906Y-93412813D01*
X197920808Y-93425521D01*
X197885055Y-93429000D01*
X197723489Y-93429000D01*
X197693681Y-93427039D01*
X197668281Y-93421128D01*
X197649859Y-93412783D01*
X197634782Y-93401417D01*
X197615706Y-93372180D01*
X197611076Y-93356215D01*
X197609494Y-93339186D01*
X197611950Y-93323566D01*
X197617974Y-93310192D01*
X197627434Y-93298786D01*
X197628967Y-93297414D01*
X197640872Y-93289947D01*
X197656642Y-93286193D01*
X197693508Y-93284835D01*
X197737349Y-93284835D01*
X197911434Y-93101409D01*
X197729717Y-92978249D01*
X197694118Y-92978249D01*
X197655902Y-92976494D01*
X197631837Y-92968419D01*
X197614620Y-92956520D01*
X197600427Y-92942016D01*
X197590096Y-92925909D01*
X197583743Y-92908304D01*
X197583415Y-92906808D01*
X197581833Y-92889822D01*
X197584280Y-92874213D01*
X197590301Y-92860817D01*
X197599760Y-92849392D01*
X197601306Y-92848007D01*
X197615084Y-92839278D01*
X197634704Y-92835058D01*
X197664138Y-92834024D01*
X197817461Y-92834024D01*
X197855889Y-92836135D01*
X197879617Y-92843094D01*
X197881147Y-92843855D01*
X197911446Y-92869322D01*
X197922287Y-92885650D01*
X197928941Y-92902975D01*
X197929508Y-92905465D01*
X197931329Y-92924357D01*
X197927996Y-92941287D01*
X197920837Y-92955840D01*
X198030502Y-93028624D01*
X197938239Y-92584835D01*
X198102615Y-92584835D01*
X198132634Y-92585362D01*
X198154089Y-92589048D01*
X198181826Y-92605339D01*
X198195671Y-92619959D01*
X198206471Y-92636946D01*
X198213318Y-92656215D01*
X198214892Y-92673198D01*
X198212443Y-92688788D01*
X198206426Y-92702173D01*
X198196985Y-92713570D01*
X198195366Y-92715017D01*
X198182437Y-92723319D01*
X198164867Y-92727638D01*
X198132595Y-92729061D01*
X198116170Y-92729061D01*
X198231392Y-93283431D01*
X198247817Y-93283431D01*
X198285563Y-93285692D01*
X198308786Y-93293701D01*
X198310343Y-93294605D01*
X198339510Y-93317865D01*
X198350453Y-93333739D01*
X198357580Y-93351100D01*
X198358825Y-93356215D01*
X198360774Y-93375165D01*
X198358203Y-93391342D01*
X198352300Y-93403154D01*
X198343011Y-93412789D01*
X198313912Y-93425510D01*
X198278103Y-93429000D01*
X198113728Y-93429000D01*
X198067444Y-93206433D01*
G37*
G36*
X197228225Y-93206433D02*
G01*
X197206182Y-93192450D01*
X197097128Y-93307244D01*
X197116171Y-93330450D01*
X197125828Y-93353238D01*
X197126498Y-93356215D01*
X197128449Y-93375182D01*
X197125879Y-93391369D01*
X197119976Y-93403181D01*
X197110688Y-93412813D01*
X197081590Y-93425521D01*
X197045837Y-93429000D01*
X196884270Y-93429000D01*
X196854463Y-93427039D01*
X196829062Y-93421128D01*
X196810641Y-93412783D01*
X196795563Y-93401417D01*
X196776488Y-93372180D01*
X196771857Y-93356215D01*
X196770275Y-93339186D01*
X196772732Y-93323566D01*
X196778756Y-93310192D01*
X196788216Y-93298786D01*
X196789748Y-93297414D01*
X196801654Y-93289947D01*
X196817424Y-93286193D01*
X196854289Y-93284835D01*
X196898131Y-93284835D01*
X197072215Y-93101409D01*
X196890498Y-92978249D01*
X196854900Y-92978249D01*
X196816684Y-92976494D01*
X196792618Y-92968419D01*
X196775402Y-92956520D01*
X196761208Y-92942016D01*
X196750877Y-92925909D01*
X196744525Y-92908304D01*
X196744197Y-92906808D01*
X196742614Y-92889822D01*
X196745062Y-92874213D01*
X196751082Y-92860817D01*
X196760541Y-92849392D01*
X196762088Y-92848007D01*
X196775866Y-92839278D01*
X196795486Y-92835058D01*
X196824919Y-92834024D01*
X196978243Y-92834024D01*
X197016670Y-92836135D01*
X197040399Y-92843094D01*
X197041929Y-92843855D01*
X197072228Y-92869322D01*
X197083068Y-92885650D01*
X197089722Y-92902975D01*
X197090289Y-92905465D01*
X197092111Y-92924357D01*
X197088778Y-92941287D01*
X197081618Y-92955840D01*
X197191284Y-93028624D01*
X197099021Y-92584835D01*
X197263396Y-92584835D01*
X197293415Y-92585362D01*
X197314870Y-92589048D01*
X197342607Y-92605339D01*
X197356453Y-92619959D01*
X197367253Y-92636946D01*
X197374099Y-92656215D01*
X197375674Y-92673198D01*
X197373225Y-92688788D01*
X197367208Y-92702173D01*
X197357766Y-92713570D01*
X197356147Y-92715017D01*
X197343218Y-92723319D01*
X197325648Y-92727638D01*
X197293377Y-92729061D01*
X197276952Y-92729061D01*
X197392173Y-93283431D01*
X197408599Y-93283431D01*
X197446344Y-93285692D01*
X197469568Y-93293701D01*
X197471125Y-93294605D01*
X197500292Y-93317865D01*
X197511235Y-93333739D01*
X197518361Y-93351100D01*
X197519607Y-93356215D01*
X197521555Y-93375165D01*
X197518985Y-93391342D01*
X197513081Y-93403154D01*
X197503793Y-93412789D01*
X197474694Y-93425510D01*
X197438885Y-93429000D01*
X197274509Y-93429000D01*
X197228225Y-93206433D01*
G37*
G36*
X196302047Y-92823022D02*
G01*
X196424753Y-92846993D01*
X196452937Y-92855090D01*
X196472421Y-92863858D01*
X196488135Y-92875463D01*
X196499231Y-92888594D01*
X196507157Y-92904110D01*
X196511189Y-92918105D01*
X196512841Y-92935215D01*
X196510627Y-92950874D01*
X196504882Y-92964619D01*
X196495941Y-92976002D01*
X196484316Y-92984470D01*
X196470225Y-92989758D01*
X196455197Y-92991438D01*
X196395968Y-92982890D01*
X196318765Y-92967555D01*
X196255057Y-92960617D01*
X196232325Y-92960053D01*
X196190642Y-92962035D01*
X196159237Y-92968091D01*
X196142253Y-92975385D01*
X196130679Y-92985123D01*
X196125075Y-92995114D01*
X196123015Y-93006876D01*
X196124309Y-93019954D01*
X196129621Y-93045416D01*
X196186149Y-93037121D01*
X196241953Y-93033153D01*
X196265298Y-93032777D01*
X196314013Y-93034727D01*
X196360440Y-93040561D01*
X196403009Y-93049848D01*
X196443364Y-93062705D01*
X196480517Y-93078651D01*
X196515488Y-93097948D01*
X196567548Y-93136397D01*
X196611110Y-93184109D01*
X196628378Y-93211317D01*
X196641270Y-93238956D01*
X196649064Y-93265235D01*
X196651843Y-93288018D01*
X196650694Y-93309989D01*
X196637197Y-93351165D01*
X196608891Y-93388058D01*
X196565480Y-93418745D01*
X196507534Y-93440058D01*
X196473709Y-93446095D01*
X196437408Y-93448506D01*
X196432543Y-93448539D01*
X196341216Y-93440895D01*
X196293300Y-93431078D01*
X196246457Y-93417453D01*
X196203565Y-93400973D01*
X196209366Y-93429000D01*
X196043647Y-93429000D01*
X196013964Y-93427039D01*
X195988827Y-93421128D01*
X195970744Y-93412816D01*
X195955989Y-93401500D01*
X195937227Y-93372198D01*
X195932639Y-93356215D01*
X195931185Y-93339757D01*
X195933635Y-93324059D01*
X195939719Y-93310170D01*
X195949370Y-93298442D01*
X195950530Y-93297414D01*
X195966016Y-93289188D01*
X195988973Y-93285458D01*
X196013667Y-93284835D01*
X196030092Y-93284835D01*
X196008508Y-93181032D01*
X196156427Y-93181032D01*
X196168517Y-93239223D01*
X196217339Y-93262342D01*
X196265144Y-93280479D01*
X196308932Y-93292883D01*
X196351791Y-93300818D01*
X196403967Y-93304375D01*
X196430843Y-93302513D01*
X196454075Y-93297294D01*
X196472281Y-93289479D01*
X196485068Y-93279498D01*
X196490829Y-93270091D01*
X196491808Y-93259863D01*
X196491589Y-93258640D01*
X196479026Y-93234828D01*
X196445857Y-93206659D01*
X196435718Y-93200449D01*
X196405702Y-93185843D01*
X196374881Y-93175665D01*
X196310645Y-93167331D01*
X196298759Y-93167171D01*
X196246398Y-93169199D01*
X196190798Y-93175581D01*
X196156427Y-93181032D01*
X196008508Y-93181032D01*
X195975015Y-93019954D01*
X195970767Y-92989976D01*
X195970849Y-92962124D01*
X195974805Y-92937908D01*
X195982447Y-92915699D01*
X196007555Y-92878508D01*
X196046460Y-92849165D01*
X196101466Y-92827933D01*
X196175704Y-92816816D01*
X196207840Y-92815889D01*
X196302047Y-92823022D01*
G37*
G36*
X195235692Y-92584896D02*
G01*
X195484942Y-92584896D01*
X195523384Y-92587007D01*
X195546959Y-92593967D01*
X195548628Y-92594727D01*
X195578981Y-92620305D01*
X195589780Y-92636733D01*
X195596603Y-92654495D01*
X195597355Y-92657742D01*
X195598908Y-92674725D01*
X195596308Y-92690309D01*
X195590140Y-92703339D01*
X195580408Y-92714523D01*
X195577998Y-92716543D01*
X195567626Y-92723825D01*
X195553572Y-92728150D01*
X195515228Y-92730526D01*
X195413867Y-92730526D01*
X195529089Y-93284835D01*
X195690717Y-93284835D01*
X195729414Y-93286583D01*
X195752998Y-93294605D01*
X195783470Y-93320273D01*
X195794297Y-93336622D01*
X195800911Y-93353963D01*
X195801420Y-93356215D01*
X195803368Y-93375165D01*
X195800797Y-93391342D01*
X195794894Y-93403154D01*
X195785606Y-93412789D01*
X195756506Y-93425510D01*
X195720697Y-93429000D01*
X195249675Y-93429000D01*
X195221206Y-93427057D01*
X195196689Y-93421273D01*
X195178158Y-93412891D01*
X195162921Y-93401531D01*
X195151665Y-93388197D01*
X195143415Y-93372320D01*
X195138667Y-93356215D01*
X195137252Y-93339938D01*
X195139808Y-93324685D01*
X195145989Y-93311305D01*
X195155692Y-93299849D01*
X195156863Y-93298818D01*
X195169726Y-93290574D01*
X195187242Y-93286270D01*
X195219694Y-93284835D01*
X195381200Y-93284835D01*
X195235692Y-92584896D01*
G37*
X195845326Y-84109275D02*
X195845326Y-83109275D01*
X195845326Y-83109275D02*
X195607231Y-83109275D01*
X195607231Y-83109275D02*
X195464374Y-83156894D01*
X195464374Y-83156894D02*
X195369136Y-83252132D01*
X195369136Y-83252132D02*
X195321517Y-83347370D01*
X195321517Y-83347370D02*
X195273898Y-83537846D01*
X195273898Y-83537846D02*
X195273898Y-83680703D01*
X195273898Y-83680703D02*
X195321517Y-83871179D01*
X195321517Y-83871179D02*
X195369136Y-83966417D01*
X195369136Y-83966417D02*
X195464374Y-84061656D01*
X195464374Y-84061656D02*
X195607231Y-84109275D01*
X195607231Y-84109275D02*
X195845326Y-84109275D01*
X194416755Y-84109275D02*
X194416755Y-83585465D01*
X194416755Y-83585465D02*
X194464374Y-83490227D01*
X194464374Y-83490227D02*
X194559612Y-83442608D01*
X194559612Y-83442608D02*
X194750088Y-83442608D01*
X194750088Y-83442608D02*
X194845326Y-83490227D01*
X194416755Y-84061656D02*
X194511993Y-84109275D01*
X194511993Y-84109275D02*
X194750088Y-84109275D01*
X194750088Y-84109275D02*
X194845326Y-84061656D01*
X194845326Y-84061656D02*
X194892945Y-83966417D01*
X194892945Y-83966417D02*
X194892945Y-83871179D01*
X194892945Y-83871179D02*
X194845326Y-83775941D01*
X194845326Y-83775941D02*
X194750088Y-83728322D01*
X194750088Y-83728322D02*
X194511993Y-83728322D01*
X194511993Y-83728322D02*
X194416755Y-83680703D01*
X194083421Y-83442608D02*
X193702469Y-83442608D01*
X193940564Y-83109275D02*
X193940564Y-83966417D01*
X193940564Y-83966417D02*
X193892945Y-84061656D01*
X193892945Y-84061656D02*
X193797707Y-84109275D01*
X193797707Y-84109275D02*
X193702469Y-84109275D01*
X192940564Y-84109275D02*
X192940564Y-83585465D01*
X192940564Y-83585465D02*
X192988183Y-83490227D01*
X192988183Y-83490227D02*
X193083421Y-83442608D01*
X193083421Y-83442608D02*
X193273897Y-83442608D01*
X193273897Y-83442608D02*
X193369135Y-83490227D01*
X192940564Y-84061656D02*
X193035802Y-84109275D01*
X193035802Y-84109275D02*
X193273897Y-84109275D01*
X193273897Y-84109275D02*
X193369135Y-84061656D01*
X193369135Y-84061656D02*
X193416754Y-83966417D01*
X193416754Y-83966417D02*
X193416754Y-83871179D01*
X193416754Y-83871179D02*
X193369135Y-83775941D01*
X193369135Y-83775941D02*
X193273897Y-83728322D01*
X193273897Y-83728322D02*
X193035802Y-83728322D01*
X193035802Y-83728322D02*
X192940564Y-83680703D01*
X191559611Y-84109275D02*
X191654849Y-84061656D01*
X191654849Y-84061656D02*
X191702468Y-83966417D01*
X191702468Y-83966417D02*
X191702468Y-83109275D01*
X191035801Y-84109275D02*
X191131039Y-84061656D01*
X191131039Y-84061656D02*
X191178658Y-84014036D01*
X191178658Y-84014036D02*
X191226277Y-83918798D01*
X191226277Y-83918798D02*
X191226277Y-83633084D01*
X191226277Y-83633084D02*
X191178658Y-83537846D01*
X191178658Y-83537846D02*
X191131039Y-83490227D01*
X191131039Y-83490227D02*
X191035801Y-83442608D01*
X191035801Y-83442608D02*
X190892944Y-83442608D01*
X190892944Y-83442608D02*
X190797706Y-83490227D01*
X190797706Y-83490227D02*
X190750087Y-83537846D01*
X190750087Y-83537846D02*
X190702468Y-83633084D01*
X190702468Y-83633084D02*
X190702468Y-83918798D01*
X190702468Y-83918798D02*
X190750087Y-84014036D01*
X190750087Y-84014036D02*
X190797706Y-84061656D01*
X190797706Y-84061656D02*
X190892944Y-84109275D01*
X190892944Y-84109275D02*
X191035801Y-84109275D01*
X189845325Y-83442608D02*
X189845325Y-84252132D01*
X189845325Y-84252132D02*
X189892944Y-84347370D01*
X189892944Y-84347370D02*
X189940563Y-84394989D01*
X189940563Y-84394989D02*
X190035801Y-84442608D01*
X190035801Y-84442608D02*
X190178658Y-84442608D01*
X190178658Y-84442608D02*
X190273896Y-84394989D01*
X189845325Y-84061656D02*
X189940563Y-84109275D01*
X189940563Y-84109275D02*
X190131039Y-84109275D01*
X190131039Y-84109275D02*
X190226277Y-84061656D01*
X190226277Y-84061656D02*
X190273896Y-84014036D01*
X190273896Y-84014036D02*
X190321515Y-83918798D01*
X190321515Y-83918798D02*
X190321515Y-83633084D01*
X190321515Y-83633084D02*
X190273896Y-83537846D01*
X190273896Y-83537846D02*
X190226277Y-83490227D01*
X190226277Y-83490227D02*
X190131039Y-83442608D01*
X190131039Y-83442608D02*
X189940563Y-83442608D01*
X189940563Y-83442608D02*
X189845325Y-83490227D01*
X188940563Y-83442608D02*
X188940563Y-84252132D01*
X188940563Y-84252132D02*
X188988182Y-84347370D01*
X188988182Y-84347370D02*
X189035801Y-84394989D01*
X189035801Y-84394989D02*
X189131039Y-84442608D01*
X189131039Y-84442608D02*
X189273896Y-84442608D01*
X189273896Y-84442608D02*
X189369134Y-84394989D01*
X188940563Y-84061656D02*
X189035801Y-84109275D01*
X189035801Y-84109275D02*
X189226277Y-84109275D01*
X189226277Y-84109275D02*
X189321515Y-84061656D01*
X189321515Y-84061656D02*
X189369134Y-84014036D01*
X189369134Y-84014036D02*
X189416753Y-83918798D01*
X189416753Y-83918798D02*
X189416753Y-83633084D01*
X189416753Y-83633084D02*
X189369134Y-83537846D01*
X189369134Y-83537846D02*
X189321515Y-83490227D01*
X189321515Y-83490227D02*
X189226277Y-83442608D01*
X189226277Y-83442608D02*
X189035801Y-83442608D01*
X189035801Y-83442608D02*
X188940563Y-83490227D01*
X188083420Y-84061656D02*
X188178658Y-84109275D01*
X188178658Y-84109275D02*
X188369134Y-84109275D01*
X188369134Y-84109275D02*
X188464372Y-84061656D01*
X188464372Y-84061656D02*
X188511991Y-83966417D01*
X188511991Y-83966417D02*
X188511991Y-83585465D01*
X188511991Y-83585465D02*
X188464372Y-83490227D01*
X188464372Y-83490227D02*
X188369134Y-83442608D01*
X188369134Y-83442608D02*
X188178658Y-83442608D01*
X188178658Y-83442608D02*
X188083420Y-83490227D01*
X188083420Y-83490227D02*
X188035801Y-83585465D01*
X188035801Y-83585465D02*
X188035801Y-83680703D01*
X188035801Y-83680703D02*
X188511991Y-83775941D01*
X187607229Y-84109275D02*
X187607229Y-83442608D01*
X187607229Y-83633084D02*
X187559610Y-83537846D01*
X187559610Y-83537846D02*
X187511991Y-83490227D01*
X187511991Y-83490227D02*
X187416753Y-83442608D01*
X187416753Y-83442608D02*
X187321515Y-83442608D01*
X186321514Y-83442608D02*
X186131038Y-84109275D01*
X186131038Y-84109275D02*
X185940562Y-83633084D01*
X185940562Y-83633084D02*
X185750086Y-84109275D01*
X185750086Y-84109275D02*
X185559610Y-83442608D01*
X185178657Y-84109275D02*
X185178657Y-83442608D01*
X185178657Y-83109275D02*
X185226276Y-83156894D01*
X185226276Y-83156894D02*
X185178657Y-83204513D01*
X185178657Y-83204513D02*
X185131038Y-83156894D01*
X185131038Y-83156894D02*
X185178657Y-83109275D01*
X185178657Y-83109275D02*
X185178657Y-83204513D01*
X184845324Y-83442608D02*
X184464372Y-83442608D01*
X184702467Y-83109275D02*
X184702467Y-83966417D01*
X184702467Y-83966417D02*
X184654848Y-84061656D01*
X184654848Y-84061656D02*
X184559610Y-84109275D01*
X184559610Y-84109275D02*
X184464372Y-84109275D01*
X184131038Y-84109275D02*
X184131038Y-83109275D01*
X183702467Y-84109275D02*
X183702467Y-83585465D01*
X183702467Y-83585465D02*
X183750086Y-83490227D01*
X183750086Y-83490227D02*
X183845324Y-83442608D01*
X183845324Y-83442608D02*
X183988181Y-83442608D01*
X183988181Y-83442608D02*
X184083419Y-83490227D01*
X184083419Y-83490227D02*
X184131038Y-83537846D01*
X195892945Y-85433504D02*
X195416755Y-85433504D01*
X195988183Y-85719219D02*
X195654850Y-84719219D01*
X195654850Y-84719219D02*
X195321517Y-85719219D01*
X195131040Y-84719219D02*
X194559612Y-84719219D01*
X194845326Y-85719219D02*
X194845326Y-84719219D01*
X194226278Y-85719219D02*
X194226278Y-84719219D01*
X194226278Y-84719219D02*
X193892945Y-85433504D01*
X193892945Y-85433504D02*
X193559612Y-84719219D01*
X193559612Y-84719219D02*
X193559612Y-85719219D01*
X193083421Y-85195409D02*
X192750088Y-85195409D01*
X192607231Y-85719219D02*
X193083421Y-85719219D01*
X193083421Y-85719219D02*
X193083421Y-84719219D01*
X193083421Y-84719219D02*
X192607231Y-84719219D01*
X191654850Y-84766838D02*
X191750088Y-84719219D01*
X191750088Y-84719219D02*
X191892945Y-84719219D01*
X191892945Y-84719219D02*
X192035802Y-84766838D01*
X192035802Y-84766838D02*
X192131040Y-84862076D01*
X192131040Y-84862076D02*
X192178659Y-84957314D01*
X192178659Y-84957314D02*
X192226278Y-85147790D01*
X192226278Y-85147790D02*
X192226278Y-85290647D01*
X192226278Y-85290647D02*
X192178659Y-85481123D01*
X192178659Y-85481123D02*
X192131040Y-85576361D01*
X192131040Y-85576361D02*
X192035802Y-85671600D01*
X192035802Y-85671600D02*
X191892945Y-85719219D01*
X191892945Y-85719219D02*
X191797707Y-85719219D01*
X191797707Y-85719219D02*
X191654850Y-85671600D01*
X191654850Y-85671600D02*
X191607231Y-85623980D01*
X191607231Y-85623980D02*
X191607231Y-85290647D01*
X191607231Y-85290647D02*
X191797707Y-85290647D01*
X191226278Y-85433504D02*
X190750088Y-85433504D01*
X191321516Y-85719219D02*
X190988183Y-84719219D01*
X190988183Y-84719219D02*
X190654850Y-85719219D01*
X190416754Y-84719219D02*
X189797707Y-84719219D01*
X189797707Y-84719219D02*
X190131040Y-85100171D01*
X190131040Y-85100171D02*
X189988183Y-85100171D01*
X189988183Y-85100171D02*
X189892945Y-85147790D01*
X189892945Y-85147790D02*
X189845326Y-85195409D01*
X189845326Y-85195409D02*
X189797707Y-85290647D01*
X189797707Y-85290647D02*
X189797707Y-85528742D01*
X189797707Y-85528742D02*
X189845326Y-85623980D01*
X189845326Y-85623980D02*
X189892945Y-85671600D01*
X189892945Y-85671600D02*
X189988183Y-85719219D01*
X189988183Y-85719219D02*
X190273897Y-85719219D01*
X190273897Y-85719219D02*
X190369135Y-85671600D01*
X190369135Y-85671600D02*
X190416754Y-85623980D01*
X189416754Y-84814457D02*
X189369135Y-84766838D01*
X189369135Y-84766838D02*
X189273897Y-84719219D01*
X189273897Y-84719219D02*
X189035802Y-84719219D01*
X189035802Y-84719219D02*
X188940564Y-84766838D01*
X188940564Y-84766838D02*
X188892945Y-84814457D01*
X188892945Y-84814457D02*
X188845326Y-84909695D01*
X188845326Y-84909695D02*
X188845326Y-85004933D01*
X188845326Y-85004933D02*
X188892945Y-85147790D01*
X188892945Y-85147790D02*
X189464373Y-85719219D01*
X189464373Y-85719219D02*
X188845326Y-85719219D01*
X188273897Y-85147790D02*
X188369135Y-85100171D01*
X188369135Y-85100171D02*
X188416754Y-85052552D01*
X188416754Y-85052552D02*
X188464373Y-84957314D01*
X188464373Y-84957314D02*
X188464373Y-84909695D01*
X188464373Y-84909695D02*
X188416754Y-84814457D01*
X188416754Y-84814457D02*
X188369135Y-84766838D01*
X188369135Y-84766838D02*
X188273897Y-84719219D01*
X188273897Y-84719219D02*
X188083421Y-84719219D01*
X188083421Y-84719219D02*
X187988183Y-84766838D01*
X187988183Y-84766838D02*
X187940564Y-84814457D01*
X187940564Y-84814457D02*
X187892945Y-84909695D01*
X187892945Y-84909695D02*
X187892945Y-84957314D01*
X187892945Y-84957314D02*
X187940564Y-85052552D01*
X187940564Y-85052552D02*
X187988183Y-85100171D01*
X187988183Y-85100171D02*
X188083421Y-85147790D01*
X188083421Y-85147790D02*
X188273897Y-85147790D01*
X188273897Y-85147790D02*
X188369135Y-85195409D01*
X188369135Y-85195409D02*
X188416754Y-85243028D01*
X188416754Y-85243028D02*
X188464373Y-85338266D01*
X188464373Y-85338266D02*
X188464373Y-85528742D01*
X188464373Y-85528742D02*
X188416754Y-85623980D01*
X188416754Y-85623980D02*
X188369135Y-85671600D01*
X188369135Y-85671600D02*
X188273897Y-85719219D01*
X188273897Y-85719219D02*
X188083421Y-85719219D01*
X188083421Y-85719219D02*
X187988183Y-85671600D01*
X187988183Y-85671600D02*
X187940564Y-85623980D01*
X187940564Y-85623980D02*
X187892945Y-85528742D01*
X187892945Y-85528742D02*
X187892945Y-85338266D01*
X187892945Y-85338266D02*
X187940564Y-85243028D01*
X187940564Y-85243028D02*
X187988183Y-85195409D01*
X187988183Y-85195409D02*
X188083421Y-85147790D01*
X187464373Y-85719219D02*
X187464373Y-84719219D01*
X187464373Y-84719219D02*
X187083421Y-84719219D01*
X187083421Y-84719219D02*
X186988183Y-84766838D01*
X186988183Y-84766838D02*
X186940564Y-84814457D01*
X186940564Y-84814457D02*
X186892945Y-84909695D01*
X186892945Y-84909695D02*
X186892945Y-85052552D01*
X186892945Y-85052552D02*
X186940564Y-85147790D01*
X186940564Y-85147790D02*
X186988183Y-85195409D01*
X186988183Y-85195409D02*
X187083421Y-85243028D01*
X187083421Y-85243028D02*
X187464373Y-85243028D01*
D11*
%TO.C,REF\u002A\u002A*%
X185803386Y-79491877D02*
X185779673Y-79506647D01*
X185753022Y-79528227D01*
X185753022Y-79849773D01*
X185753107Y-79943830D01*
X185753471Y-80017932D01*
X185754276Y-80074704D01*
X185755687Y-80116768D01*
X185757867Y-80146748D01*
X185760979Y-80167267D01*
X185765186Y-80180949D01*
X185770652Y-80190416D01*
X185774528Y-80195082D01*
X185805966Y-80215575D01*
X185841767Y-80214739D01*
X185873127Y-80197264D01*
X185899778Y-80175684D01*
X185899778Y-79528227D01*
X185873127Y-79506647D01*
X185847406Y-79490949D01*
X185826400Y-79485067D01*
X185803386Y-79491877D01*
G36*
X185847406Y-79490949D02*
G01*
X185873127Y-79506647D01*
X185899778Y-79528227D01*
X185899778Y-80175684D01*
X185873127Y-80197264D01*
X185841767Y-80214739D01*
X185805966Y-80215575D01*
X185774528Y-80195082D01*
X185770652Y-80190416D01*
X185765186Y-80180949D01*
X185760979Y-80167267D01*
X185757867Y-80146748D01*
X185755687Y-80116768D01*
X185754276Y-80074704D01*
X185753471Y-80017932D01*
X185753107Y-79943830D01*
X185753022Y-79849773D01*
X185753022Y-79528227D01*
X185779673Y-79506647D01*
X185803386Y-79491877D01*
X185826400Y-79485067D01*
X185847406Y-79490949D01*
G37*
X192915822Y-79507645D02*
X192909242Y-79515218D01*
X192904079Y-79524987D01*
X192900164Y-79539571D01*
X192897324Y-79561585D01*
X192895387Y-79593648D01*
X192894183Y-79638375D01*
X192893539Y-79698385D01*
X192893284Y-79776294D01*
X192893245Y-79851956D01*
X192893314Y-79945802D01*
X192893638Y-80019689D01*
X192894386Y-80076232D01*
X192895732Y-80118049D01*
X192897846Y-80147757D01*
X192900900Y-80167973D01*
X192905066Y-80181314D01*
X192910516Y-80190398D01*
X192915822Y-80196267D01*
X192948826Y-80215947D01*
X192983991Y-80214181D01*
X193015455Y-80192717D01*
X193022684Y-80184337D01*
X193028334Y-80174614D01*
X193032599Y-80160861D01*
X193035673Y-80140389D01*
X193037752Y-80110512D01*
X193039030Y-80068541D01*
X193039701Y-80011789D01*
X193039959Y-79937567D01*
X193040000Y-79853537D01*
X193040000Y-79540485D01*
X193012291Y-79512776D01*
X192978137Y-79489463D01*
X192945006Y-79488623D01*
X192915822Y-79507645D01*
G36*
X192978137Y-79489463D02*
G01*
X193012291Y-79512776D01*
X193040000Y-79540485D01*
X193040000Y-79853537D01*
X193039959Y-79937567D01*
X193039701Y-80011789D01*
X193039030Y-80068541D01*
X193037752Y-80110512D01*
X193035673Y-80140389D01*
X193032599Y-80160861D01*
X193028334Y-80174614D01*
X193022684Y-80184337D01*
X193015455Y-80192717D01*
X192983991Y-80214181D01*
X192948826Y-80215947D01*
X192915822Y-80196267D01*
X192910516Y-80190398D01*
X192905066Y-80181314D01*
X192900900Y-80167973D01*
X192897846Y-80147757D01*
X192895732Y-80118049D01*
X192894386Y-80076232D01*
X192893638Y-80019689D01*
X192893314Y-79945802D01*
X192893245Y-79851956D01*
X192893284Y-79776294D01*
X192893539Y-79698385D01*
X192894183Y-79638375D01*
X192895387Y-79593648D01*
X192897324Y-79561585D01*
X192900164Y-79539571D01*
X192904079Y-79524987D01*
X192909242Y-79515218D01*
X192915822Y-79507645D01*
X192945006Y-79488623D01*
X192978137Y-79489463D01*
G37*
X192265043Y-74242571D02*
X192168768Y-74266809D01*
X192082184Y-74309641D01*
X192007373Y-74369419D01*
X191946418Y-74444494D01*
X191901399Y-74533220D01*
X191875136Y-74629530D01*
X191869286Y-74726795D01*
X191884140Y-74820654D01*
X191917840Y-74908511D01*
X191968528Y-74987770D01*
X192034345Y-75055836D01*
X192113434Y-75110112D01*
X192203934Y-75148002D01*
X192255200Y-75160426D01*
X192299698Y-75167947D01*
X192333999Y-75170919D01*
X192366960Y-75169094D01*
X192407434Y-75162225D01*
X192440531Y-75155250D01*
X192533947Y-75123741D01*
X192617619Y-75072617D01*
X192689665Y-75003429D01*
X192748200Y-74917728D01*
X192762148Y-74890489D01*
X192778586Y-74854122D01*
X192788894Y-74823582D01*
X192794460Y-74791450D01*
X192796669Y-74750307D01*
X192796948Y-74704222D01*
X192792861Y-74619865D01*
X192779446Y-74550586D01*
X192754256Y-74489961D01*
X192714846Y-74431567D01*
X192676298Y-74387302D01*
X192604406Y-74321484D01*
X192529313Y-74276053D01*
X192446562Y-74248850D01*
X192368928Y-74238576D01*
X192265043Y-74242571D01*
G36*
X192446562Y-74248850D02*
G01*
X192529313Y-74276053D01*
X192604406Y-74321484D01*
X192676298Y-74387302D01*
X192714846Y-74431567D01*
X192754256Y-74489961D01*
X192779446Y-74550586D01*
X192792861Y-74619865D01*
X192796948Y-74704222D01*
X192796669Y-74750307D01*
X192794460Y-74791450D01*
X192788894Y-74823582D01*
X192778586Y-74854122D01*
X192762148Y-74890489D01*
X192748200Y-74917728D01*
X192689665Y-75003429D01*
X192617619Y-75072617D01*
X192533947Y-75123741D01*
X192440531Y-75155250D01*
X192407434Y-75162225D01*
X192366960Y-75169094D01*
X192333999Y-75170919D01*
X192299698Y-75167947D01*
X192255200Y-75160426D01*
X192203934Y-75148002D01*
X192113434Y-75110112D01*
X192034345Y-75055836D01*
X191968528Y-74987770D01*
X191917840Y-74908511D01*
X191884140Y-74820654D01*
X191869286Y-74726795D01*
X191875136Y-74629530D01*
X191901399Y-74533220D01*
X191946418Y-74444494D01*
X192007373Y-74369419D01*
X192082184Y-74309641D01*
X192168768Y-74266809D01*
X192265043Y-74242571D01*
X192368928Y-74238576D01*
X192446562Y-74248850D01*
G37*
X185028935Y-79485163D02*
X184950228Y-79485542D01*
X184889137Y-79486333D01*
X184843183Y-79487670D01*
X184809886Y-79489683D01*
X184786764Y-79492506D01*
X184771338Y-79496269D01*
X184761129Y-79501105D01*
X184756187Y-79504822D01*
X184730543Y-79537358D01*
X184727441Y-79571138D01*
X184743289Y-79601826D01*
X184753652Y-79614089D01*
X184764804Y-79622450D01*
X184780965Y-79627657D01*
X184806358Y-79630457D01*
X184845202Y-79631596D01*
X184901720Y-79631821D01*
X184912820Y-79631822D01*
X185058756Y-79631822D01*
X185058756Y-79902756D01*
X185058852Y-79988154D01*
X185059289Y-80053864D01*
X185060288Y-80102774D01*
X185062072Y-80137773D01*
X185064863Y-80161749D01*
X185068883Y-80177593D01*
X185074355Y-80188191D01*
X185081334Y-80196267D01*
X185114266Y-80216112D01*
X185148646Y-80214548D01*
X185179824Y-80191906D01*
X185182114Y-80189100D01*
X185189571Y-80178492D01*
X185195253Y-80166081D01*
X185199399Y-80148850D01*
X185202250Y-80123784D01*
X185204046Y-80087867D01*
X185205028Y-80038083D01*
X185205436Y-79971417D01*
X185205511Y-79895589D01*
X185205511Y-79631822D01*
X185344873Y-79631822D01*
X185404678Y-79631418D01*
X185446082Y-79629840D01*
X185473252Y-79626547D01*
X185490354Y-79620992D01*
X185501557Y-79612631D01*
X185502917Y-79611178D01*
X185519275Y-79577939D01*
X185517828Y-79540362D01*
X185499022Y-79507645D01*
X185491750Y-79501298D01*
X185482373Y-79496266D01*
X185468391Y-79492396D01*
X185447304Y-79489537D01*
X185416611Y-79487535D01*
X185373811Y-79486239D01*
X185316405Y-79485498D01*
X185241890Y-79485158D01*
X185147767Y-79485068D01*
X185127740Y-79485067D01*
X185028935Y-79485163D01*
G36*
X185147767Y-79485068D02*
G01*
X185241890Y-79485158D01*
X185316405Y-79485498D01*
X185373811Y-79486239D01*
X185416611Y-79487535D01*
X185447304Y-79489537D01*
X185468391Y-79492396D01*
X185482373Y-79496266D01*
X185491750Y-79501298D01*
X185499022Y-79507645D01*
X185517828Y-79540362D01*
X185519275Y-79577939D01*
X185502917Y-79611178D01*
X185501557Y-79612631D01*
X185490354Y-79620992D01*
X185473252Y-79626547D01*
X185446082Y-79629840D01*
X185404678Y-79631418D01*
X185344873Y-79631822D01*
X185205511Y-79631822D01*
X185205511Y-79895589D01*
X185205436Y-79971417D01*
X185205028Y-80038083D01*
X185204046Y-80087867D01*
X185202250Y-80123784D01*
X185199399Y-80148850D01*
X185195253Y-80166081D01*
X185189571Y-80178492D01*
X185182114Y-80189100D01*
X185179824Y-80191906D01*
X185148646Y-80214548D01*
X185114266Y-80216112D01*
X185081334Y-80196267D01*
X185074355Y-80188191D01*
X185068883Y-80177593D01*
X185064863Y-80161749D01*
X185062072Y-80137773D01*
X185060288Y-80102774D01*
X185059289Y-80053864D01*
X185058852Y-79988154D01*
X185058756Y-79902756D01*
X185058756Y-79631822D01*
X184912820Y-79631822D01*
X184901720Y-79631821D01*
X184845202Y-79631596D01*
X184806358Y-79630457D01*
X184780965Y-79627657D01*
X184764804Y-79622450D01*
X184753652Y-79614089D01*
X184743289Y-79601826D01*
X184727441Y-79571138D01*
X184730543Y-79537358D01*
X184756187Y-79504822D01*
X184761129Y-79501105D01*
X184771338Y-79496269D01*
X184786764Y-79492506D01*
X184809886Y-79489683D01*
X184843183Y-79487670D01*
X184889137Y-79486333D01*
X184950228Y-79485542D01*
X185028935Y-79485163D01*
X185127740Y-79485067D01*
X185147767Y-79485068D01*
G37*
X183763177Y-79490533D02*
X183731798Y-79512776D01*
X183704089Y-79540485D01*
X183704089Y-79849920D01*
X183704162Y-79941799D01*
X183704505Y-80013840D01*
X183705308Y-80068780D01*
X183706759Y-80109360D01*
X183709048Y-80138317D01*
X183712364Y-80158391D01*
X183716895Y-80172321D01*
X183722831Y-80182845D01*
X183727486Y-80189100D01*
X183758217Y-80213673D01*
X183793504Y-80216341D01*
X183825755Y-80201271D01*
X183836412Y-80192374D01*
X183843536Y-80180557D01*
X183847833Y-80161526D01*
X183850009Y-80130992D01*
X183850772Y-80084662D01*
X183850845Y-80048871D01*
X183850845Y-79914045D01*
X184347556Y-79914045D01*
X184347556Y-80036700D01*
X184348069Y-80092787D01*
X184350124Y-80131333D01*
X184354492Y-80157361D01*
X184361944Y-80175897D01*
X184370953Y-80189100D01*
X184401856Y-80213604D01*
X184436804Y-80216506D01*
X184470262Y-80199089D01*
X184479396Y-80189959D01*
X184485848Y-80177855D01*
X184490103Y-80159001D01*
X184492648Y-80129620D01*
X184493971Y-80085937D01*
X184494557Y-80024175D01*
X184494625Y-80010000D01*
X184495109Y-79893631D01*
X184495359Y-79797727D01*
X184495277Y-79720177D01*
X184494769Y-79658869D01*
X184493738Y-79611690D01*
X184492087Y-79576530D01*
X184489721Y-79551276D01*
X184486543Y-79533817D01*
X184482456Y-79522041D01*
X184477366Y-79513835D01*
X184471734Y-79507645D01*
X184439872Y-79487844D01*
X184406643Y-79490533D01*
X184375265Y-79512776D01*
X184362567Y-79527126D01*
X184354474Y-79542978D01*
X184349958Y-79565554D01*
X184347994Y-79600078D01*
X184347556Y-79651776D01*
X184347556Y-79767289D01*
X183850845Y-79767289D01*
X183850845Y-79648756D01*
X183850338Y-79594148D01*
X183848302Y-79557275D01*
X183843965Y-79533307D01*
X183836553Y-79517415D01*
X183828267Y-79507645D01*
X183796406Y-79487844D01*
X183763177Y-79490533D01*
G36*
X184471734Y-79507645D02*
G01*
X184477366Y-79513835D01*
X184482456Y-79522041D01*
X184486543Y-79533817D01*
X184489721Y-79551276D01*
X184492087Y-79576530D01*
X184493738Y-79611690D01*
X184494769Y-79658869D01*
X184495277Y-79720177D01*
X184495359Y-79797727D01*
X184495109Y-79893631D01*
X184494625Y-80010000D01*
X184494557Y-80024175D01*
X184493971Y-80085937D01*
X184492648Y-80129620D01*
X184490103Y-80159001D01*
X184485848Y-80177855D01*
X184479396Y-80189959D01*
X184470262Y-80199089D01*
X184436804Y-80216506D01*
X184401856Y-80213604D01*
X184370953Y-80189100D01*
X184361944Y-80175897D01*
X184354492Y-80157361D01*
X184350124Y-80131333D01*
X184348069Y-80092787D01*
X184347556Y-80036700D01*
X184347556Y-79914045D01*
X183850845Y-79914045D01*
X183850845Y-80048871D01*
X183850772Y-80084662D01*
X183850009Y-80130992D01*
X183847833Y-80161526D01*
X183843536Y-80180557D01*
X183836412Y-80192374D01*
X183825755Y-80201271D01*
X183793504Y-80216341D01*
X183758217Y-80213673D01*
X183727486Y-80189100D01*
X183722831Y-80182845D01*
X183716895Y-80172321D01*
X183712364Y-80158391D01*
X183709048Y-80138317D01*
X183706759Y-80109360D01*
X183705308Y-80068780D01*
X183704505Y-80013840D01*
X183704162Y-79941799D01*
X183704089Y-79849920D01*
X183704089Y-79540485D01*
X183731798Y-79512776D01*
X183763177Y-79490533D01*
X183796406Y-79487844D01*
X183828267Y-79507645D01*
X183836553Y-79517415D01*
X183843965Y-79533307D01*
X183848302Y-79557275D01*
X183850338Y-79594148D01*
X183850845Y-79648756D01*
X183850845Y-79767289D01*
X184347556Y-79767289D01*
X184347556Y-79651776D01*
X184347994Y-79600078D01*
X184349958Y-79565554D01*
X184354474Y-79542978D01*
X184362567Y-79527126D01*
X184375265Y-79512776D01*
X184406643Y-79490533D01*
X184439872Y-79487844D01*
X184471734Y-79507645D01*
G37*
X188973691Y-79485275D02*
X188844712Y-79489636D01*
X188735009Y-79502861D01*
X188642774Y-79525741D01*
X188566198Y-79559070D01*
X188503473Y-79603638D01*
X188452788Y-79660236D01*
X188412337Y-79729658D01*
X188411541Y-79731351D01*
X188387399Y-79793483D01*
X188378797Y-79848509D01*
X188385769Y-79903887D01*
X188408346Y-79967073D01*
X188412628Y-79976689D01*
X188441828Y-80032966D01*
X188474644Y-80076451D01*
X188516998Y-80113417D01*
X188574810Y-80150135D01*
X188578169Y-80152052D01*
X188628496Y-80176227D01*
X188685379Y-80194282D01*
X188752473Y-80206839D01*
X188833435Y-80214522D01*
X188931918Y-80217953D01*
X188966714Y-80218251D01*
X189132406Y-80218845D01*
X189155803Y-80189100D01*
X189162743Y-80179319D01*
X189168158Y-80167897D01*
X189172235Y-80152095D01*
X189175163Y-80129175D01*
X189177133Y-80096396D01*
X189177775Y-80072089D01*
X189021156Y-80072089D01*
X188927274Y-80072089D01*
X188872336Y-80070483D01*
X188815940Y-80066255D01*
X188769655Y-80060292D01*
X188766861Y-80059790D01*
X188684652Y-80037736D01*
X188620886Y-80004600D01*
X188573548Y-79958847D01*
X188540618Y-79898939D01*
X188534892Y-79883061D01*
X188529279Y-79858333D01*
X188531709Y-79833902D01*
X188543533Y-79801400D01*
X188550660Y-79785434D01*
X188574000Y-79743006D01*
X188602120Y-79713240D01*
X188633060Y-79692511D01*
X188695034Y-79665537D01*
X188774349Y-79645998D01*
X188866747Y-79634746D01*
X188933667Y-79632270D01*
X189021156Y-79631822D01*
X189021156Y-80072089D01*
X189177775Y-80072089D01*
X189178332Y-80051021D01*
X189178950Y-79990311D01*
X189179175Y-79911526D01*
X189179200Y-79849920D01*
X189179200Y-79540485D01*
X189151491Y-79512776D01*
X189139194Y-79501544D01*
X189125897Y-79493853D01*
X189107328Y-79489040D01*
X189079214Y-79486446D01*
X189037283Y-79485410D01*
X188977263Y-79485270D01*
X188973691Y-79485275D01*
G36*
X189177133Y-80096396D02*
G01*
X189175163Y-80129175D01*
X189172235Y-80152095D01*
X189168158Y-80167897D01*
X189162743Y-80179319D01*
X189155803Y-80189100D01*
X189132406Y-80218845D01*
X188966714Y-80218251D01*
X188931918Y-80217953D01*
X188833435Y-80214522D01*
X188752473Y-80206839D01*
X188685379Y-80194282D01*
X188628496Y-80176227D01*
X188578169Y-80152052D01*
X188574810Y-80150135D01*
X188516998Y-80113417D01*
X188474644Y-80076451D01*
X188441828Y-80032966D01*
X188412628Y-79976689D01*
X188408346Y-79967073D01*
X188385769Y-79903887D01*
X188380034Y-79858333D01*
X188529279Y-79858333D01*
X188534892Y-79883061D01*
X188540618Y-79898939D01*
X188573548Y-79958847D01*
X188620886Y-80004600D01*
X188684652Y-80037736D01*
X188766861Y-80059790D01*
X188769655Y-80060292D01*
X188815940Y-80066255D01*
X188872336Y-80070483D01*
X188927274Y-80072089D01*
X189021156Y-80072089D01*
X189021156Y-79631822D01*
X188933667Y-79632270D01*
X188866747Y-79634746D01*
X188774349Y-79645998D01*
X188695034Y-79665537D01*
X188633060Y-79692511D01*
X188602120Y-79713240D01*
X188574000Y-79743006D01*
X188550660Y-79785434D01*
X188543533Y-79801400D01*
X188531709Y-79833902D01*
X188529279Y-79858333D01*
X188380034Y-79858333D01*
X188378797Y-79848509D01*
X188387399Y-79793483D01*
X188411541Y-79731351D01*
X188412337Y-79729658D01*
X188452788Y-79660236D01*
X188503473Y-79603638D01*
X188566198Y-79559070D01*
X188642774Y-79525741D01*
X188735009Y-79502861D01*
X188844712Y-79489636D01*
X188973691Y-79485275D01*
X188977263Y-79485270D01*
X189037283Y-79485410D01*
X189079214Y-79486446D01*
X189107328Y-79489040D01*
X189125897Y-79493853D01*
X189139194Y-79501544D01*
X189151491Y-79512776D01*
X189179200Y-79540485D01*
X189179200Y-79849920D01*
X189179175Y-79911526D01*
X189178950Y-79990311D01*
X189178332Y-80051021D01*
X189177775Y-80072089D01*
X189177133Y-80096396D01*
G37*
X196113371Y-79485066D02*
X196073889Y-79485467D01*
X195958200Y-79488259D01*
X195861311Y-79496550D01*
X195779919Y-79511232D01*
X195710723Y-79533193D01*
X195650420Y-79563322D01*
X195595708Y-79602510D01*
X195576167Y-79619532D01*
X195543750Y-79659363D01*
X195514520Y-79713413D01*
X195491991Y-79773323D01*
X195479679Y-79830739D01*
X195478400Y-79851956D01*
X195486417Y-79910769D01*
X195507899Y-79975013D01*
X195538999Y-80035821D01*
X195575866Y-80084330D01*
X195581854Y-80090182D01*
X195632579Y-80131321D01*
X195688125Y-80163435D01*
X195751696Y-80187365D01*
X195826494Y-80203953D01*
X195915722Y-80214041D01*
X196022582Y-80218469D01*
X196071528Y-80218845D01*
X196133762Y-80218545D01*
X196177528Y-80217292D01*
X196206931Y-80214554D01*
X196226079Y-80209801D01*
X196239077Y-80202501D01*
X196246045Y-80196267D01*
X196252626Y-80188694D01*
X196257788Y-80178924D01*
X196261703Y-80164340D01*
X196264543Y-80142326D01*
X196266480Y-80110264D01*
X196267684Y-80065536D01*
X196268328Y-80005526D01*
X196268583Y-79927617D01*
X196268622Y-79851956D01*
X196268870Y-79751041D01*
X196268817Y-79670427D01*
X196267857Y-79631822D01*
X196121867Y-79631822D01*
X196121867Y-80072089D01*
X196028734Y-80072004D01*
X195972693Y-80070396D01*
X195913999Y-80066256D01*
X195865028Y-80060464D01*
X195863538Y-80060226D01*
X195784392Y-80041090D01*
X195723002Y-80011287D01*
X195676305Y-79968878D01*
X195646635Y-79922961D01*
X195628353Y-79872026D01*
X195629771Y-79824200D01*
X195650988Y-79772933D01*
X195692489Y-79719899D01*
X195749998Y-79680600D01*
X195824750Y-79654331D01*
X195874708Y-79645035D01*
X195931416Y-79638507D01*
X195991519Y-79633782D01*
X196042639Y-79631817D01*
X196045667Y-79631808D01*
X196121867Y-79631822D01*
X196267857Y-79631822D01*
X196267260Y-79607851D01*
X196262998Y-79561055D01*
X196254830Y-79527778D01*
X196241556Y-79505759D01*
X196221974Y-79492739D01*
X196194883Y-79486457D01*
X196159082Y-79484653D01*
X196113371Y-79485066D01*
G36*
X196268817Y-79670427D02*
G01*
X196268870Y-79751041D01*
X196268622Y-79851956D01*
X196268583Y-79927617D01*
X196268328Y-80005526D01*
X196267684Y-80065536D01*
X196266480Y-80110264D01*
X196264543Y-80142326D01*
X196261703Y-80164340D01*
X196257788Y-80178924D01*
X196252626Y-80188694D01*
X196246045Y-80196267D01*
X196239077Y-80202501D01*
X196226079Y-80209801D01*
X196206931Y-80214554D01*
X196177528Y-80217292D01*
X196133762Y-80218545D01*
X196071528Y-80218845D01*
X196022582Y-80218469D01*
X195915722Y-80214041D01*
X195826494Y-80203953D01*
X195751696Y-80187365D01*
X195688125Y-80163435D01*
X195632579Y-80131321D01*
X195581854Y-80090182D01*
X195575866Y-80084330D01*
X195538999Y-80035821D01*
X195507899Y-79975013D01*
X195486417Y-79910769D01*
X195481136Y-79872026D01*
X195628353Y-79872026D01*
X195646635Y-79922961D01*
X195676305Y-79968878D01*
X195723002Y-80011287D01*
X195784392Y-80041090D01*
X195863538Y-80060226D01*
X195865028Y-80060464D01*
X195913999Y-80066256D01*
X195972693Y-80070396D01*
X196028734Y-80072004D01*
X196121867Y-80072089D01*
X196121867Y-79631822D01*
X196045667Y-79631808D01*
X196042639Y-79631817D01*
X195991519Y-79633782D01*
X195931416Y-79638507D01*
X195874708Y-79645035D01*
X195824750Y-79654331D01*
X195749998Y-79680600D01*
X195692489Y-79719899D01*
X195650988Y-79772933D01*
X195629771Y-79824200D01*
X195628353Y-79872026D01*
X195481136Y-79872026D01*
X195478400Y-79851956D01*
X195479679Y-79830739D01*
X195491991Y-79773323D01*
X195514520Y-79713413D01*
X195543750Y-79659363D01*
X195576167Y-79619532D01*
X195595708Y-79602510D01*
X195650420Y-79563322D01*
X195710723Y-79533193D01*
X195779919Y-79511232D01*
X195861311Y-79496550D01*
X195958200Y-79488259D01*
X196073889Y-79485467D01*
X196113371Y-79485066D01*
X196159082Y-79484653D01*
X196194883Y-79486457D01*
X196221974Y-79492739D01*
X196241556Y-79505759D01*
X196254830Y-79527778D01*
X196262998Y-79561055D01*
X196267260Y-79607851D01*
X196267857Y-79631822D01*
X196268817Y-79670427D01*
G37*
X191292114Y-79489448D02*
X191268548Y-79503273D01*
X191237735Y-79525881D01*
X191198078Y-79558338D01*
X191147980Y-79601708D01*
X191085843Y-79657058D01*
X191010072Y-79725451D01*
X190923334Y-79804084D01*
X190742711Y-79967878D01*
X190737067Y-79748029D01*
X190735029Y-79672351D01*
X190733063Y-79615994D01*
X190730734Y-79575706D01*
X190727606Y-79548235D01*
X190723245Y-79530329D01*
X190717216Y-79518737D01*
X190709084Y-79510208D01*
X190704772Y-79506623D01*
X190670241Y-79487670D01*
X190637383Y-79490441D01*
X190611318Y-79506633D01*
X190584667Y-79528199D01*
X190581352Y-79843151D01*
X190580435Y-79935779D01*
X190579968Y-80008544D01*
X190580113Y-80064161D01*
X190581032Y-80105342D01*
X190582887Y-80134803D01*
X190585839Y-80155255D01*
X190590050Y-80169413D01*
X190595682Y-80179991D01*
X190601927Y-80188474D01*
X190615439Y-80204207D01*
X190628883Y-80214636D01*
X190644124Y-80218639D01*
X190663026Y-80215094D01*
X190687455Y-80202879D01*
X190719273Y-80180871D01*
X190760348Y-80147949D01*
X190812542Y-80102991D01*
X190877722Y-80044875D01*
X190951556Y-79978099D01*
X191216845Y-79737458D01*
X191222489Y-79956589D01*
X191224531Y-80032128D01*
X191226502Y-80088354D01*
X191228839Y-80128524D01*
X191231981Y-80155896D01*
X191236364Y-80173728D01*
X191242424Y-80185279D01*
X191250600Y-80193807D01*
X191254784Y-80197282D01*
X191291765Y-80216372D01*
X191326708Y-80213493D01*
X191357136Y-80189100D01*
X191364097Y-80179286D01*
X191369523Y-80167826D01*
X191373603Y-80151968D01*
X191376529Y-80128963D01*
X191378492Y-80096062D01*
X191379683Y-80050516D01*
X191380292Y-79989573D01*
X191380511Y-79910486D01*
X191380534Y-79851956D01*
X191380460Y-79760407D01*
X191380113Y-79688687D01*
X191379301Y-79634045D01*
X191377833Y-79593732D01*
X191375519Y-79564998D01*
X191372167Y-79545093D01*
X191367588Y-79531268D01*
X191361589Y-79520772D01*
X191357136Y-79514811D01*
X191345850Y-79500691D01*
X191335301Y-79490029D01*
X191323893Y-79483892D01*
X191310030Y-79483343D01*
X191292114Y-79489448D01*
G36*
X191323893Y-79483892D02*
G01*
X191335301Y-79490029D01*
X191345850Y-79500691D01*
X191357136Y-79514811D01*
X191361589Y-79520772D01*
X191367588Y-79531268D01*
X191372167Y-79545093D01*
X191375519Y-79564998D01*
X191377833Y-79593732D01*
X191379301Y-79634045D01*
X191380113Y-79688687D01*
X191380460Y-79760407D01*
X191380534Y-79851956D01*
X191380511Y-79910486D01*
X191380292Y-79989573D01*
X191379683Y-80050516D01*
X191378492Y-80096062D01*
X191376529Y-80128963D01*
X191373603Y-80151968D01*
X191369523Y-80167826D01*
X191364097Y-80179286D01*
X191357136Y-80189100D01*
X191326708Y-80213493D01*
X191291765Y-80216372D01*
X191254784Y-80197282D01*
X191250600Y-80193807D01*
X191242424Y-80185279D01*
X191236364Y-80173728D01*
X191231981Y-80155896D01*
X191228839Y-80128524D01*
X191226502Y-80088354D01*
X191224531Y-80032128D01*
X191222489Y-79956589D01*
X191216845Y-79737458D01*
X190951556Y-79978099D01*
X190877722Y-80044875D01*
X190812542Y-80102991D01*
X190760348Y-80147949D01*
X190719273Y-80180871D01*
X190687455Y-80202879D01*
X190663026Y-80215094D01*
X190644124Y-80218639D01*
X190628883Y-80214636D01*
X190615439Y-80204207D01*
X190601927Y-80188474D01*
X190595682Y-80179991D01*
X190590050Y-80169413D01*
X190585839Y-80155255D01*
X190582887Y-80134803D01*
X190581032Y-80105342D01*
X190580113Y-80064161D01*
X190579968Y-80008544D01*
X190580435Y-79935779D01*
X190581352Y-79843151D01*
X190584667Y-79528199D01*
X190611318Y-79506633D01*
X190637383Y-79490441D01*
X190670241Y-79487670D01*
X190704772Y-79506623D01*
X190709084Y-79510208D01*
X190717216Y-79518737D01*
X190723245Y-79530329D01*
X190727606Y-79548235D01*
X190730734Y-79575706D01*
X190733063Y-79615994D01*
X190735029Y-79672351D01*
X190737067Y-79748029D01*
X190742711Y-79967878D01*
X190923334Y-79804084D01*
X191010072Y-79725451D01*
X191085843Y-79657058D01*
X191147980Y-79601708D01*
X191198078Y-79558338D01*
X191237735Y-79525881D01*
X191268548Y-79503273D01*
X191292114Y-79489448D01*
X191310030Y-79483343D01*
X191323893Y-79483892D01*
G37*
X191942081Y-79490599D02*
X191873565Y-79502095D01*
X191820943Y-79519967D01*
X191786708Y-79543499D01*
X191777379Y-79556924D01*
X191767893Y-79588148D01*
X191774277Y-79616395D01*
X191794430Y-79643182D01*
X191825745Y-79655713D01*
X191871183Y-79654696D01*
X191906326Y-79647906D01*
X191984419Y-79634971D01*
X192064226Y-79633742D01*
X192153555Y-79644241D01*
X192178229Y-79648690D01*
X192261291Y-79672108D01*
X192326273Y-79706945D01*
X192372461Y-79752604D01*
X192399145Y-79808494D01*
X192404663Y-79837388D01*
X192401051Y-79896012D01*
X192377729Y-79947879D01*
X192336824Y-79991978D01*
X192280459Y-80027299D01*
X192210760Y-80052829D01*
X192129852Y-80067559D01*
X192039860Y-80070478D01*
X191942910Y-80060575D01*
X191937436Y-80059641D01*
X191898875Y-80052459D01*
X191877494Y-80045521D01*
X191868227Y-80035227D01*
X191866006Y-80017976D01*
X191865956Y-80008841D01*
X191865956Y-79970489D01*
X191934431Y-79970489D01*
X191994900Y-79966347D01*
X192036165Y-79953147D01*
X192060175Y-79929730D01*
X192068877Y-79894936D01*
X192068983Y-79890394D01*
X192063892Y-79860654D01*
X192046433Y-79839419D01*
X192013939Y-79825366D01*
X191963743Y-79817173D01*
X191915123Y-79814161D01*
X191844456Y-79812433D01*
X191793198Y-79815070D01*
X191758239Y-79824800D01*
X191736470Y-79844353D01*
X191724780Y-79876456D01*
X191720060Y-79923838D01*
X191719200Y-79986071D01*
X191720609Y-80055535D01*
X191724848Y-80102786D01*
X191731936Y-80128012D01*
X191733311Y-80129988D01*
X191772228Y-80161508D01*
X191829286Y-80186470D01*
X191900869Y-80204340D01*
X191983358Y-80214586D01*
X192073139Y-80216673D01*
X192166592Y-80210068D01*
X192221556Y-80201956D01*
X192307766Y-80177554D01*
X192387892Y-80137662D01*
X192454977Y-80085887D01*
X192465173Y-80075539D01*
X192498302Y-80032035D01*
X192528194Y-79978118D01*
X192551357Y-79921592D01*
X192564298Y-79870259D01*
X192565858Y-79850544D01*
X192559218Y-79809419D01*
X192541568Y-79758252D01*
X192516297Y-79704394D01*
X192486789Y-79655195D01*
X192460719Y-79622334D01*
X192399765Y-79573452D01*
X192320969Y-79534545D01*
X192227157Y-79506494D01*
X192121150Y-79490179D01*
X192024000Y-79486192D01*
X191942081Y-79490599D01*
G36*
X192121150Y-79490179D02*
G01*
X192227157Y-79506494D01*
X192320969Y-79534545D01*
X192399765Y-79573452D01*
X192460719Y-79622334D01*
X192486789Y-79655195D01*
X192516297Y-79704394D01*
X192541568Y-79758252D01*
X192559218Y-79809419D01*
X192565858Y-79850544D01*
X192564298Y-79870259D01*
X192551357Y-79921592D01*
X192528194Y-79978118D01*
X192498302Y-80032035D01*
X192465173Y-80075539D01*
X192454977Y-80085887D01*
X192387892Y-80137662D01*
X192307766Y-80177554D01*
X192221556Y-80201956D01*
X192166592Y-80210068D01*
X192073139Y-80216673D01*
X191983358Y-80214586D01*
X191900869Y-80204340D01*
X191829286Y-80186470D01*
X191772228Y-80161508D01*
X191733311Y-80129988D01*
X191731936Y-80128012D01*
X191724848Y-80102786D01*
X191720609Y-80055535D01*
X191719200Y-79986071D01*
X191720060Y-79923838D01*
X191724780Y-79876456D01*
X191736470Y-79844353D01*
X191758239Y-79824800D01*
X191793198Y-79815070D01*
X191844456Y-79812433D01*
X191915123Y-79814161D01*
X191963743Y-79817173D01*
X192013939Y-79825366D01*
X192046433Y-79839419D01*
X192063892Y-79860654D01*
X192068983Y-79890394D01*
X192068877Y-79894936D01*
X192060175Y-79929730D01*
X192036165Y-79953147D01*
X191994900Y-79966347D01*
X191934431Y-79970489D01*
X191865956Y-79970489D01*
X191865956Y-80008841D01*
X191866006Y-80017976D01*
X191868227Y-80035227D01*
X191877494Y-80045521D01*
X191898875Y-80052459D01*
X191937436Y-80059641D01*
X191942910Y-80060575D01*
X192039860Y-80070478D01*
X192129852Y-80067559D01*
X192210760Y-80052829D01*
X192280459Y-80027299D01*
X192336824Y-79991978D01*
X192377729Y-79947879D01*
X192401051Y-79896012D01*
X192404663Y-79837388D01*
X192399145Y-79808494D01*
X192372461Y-79752604D01*
X192326273Y-79706945D01*
X192261291Y-79672108D01*
X192178229Y-79648690D01*
X192153555Y-79644241D01*
X192064226Y-79633742D01*
X191984419Y-79634971D01*
X191906326Y-79647906D01*
X191871183Y-79654696D01*
X191825745Y-79655713D01*
X191794430Y-79643182D01*
X191774277Y-79616395D01*
X191767893Y-79588148D01*
X191777379Y-79556924D01*
X191786708Y-79543499D01*
X191820943Y-79519967D01*
X191873565Y-79502095D01*
X191942081Y-79490599D01*
X192024000Y-79486192D01*
X192121150Y-79490179D01*
G37*
X189761657Y-79485260D02*
X189685299Y-79486174D01*
X189626783Y-79488311D01*
X189583745Y-79492175D01*
X189553817Y-79498267D01*
X189534632Y-79507090D01*
X189523824Y-79519146D01*
X189519027Y-79534939D01*
X189517873Y-79554970D01*
X189517867Y-79557335D01*
X189518869Y-79579992D01*
X189523604Y-79597503D01*
X189534667Y-79610574D01*
X189554652Y-79619913D01*
X189586154Y-79626227D01*
X189631768Y-79630222D01*
X189694087Y-79632606D01*
X189775707Y-79634086D01*
X189800723Y-79634414D01*
X190042800Y-79637467D01*
X190046186Y-79702378D01*
X190049571Y-79767289D01*
X189881424Y-79767289D01*
X189815734Y-79767531D01*
X189768828Y-79768556D01*
X189736917Y-79770811D01*
X189716209Y-79774742D01*
X189702916Y-79780798D01*
X189693245Y-79789424D01*
X189693183Y-79789493D01*
X189675644Y-79823112D01*
X189676278Y-79859448D01*
X189694686Y-79890423D01*
X189698329Y-79893607D01*
X189711259Y-79901812D01*
X189728976Y-79907521D01*
X189755430Y-79911162D01*
X189794568Y-79913167D01*
X189850338Y-79913964D01*
X189886006Y-79914045D01*
X190048445Y-79914045D01*
X190048445Y-80072089D01*
X189801839Y-80072089D01*
X189720420Y-80072231D01*
X189658590Y-80072814D01*
X189613363Y-80074068D01*
X189581752Y-80076227D01*
X189560769Y-80079523D01*
X189547427Y-80084189D01*
X189538739Y-80090457D01*
X189536550Y-80092733D01*
X189520386Y-80124280D01*
X189519203Y-80160168D01*
X189532464Y-80191285D01*
X189542957Y-80201271D01*
X189553871Y-80206769D01*
X189570783Y-80211022D01*
X189596367Y-80214180D01*
X189633299Y-80216392D01*
X189684254Y-80217806D01*
X189751906Y-80218572D01*
X189838931Y-80218838D01*
X189858606Y-80218845D01*
X189947089Y-80218787D01*
X190015773Y-80218467D01*
X190067436Y-80217667D01*
X190104855Y-80216167D01*
X190130810Y-80213749D01*
X190148078Y-80210194D01*
X190159438Y-80205282D01*
X190167668Y-80198795D01*
X190172183Y-80194138D01*
X190178979Y-80185889D01*
X190184288Y-80175669D01*
X190188294Y-80160800D01*
X190191179Y-80138602D01*
X190193126Y-80106393D01*
X190194319Y-80061496D01*
X190194939Y-80001228D01*
X190195171Y-79922911D01*
X190195200Y-79856994D01*
X190195129Y-79764628D01*
X190194792Y-79692117D01*
X190194002Y-79636737D01*
X190192574Y-79595765D01*
X190190321Y-79566478D01*
X190187057Y-79546153D01*
X190182596Y-79532066D01*
X190176752Y-79521495D01*
X190171803Y-79514811D01*
X190148406Y-79485067D01*
X189858226Y-79485067D01*
X189761657Y-79485260D01*
G36*
X190171803Y-79514811D02*
G01*
X190176752Y-79521495D01*
X190182596Y-79532066D01*
X190187057Y-79546153D01*
X190190321Y-79566478D01*
X190192574Y-79595765D01*
X190194002Y-79636737D01*
X190194792Y-79692117D01*
X190195129Y-79764628D01*
X190195200Y-79856994D01*
X190195171Y-79922911D01*
X190194939Y-80001228D01*
X190194319Y-80061496D01*
X190193126Y-80106393D01*
X190191179Y-80138602D01*
X190188294Y-80160800D01*
X190184288Y-80175669D01*
X190178979Y-80185889D01*
X190172183Y-80194138D01*
X190167668Y-80198795D01*
X190159438Y-80205282D01*
X190148078Y-80210194D01*
X190130810Y-80213749D01*
X190104855Y-80216167D01*
X190067436Y-80217667D01*
X190015773Y-80218467D01*
X189947089Y-80218787D01*
X189858606Y-80218845D01*
X189838931Y-80218838D01*
X189751906Y-80218572D01*
X189684254Y-80217806D01*
X189633299Y-80216392D01*
X189596367Y-80214180D01*
X189570783Y-80211022D01*
X189553871Y-80206769D01*
X189542957Y-80201271D01*
X189532464Y-80191285D01*
X189519203Y-80160168D01*
X189520386Y-80124280D01*
X189536550Y-80092733D01*
X189538739Y-80090457D01*
X189547427Y-80084189D01*
X189560769Y-80079523D01*
X189581752Y-80076227D01*
X189613363Y-80074068D01*
X189658590Y-80072814D01*
X189720420Y-80072231D01*
X189801839Y-80072089D01*
X190048445Y-80072089D01*
X190048445Y-79914045D01*
X189886006Y-79914045D01*
X189850338Y-79913964D01*
X189794568Y-79913167D01*
X189755430Y-79911162D01*
X189728976Y-79907521D01*
X189711259Y-79901812D01*
X189698329Y-79893607D01*
X189694686Y-79890423D01*
X189676278Y-79859448D01*
X189675644Y-79823112D01*
X189693183Y-79789493D01*
X189693245Y-79789424D01*
X189702916Y-79780798D01*
X189716209Y-79774742D01*
X189736917Y-79770811D01*
X189768828Y-79768556D01*
X189815734Y-79767531D01*
X189881424Y-79767289D01*
X190049571Y-79767289D01*
X190046186Y-79702378D01*
X190042800Y-79637467D01*
X189800723Y-79634414D01*
X189775707Y-79634086D01*
X189694087Y-79632606D01*
X189631768Y-79630222D01*
X189586154Y-79626227D01*
X189554652Y-79619913D01*
X189534667Y-79610574D01*
X189523604Y-79597503D01*
X189518869Y-79579992D01*
X189517867Y-79557335D01*
X189517873Y-79554970D01*
X189519027Y-79534939D01*
X189523824Y-79519146D01*
X189534632Y-79507090D01*
X189553817Y-79498267D01*
X189583745Y-79492175D01*
X189626783Y-79488311D01*
X189685299Y-79486174D01*
X189761657Y-79485260D01*
X189858226Y-79485067D01*
X190148406Y-79485067D01*
X190171803Y-79514811D01*
G37*
X194704794Y-79485146D02*
X194635386Y-79485518D01*
X194582997Y-79486385D01*
X194544847Y-79487946D01*
X194518159Y-79490403D01*
X194500153Y-79493957D01*
X194488049Y-79498810D01*
X194479069Y-79505161D01*
X194475818Y-79508084D01*
X194456043Y-79539142D01*
X194452482Y-79574828D01*
X194465491Y-79606510D01*
X194471506Y-79612913D01*
X194481235Y-79619121D01*
X194496901Y-79623910D01*
X194521408Y-79627514D01*
X194557661Y-79630164D01*
X194608565Y-79632095D01*
X194677026Y-79633539D01*
X194739617Y-79634418D01*
X194987334Y-79637467D01*
X194990719Y-79702378D01*
X194994105Y-79767289D01*
X194825958Y-79767289D01*
X194752959Y-79767919D01*
X194699517Y-79770553D01*
X194662628Y-79776309D01*
X194639288Y-79786304D01*
X194626494Y-79801656D01*
X194621242Y-79823482D01*
X194620445Y-79843738D01*
X194622923Y-79868592D01*
X194632277Y-79886906D01*
X194651383Y-79899637D01*
X194683118Y-79907741D01*
X194730359Y-79912176D01*
X194795983Y-79913899D01*
X194831801Y-79914045D01*
X194992978Y-79914045D01*
X194992978Y-80072089D01*
X194744622Y-80072089D01*
X194663213Y-80072202D01*
X194601342Y-80072712D01*
X194555968Y-80073870D01*
X194524054Y-80075930D01*
X194502559Y-80079146D01*
X194488443Y-80083772D01*
X194478668Y-80090059D01*
X194473689Y-80094667D01*
X194456610Y-80121560D01*
X194451111Y-80145467D01*
X194458963Y-80174667D01*
X194473689Y-80196267D01*
X194481546Y-80203066D01*
X194491688Y-80208346D01*
X194506844Y-80212298D01*
X194529741Y-80215113D01*
X194563109Y-80216982D01*
X194609675Y-80218098D01*
X194672167Y-80218651D01*
X194753314Y-80218833D01*
X194795422Y-80218845D01*
X194885598Y-80218765D01*
X194955924Y-80218398D01*
X195009129Y-80217552D01*
X195047940Y-80216036D01*
X195075087Y-80213659D01*
X195093298Y-80210229D01*
X195105300Y-80205554D01*
X195113822Y-80199444D01*
X195117156Y-80196267D01*
X195123755Y-80188670D01*
X195128927Y-80178870D01*
X195132846Y-80164239D01*
X195135684Y-80142152D01*
X195137615Y-80109982D01*
X195138812Y-80065103D01*
X195139448Y-80004889D01*
X195139697Y-79926713D01*
X195139734Y-79853923D01*
X195139700Y-79760707D01*
X195139465Y-79687431D01*
X195138830Y-79631458D01*
X195137594Y-79590151D01*
X195135556Y-79560872D01*
X195132517Y-79540984D01*
X195128277Y-79527850D01*
X195122635Y-79518832D01*
X195115391Y-79511293D01*
X195113606Y-79509612D01*
X195104945Y-79502172D01*
X195094882Y-79496409D01*
X195080625Y-79492112D01*
X195059383Y-79489064D01*
X195028364Y-79487051D01*
X194984777Y-79485860D01*
X194925831Y-79485275D01*
X194848734Y-79485083D01*
X194794001Y-79485067D01*
X194704794Y-79485146D01*
G36*
X194848734Y-79485083D02*
G01*
X194925831Y-79485275D01*
X194984777Y-79485860D01*
X195028364Y-79487051D01*
X195059383Y-79489064D01*
X195080625Y-79492112D01*
X195094882Y-79496409D01*
X195104945Y-79502172D01*
X195113606Y-79509612D01*
X195115391Y-79511293D01*
X195122635Y-79518832D01*
X195128277Y-79527850D01*
X195132517Y-79540984D01*
X195135556Y-79560872D01*
X195137594Y-79590151D01*
X195138830Y-79631458D01*
X195139465Y-79687431D01*
X195139700Y-79760707D01*
X195139734Y-79853923D01*
X195139697Y-79926713D01*
X195139448Y-80004889D01*
X195138812Y-80065103D01*
X195137615Y-80109982D01*
X195135684Y-80142152D01*
X195132846Y-80164239D01*
X195128927Y-80178870D01*
X195123755Y-80188670D01*
X195117156Y-80196267D01*
X195113822Y-80199444D01*
X195105300Y-80205554D01*
X195093298Y-80210229D01*
X195075087Y-80213659D01*
X195047940Y-80216036D01*
X195009129Y-80217552D01*
X194955924Y-80218398D01*
X194885598Y-80218765D01*
X194795422Y-80218845D01*
X194753314Y-80218833D01*
X194672167Y-80218651D01*
X194609675Y-80218098D01*
X194563109Y-80216982D01*
X194529741Y-80215113D01*
X194506844Y-80212298D01*
X194491688Y-80208346D01*
X194481546Y-80203066D01*
X194473689Y-80196267D01*
X194458963Y-80174667D01*
X194451111Y-80145467D01*
X194456610Y-80121560D01*
X194473689Y-80094667D01*
X194478668Y-80090059D01*
X194488443Y-80083772D01*
X194502559Y-80079146D01*
X194524054Y-80075930D01*
X194555968Y-80073870D01*
X194601342Y-80072712D01*
X194663213Y-80072202D01*
X194744622Y-80072089D01*
X194992978Y-80072089D01*
X194992978Y-79914045D01*
X194831801Y-79914045D01*
X194795983Y-79913899D01*
X194730359Y-79912176D01*
X194683118Y-79907741D01*
X194651383Y-79899637D01*
X194632277Y-79886906D01*
X194622923Y-79868592D01*
X194620445Y-79843738D01*
X194621242Y-79823482D01*
X194626494Y-79801656D01*
X194639288Y-79786304D01*
X194662628Y-79776309D01*
X194699517Y-79770553D01*
X194752959Y-79767919D01*
X194825958Y-79767289D01*
X194994105Y-79767289D01*
X194990719Y-79702378D01*
X194987334Y-79637467D01*
X194739617Y-79634418D01*
X194677026Y-79633539D01*
X194608565Y-79632095D01*
X194557661Y-79630164D01*
X194521408Y-79627514D01*
X194496901Y-79623910D01*
X194481235Y-79619121D01*
X194471506Y-79612913D01*
X194465491Y-79606510D01*
X194452482Y-79574828D01*
X194456043Y-79539142D01*
X194475818Y-79508084D01*
X194479069Y-79505161D01*
X194488049Y-79498810D01*
X194500153Y-79493957D01*
X194518159Y-79490403D01*
X194544847Y-79487946D01*
X194582997Y-79486385D01*
X194635386Y-79485518D01*
X194704794Y-79485146D01*
X194794001Y-79485067D01*
X194848734Y-79485083D01*
G37*
X186247335Y-79487034D02*
X186227745Y-79494035D01*
X186226990Y-79494377D01*
X186200387Y-79514678D01*
X186185730Y-79535561D01*
X186182862Y-79545352D01*
X186183004Y-79558361D01*
X186187039Y-79576895D01*
X186195854Y-79603257D01*
X186210331Y-79639752D01*
X186231355Y-79688687D01*
X186259812Y-79752365D01*
X186296585Y-79833093D01*
X186316825Y-79877216D01*
X186353375Y-79955985D01*
X186387685Y-80028423D01*
X186418448Y-80091880D01*
X186444352Y-80143708D01*
X186464090Y-80181259D01*
X186476350Y-80201884D01*
X186478776Y-80204733D01*
X186509817Y-80217302D01*
X186544879Y-80215619D01*
X186573000Y-80200332D01*
X186574146Y-80199089D01*
X186585332Y-80182154D01*
X186604096Y-80149170D01*
X186628125Y-80104380D01*
X186655103Y-80052032D01*
X186664799Y-80032742D01*
X186737986Y-79886150D01*
X186817760Y-80045393D01*
X186846233Y-80100415D01*
X186872650Y-80148132D01*
X186894852Y-80184893D01*
X186910681Y-80207044D01*
X186916046Y-80211741D01*
X186957743Y-80218102D01*
X186992151Y-80204733D01*
X187002272Y-80190446D01*
X187019786Y-80158692D01*
X187043265Y-80112597D01*
X187071280Y-80055285D01*
X187102401Y-79989880D01*
X187135201Y-79919507D01*
X187168250Y-79847291D01*
X187200119Y-79776355D01*
X187229381Y-79709825D01*
X187254605Y-79650826D01*
X187274364Y-79602481D01*
X187287228Y-79567915D01*
X187291769Y-79550253D01*
X187291723Y-79549613D01*
X187280674Y-79527388D01*
X187258590Y-79504753D01*
X187257290Y-79503768D01*
X187230147Y-79488425D01*
X187205042Y-79488574D01*
X187195632Y-79491466D01*
X187184166Y-79497718D01*
X187171990Y-79510014D01*
X187157643Y-79530908D01*
X187139664Y-79562949D01*
X187116593Y-79608688D01*
X187086970Y-79670677D01*
X187060255Y-79727898D01*
X187029520Y-79794226D01*
X187001979Y-79853874D01*
X186979062Y-79903725D01*
X186962202Y-79940664D01*
X186952827Y-79961573D01*
X186951460Y-79964845D01*
X186945311Y-79959497D01*
X186931178Y-79937109D01*
X186910943Y-79900946D01*
X186886485Y-79854277D01*
X186876752Y-79835022D01*
X186843783Y-79770004D01*
X186818357Y-79722654D01*
X186798388Y-79690219D01*
X186781790Y-79669946D01*
X186766476Y-79659082D01*
X186750360Y-79654875D01*
X186739857Y-79654400D01*
X186721330Y-79656042D01*
X186705096Y-79662831D01*
X186688965Y-79677566D01*
X186670749Y-79703044D01*
X186648261Y-79742061D01*
X186619311Y-79797414D01*
X186603338Y-79828903D01*
X186577430Y-79879087D01*
X186554833Y-79920704D01*
X186537542Y-79950242D01*
X186527550Y-79964189D01*
X186526191Y-79964770D01*
X186519739Y-79953793D01*
X186505292Y-79925290D01*
X186484297Y-79882244D01*
X186458203Y-79827638D01*
X186428454Y-79764454D01*
X186413820Y-79733071D01*
X186375750Y-79652078D01*
X186345095Y-79589756D01*
X186320263Y-79544071D01*
X186299663Y-79512989D01*
X186281702Y-79494478D01*
X186264790Y-79486504D01*
X186247335Y-79487034D01*
G36*
X186281702Y-79494478D02*
G01*
X186299663Y-79512989D01*
X186320263Y-79544071D01*
X186345095Y-79589756D01*
X186375750Y-79652078D01*
X186413820Y-79733071D01*
X186428454Y-79764454D01*
X186458203Y-79827638D01*
X186484297Y-79882244D01*
X186505292Y-79925290D01*
X186519739Y-79953793D01*
X186526191Y-79964770D01*
X186527550Y-79964189D01*
X186537542Y-79950242D01*
X186554833Y-79920704D01*
X186577430Y-79879087D01*
X186603338Y-79828903D01*
X186619311Y-79797414D01*
X186648261Y-79742061D01*
X186670749Y-79703044D01*
X186688965Y-79677566D01*
X186705096Y-79662831D01*
X186721330Y-79656042D01*
X186739857Y-79654400D01*
X186750360Y-79654875D01*
X186766476Y-79659082D01*
X186781790Y-79669946D01*
X186798388Y-79690219D01*
X186818357Y-79722654D01*
X186843783Y-79770004D01*
X186876752Y-79835022D01*
X186886485Y-79854277D01*
X186910943Y-79900946D01*
X186931178Y-79937109D01*
X186945311Y-79959497D01*
X186951460Y-79964845D01*
X186952827Y-79961573D01*
X186962202Y-79940664D01*
X186979062Y-79903725D01*
X187001979Y-79853874D01*
X187029520Y-79794226D01*
X187060255Y-79727898D01*
X187086970Y-79670677D01*
X187116593Y-79608688D01*
X187139664Y-79562949D01*
X187157643Y-79530908D01*
X187171990Y-79510014D01*
X187184166Y-79497718D01*
X187195632Y-79491466D01*
X187205042Y-79488574D01*
X187230147Y-79488425D01*
X187257290Y-79503768D01*
X187258590Y-79504753D01*
X187280674Y-79527388D01*
X187291723Y-79549613D01*
X187291769Y-79550253D01*
X187287228Y-79567915D01*
X187274364Y-79602481D01*
X187254605Y-79650826D01*
X187229381Y-79709825D01*
X187200119Y-79776355D01*
X187168250Y-79847291D01*
X187135201Y-79919507D01*
X187102401Y-79989880D01*
X187071280Y-80055285D01*
X187043265Y-80112597D01*
X187019786Y-80158692D01*
X187002272Y-80190446D01*
X186992151Y-80204733D01*
X186957743Y-80218102D01*
X186916046Y-80211741D01*
X186910681Y-80207044D01*
X186894852Y-80184893D01*
X186872650Y-80148132D01*
X186846233Y-80100415D01*
X186817760Y-80045393D01*
X186737986Y-79886150D01*
X186664799Y-80032742D01*
X186655103Y-80052032D01*
X186628125Y-80104380D01*
X186604096Y-80149170D01*
X186585332Y-80182154D01*
X186574146Y-80199089D01*
X186573000Y-80200332D01*
X186544879Y-80215619D01*
X186509817Y-80217302D01*
X186478776Y-80204733D01*
X186476350Y-80201884D01*
X186464090Y-80181259D01*
X186444352Y-80143708D01*
X186418448Y-80091880D01*
X186387685Y-80028423D01*
X186353375Y-79955985D01*
X186316825Y-79877216D01*
X186296585Y-79833093D01*
X186259812Y-79752365D01*
X186231355Y-79688687D01*
X186210331Y-79639752D01*
X186195854Y-79603257D01*
X186187039Y-79576895D01*
X186183004Y-79558361D01*
X186182862Y-79545352D01*
X186185730Y-79535561D01*
X186200387Y-79514678D01*
X186226990Y-79494377D01*
X186227745Y-79494035D01*
X186247335Y-79487034D01*
X186264790Y-79486504D01*
X186281702Y-79494478D01*
G37*
X193683703Y-79486351D02*
X193608888Y-79491581D01*
X193539306Y-79499750D01*
X193479002Y-79510550D01*
X193432020Y-79523673D01*
X193402406Y-79538813D01*
X193397860Y-79543269D01*
X193382054Y-79577850D01*
X193386847Y-79613351D01*
X193411364Y-79643725D01*
X193412534Y-79644596D01*
X193426954Y-79653954D01*
X193442008Y-79658876D01*
X193463005Y-79659473D01*
X193495257Y-79655861D01*
X193544073Y-79648154D01*
X193548000Y-79647505D01*
X193620739Y-79638569D01*
X193699217Y-79634161D01*
X193777927Y-79634119D01*
X193851361Y-79638279D01*
X193914011Y-79646479D01*
X193960370Y-79658557D01*
X193963416Y-79659771D01*
X193997048Y-79678615D01*
X194008864Y-79697685D01*
X193999614Y-79716439D01*
X193970047Y-79734337D01*
X193920911Y-79750837D01*
X193852957Y-79765396D01*
X193807645Y-79772406D01*
X193713456Y-79785889D01*
X193638544Y-79798214D01*
X193579717Y-79810449D01*
X193533785Y-79823661D01*
X193497555Y-79838917D01*
X193467838Y-79857285D01*
X193441442Y-79879831D01*
X193420230Y-79901971D01*
X193395065Y-79932819D01*
X193382681Y-79959345D01*
X193378808Y-79992026D01*
X193378667Y-80003995D01*
X193381576Y-80043712D01*
X193393202Y-80073259D01*
X193413323Y-80099486D01*
X193454216Y-80139576D01*
X193499817Y-80170149D01*
X193553513Y-80192203D01*
X193618692Y-80206735D01*
X193698744Y-80214741D01*
X193797057Y-80217218D01*
X193813289Y-80217177D01*
X193878849Y-80215818D01*
X193943866Y-80212730D01*
X194001252Y-80208356D01*
X194043922Y-80203140D01*
X194047372Y-80202541D01*
X194089796Y-80192491D01*
X194125780Y-80179796D01*
X194146150Y-80168190D01*
X194165107Y-80137572D01*
X194166427Y-80101918D01*
X194150085Y-80070144D01*
X194146429Y-80066551D01*
X194131315Y-80055876D01*
X194112415Y-80051276D01*
X194083162Y-80052059D01*
X194047651Y-80056127D01*
X194007970Y-80059762D01*
X193952345Y-80062828D01*
X193887406Y-80065053D01*
X193819785Y-80066164D01*
X193802000Y-80066237D01*
X193734128Y-80065964D01*
X193684454Y-80064646D01*
X193648610Y-80061827D01*
X193622224Y-80057050D01*
X193600926Y-80049857D01*
X193588126Y-80043867D01*
X193560000Y-80027233D01*
X193542068Y-80012168D01*
X193539447Y-80007897D01*
X193544976Y-79990263D01*
X193571260Y-79973192D01*
X193616478Y-79957458D01*
X193678808Y-79943838D01*
X193697171Y-79940804D01*
X193793090Y-79925738D01*
X193869641Y-79913146D01*
X193929780Y-79902111D01*
X193976460Y-79891720D01*
X194012637Y-79881056D01*
X194041265Y-79869205D01*
X194065298Y-79855251D01*
X194087692Y-79838281D01*
X194111402Y-79817378D01*
X194119380Y-79810049D01*
X194147353Y-79782699D01*
X194162160Y-79761029D01*
X194167952Y-79736232D01*
X194168889Y-79704983D01*
X194158575Y-79643705D01*
X194127752Y-79591640D01*
X194076595Y-79548958D01*
X194005283Y-79515825D01*
X193954400Y-79500964D01*
X193899100Y-79491366D01*
X193832853Y-79485936D01*
X193759706Y-79484367D01*
X193683703Y-79486351D01*
G36*
X193832853Y-79485936D02*
G01*
X193899100Y-79491366D01*
X193954400Y-79500964D01*
X194005283Y-79515825D01*
X194076595Y-79548958D01*
X194127752Y-79591640D01*
X194158575Y-79643705D01*
X194168889Y-79704983D01*
X194167952Y-79736232D01*
X194162160Y-79761029D01*
X194147353Y-79782699D01*
X194119380Y-79810049D01*
X194111402Y-79817378D01*
X194087692Y-79838281D01*
X194065298Y-79855251D01*
X194041265Y-79869205D01*
X194012637Y-79881056D01*
X193976460Y-79891720D01*
X193929780Y-79902111D01*
X193869641Y-79913146D01*
X193793090Y-79925738D01*
X193697171Y-79940804D01*
X193678808Y-79943838D01*
X193616478Y-79957458D01*
X193571260Y-79973192D01*
X193544976Y-79990263D01*
X193539447Y-80007897D01*
X193542068Y-80012168D01*
X193560000Y-80027233D01*
X193588126Y-80043867D01*
X193600926Y-80049857D01*
X193622224Y-80057050D01*
X193648610Y-80061827D01*
X193684454Y-80064646D01*
X193734128Y-80065964D01*
X193802000Y-80066237D01*
X193819785Y-80066164D01*
X193887406Y-80065053D01*
X193952345Y-80062828D01*
X194007970Y-80059762D01*
X194047651Y-80056127D01*
X194083162Y-80052059D01*
X194112415Y-80051276D01*
X194131315Y-80055876D01*
X194146429Y-80066551D01*
X194150085Y-80070144D01*
X194166427Y-80101918D01*
X194165107Y-80137572D01*
X194146150Y-80168190D01*
X194125780Y-80179796D01*
X194089796Y-80192491D01*
X194047372Y-80202541D01*
X194043922Y-80203140D01*
X194001252Y-80208356D01*
X193943866Y-80212730D01*
X193878849Y-80215818D01*
X193813289Y-80217177D01*
X193797057Y-80217218D01*
X193698744Y-80214741D01*
X193618692Y-80206735D01*
X193553513Y-80192203D01*
X193499817Y-80170149D01*
X193454216Y-80139576D01*
X193413323Y-80099486D01*
X193393202Y-80073259D01*
X193381576Y-80043712D01*
X193378667Y-80003995D01*
X193378808Y-79992026D01*
X193382681Y-79959345D01*
X193395065Y-79932819D01*
X193420230Y-79901971D01*
X193441442Y-79879831D01*
X193467838Y-79857285D01*
X193497555Y-79838917D01*
X193533785Y-79823661D01*
X193579717Y-79810449D01*
X193638544Y-79798214D01*
X193713456Y-79785889D01*
X193807645Y-79772406D01*
X193852957Y-79765396D01*
X193920911Y-79750837D01*
X193970047Y-79734337D01*
X193999614Y-79716439D01*
X194008864Y-79697685D01*
X193997048Y-79678615D01*
X193963416Y-79659771D01*
X193960370Y-79658557D01*
X193914011Y-79646479D01*
X193851361Y-79638279D01*
X193777927Y-79634119D01*
X193699217Y-79634161D01*
X193620739Y-79638569D01*
X193548000Y-79647505D01*
X193544073Y-79648154D01*
X193495257Y-79655861D01*
X193463005Y-79659473D01*
X193442008Y-79658876D01*
X193426954Y-79653954D01*
X193412534Y-79644596D01*
X193411364Y-79643725D01*
X193386847Y-79613351D01*
X193382054Y-79577850D01*
X193397860Y-79543269D01*
X193402406Y-79538813D01*
X193432020Y-79523673D01*
X193479002Y-79510550D01*
X193539306Y-79499750D01*
X193608888Y-79491581D01*
X193683703Y-79486351D01*
X193759706Y-79484367D01*
X193832853Y-79485936D01*
G37*
X189663571Y-75165071D02*
X189503430Y-75186245D01*
X189339490Y-75226385D01*
X189169687Y-75285889D01*
X188991957Y-75365154D01*
X188980690Y-75370699D01*
X188922995Y-75398725D01*
X188871448Y-75422802D01*
X188829809Y-75441249D01*
X188801838Y-75452386D01*
X188792267Y-75454933D01*
X188773050Y-75459941D01*
X188768439Y-75464147D01*
X188773542Y-75474580D01*
X188789582Y-75500868D01*
X188814712Y-75540257D01*
X188847086Y-75589991D01*
X188884857Y-75647315D01*
X188926178Y-75709476D01*
X188969202Y-75773718D01*
X189012083Y-75837285D01*
X189052974Y-75897425D01*
X189090029Y-75951380D01*
X189121400Y-75996397D01*
X189145241Y-76029721D01*
X189159706Y-76048597D01*
X189161691Y-76050787D01*
X189171809Y-76046138D01*
X189194150Y-76028962D01*
X189224720Y-76002440D01*
X189240464Y-75987964D01*
X189336953Y-75912682D01*
X189443664Y-75857241D01*
X189559168Y-75822141D01*
X189682038Y-75807880D01*
X189751439Y-75809051D01*
X189872577Y-75826212D01*
X189981795Y-75862094D01*
X190079418Y-75916959D01*
X190165772Y-75991070D01*
X190241185Y-76084688D01*
X190305982Y-76198076D01*
X190343399Y-76284667D01*
X190387252Y-76420366D01*
X190419572Y-76567850D01*
X190440443Y-76723314D01*
X190449949Y-76882956D01*
X190448173Y-77042973D01*
X190435197Y-77199561D01*
X190411106Y-77348918D01*
X190375982Y-77487240D01*
X190329908Y-77610724D01*
X190313627Y-77644978D01*
X190245380Y-77759064D01*
X190164921Y-77855557D01*
X190073430Y-77933670D01*
X189972089Y-77992617D01*
X189862080Y-78031612D01*
X189744585Y-78049868D01*
X189703117Y-78051211D01*
X189581559Y-78040290D01*
X189461122Y-78007474D01*
X189343334Y-77953439D01*
X189229723Y-77878865D01*
X189138315Y-77800539D01*
X189091785Y-77756008D01*
X188910517Y-78053271D01*
X188865420Y-78127433D01*
X188824181Y-78195646D01*
X188788265Y-78255459D01*
X188759134Y-78304420D01*
X188738250Y-78340079D01*
X188727076Y-78359984D01*
X188725625Y-78363079D01*
X188733854Y-78372718D01*
X188759433Y-78389999D01*
X188799127Y-78413283D01*
X188849703Y-78440934D01*
X188907926Y-78471315D01*
X188970563Y-78502790D01*
X189034379Y-78533722D01*
X189096140Y-78562473D01*
X189152612Y-78587408D01*
X189200562Y-78606889D01*
X189224014Y-78615318D01*
X189357779Y-78653133D01*
X189495673Y-78678136D01*
X189643378Y-78691140D01*
X189770167Y-78693468D01*
X189838122Y-78692373D01*
X189903723Y-78690275D01*
X189961153Y-78687434D01*
X190004597Y-78684106D01*
X190018702Y-78682422D01*
X190157716Y-78653587D01*
X190299243Y-78608468D01*
X190436725Y-78549750D01*
X190563606Y-78480120D01*
X190641111Y-78427441D01*
X190768519Y-78319239D01*
X190886822Y-78192671D01*
X190993828Y-78050866D01*
X191087348Y-77896951D01*
X191165190Y-77734053D01*
X191209044Y-77616756D01*
X191259292Y-77433128D01*
X191292791Y-77238581D01*
X191309551Y-77037325D01*
X191309584Y-76833568D01*
X191292899Y-76631521D01*
X191259507Y-76435392D01*
X191209420Y-76249391D01*
X191205603Y-76237803D01*
X191142719Y-76075750D01*
X191065972Y-75927832D01*
X190972758Y-75789865D01*
X190860473Y-75657661D01*
X190816608Y-75612399D01*
X190680466Y-75488457D01*
X190540509Y-75385915D01*
X190394589Y-75303656D01*
X190240558Y-75240564D01*
X190076268Y-75195523D01*
X189980711Y-75178033D01*
X189821977Y-75162466D01*
X189663571Y-75165071D01*
G36*
X189980711Y-75178033D02*
G01*
X190076268Y-75195523D01*
X190240558Y-75240564D01*
X190394589Y-75303656D01*
X190540509Y-75385915D01*
X190680466Y-75488457D01*
X190816608Y-75612399D01*
X190860473Y-75657661D01*
X190972758Y-75789865D01*
X191065972Y-75927832D01*
X191142719Y-76075750D01*
X191205603Y-76237803D01*
X191209420Y-76249391D01*
X191259507Y-76435392D01*
X191292899Y-76631521D01*
X191309584Y-76833568D01*
X191309551Y-77037325D01*
X191292791Y-77238581D01*
X191259292Y-77433128D01*
X191209044Y-77616756D01*
X191165190Y-77734053D01*
X191087348Y-77896951D01*
X190993828Y-78050866D01*
X190886822Y-78192671D01*
X190768519Y-78319239D01*
X190641111Y-78427441D01*
X190563606Y-78480120D01*
X190436725Y-78549750D01*
X190299243Y-78608468D01*
X190157716Y-78653587D01*
X190018702Y-78682422D01*
X190004597Y-78684106D01*
X189961153Y-78687434D01*
X189903723Y-78690275D01*
X189838122Y-78692373D01*
X189770167Y-78693468D01*
X189643378Y-78691140D01*
X189495673Y-78678136D01*
X189357779Y-78653133D01*
X189224014Y-78615318D01*
X189200562Y-78606889D01*
X189152612Y-78587408D01*
X189096140Y-78562473D01*
X189034379Y-78533722D01*
X188970563Y-78502790D01*
X188907926Y-78471315D01*
X188849703Y-78440934D01*
X188799127Y-78413283D01*
X188759433Y-78389999D01*
X188733854Y-78372718D01*
X188725625Y-78363079D01*
X188727076Y-78359984D01*
X188738250Y-78340079D01*
X188759134Y-78304420D01*
X188788265Y-78255459D01*
X188824181Y-78195646D01*
X188865420Y-78127433D01*
X188910517Y-78053271D01*
X189091785Y-77756008D01*
X189138315Y-77800539D01*
X189229723Y-77878865D01*
X189343334Y-77953439D01*
X189461122Y-78007474D01*
X189581559Y-78040290D01*
X189703117Y-78051211D01*
X189744585Y-78049868D01*
X189862080Y-78031612D01*
X189972089Y-77992617D01*
X190073430Y-77933670D01*
X190164921Y-77855557D01*
X190245380Y-77759064D01*
X190313627Y-77644978D01*
X190329908Y-77610724D01*
X190375982Y-77487240D01*
X190411106Y-77348918D01*
X190435197Y-77199561D01*
X190448173Y-77042973D01*
X190449949Y-76882956D01*
X190440443Y-76723314D01*
X190419572Y-76567850D01*
X190387252Y-76420366D01*
X190343399Y-76284667D01*
X190305982Y-76198076D01*
X190241185Y-76084688D01*
X190165772Y-75991070D01*
X190079418Y-75916959D01*
X189981795Y-75862094D01*
X189872577Y-75826212D01*
X189751439Y-75809051D01*
X189682038Y-75807880D01*
X189559168Y-75822141D01*
X189443664Y-75857241D01*
X189336953Y-75912682D01*
X189240464Y-75987964D01*
X189224720Y-76002440D01*
X189194150Y-76028962D01*
X189171809Y-76046138D01*
X189161691Y-76050787D01*
X189159706Y-76048597D01*
X189145241Y-76029721D01*
X189121400Y-75996397D01*
X189090029Y-75951380D01*
X189052974Y-75897425D01*
X189012083Y-75837285D01*
X188969202Y-75773718D01*
X188926178Y-75709476D01*
X188884857Y-75647315D01*
X188847086Y-75589991D01*
X188814712Y-75540257D01*
X188789582Y-75500868D01*
X188773542Y-75474580D01*
X188768439Y-75464147D01*
X188773050Y-75459941D01*
X188792267Y-75454933D01*
X188801838Y-75452386D01*
X188829809Y-75441249D01*
X188871448Y-75422802D01*
X188922995Y-75398725D01*
X188980690Y-75370699D01*
X188991957Y-75365154D01*
X189169687Y-75285889D01*
X189339490Y-75226385D01*
X189503430Y-75186245D01*
X189663571Y-75165071D01*
X189821977Y-75162466D01*
X189980711Y-75178033D01*
G37*
X183805493Y-76688245D02*
X183805474Y-76922662D01*
X183805448Y-77135603D01*
X183805375Y-77328168D01*
X183805218Y-77501459D01*
X183804936Y-77656576D01*
X183804491Y-77794620D01*
X183803844Y-77916692D01*
X183802955Y-78023894D01*
X183801787Y-78117326D01*
X183800299Y-78198090D01*
X183798454Y-78267286D01*
X183796211Y-78326015D01*
X183793531Y-78375379D01*
X183790377Y-78416478D01*
X183786708Y-78450413D01*
X183782487Y-78478286D01*
X183777673Y-78501198D01*
X183772227Y-78520249D01*
X183766112Y-78536540D01*
X183759288Y-78551173D01*
X183751715Y-78565249D01*
X183743355Y-78579868D01*
X183738161Y-78588974D01*
X183703896Y-78649689D01*
X184562045Y-78649689D01*
X184562045Y-78553733D01*
X184562776Y-78510370D01*
X184564728Y-78477205D01*
X184567537Y-78459424D01*
X184568779Y-78457778D01*
X184580201Y-78464662D01*
X184602916Y-78482505D01*
X184625615Y-78501879D01*
X184680200Y-78542614D01*
X184749679Y-78583617D01*
X184826730Y-78621123D01*
X184904035Y-78651364D01*
X184934887Y-78661012D01*
X185003384Y-78675578D01*
X185086236Y-78685539D01*
X185175629Y-78690583D01*
X185263752Y-78690396D01*
X185342793Y-78684666D01*
X185380489Y-78678858D01*
X185518586Y-78640797D01*
X185645887Y-78583073D01*
X185761708Y-78506211D01*
X185865363Y-78410739D01*
X185956167Y-78297179D01*
X186022969Y-78186381D01*
X186077836Y-78069625D01*
X186119837Y-77950276D01*
X186149833Y-77824283D01*
X186168689Y-77687594D01*
X186177268Y-77536158D01*
X186177994Y-77458711D01*
X186175900Y-77401934D01*
X185346783Y-77401934D01*
X185346576Y-77495002D01*
X185343663Y-77582692D01*
X185338000Y-77659772D01*
X185329545Y-77721009D01*
X185326962Y-77733350D01*
X185295160Y-77840633D01*
X185253502Y-77927658D01*
X185201637Y-77994642D01*
X185139219Y-78041805D01*
X185065900Y-78069365D01*
X184981331Y-78077541D01*
X184885165Y-78066551D01*
X184821689Y-78050829D01*
X184772546Y-78032639D01*
X184718417Y-78006791D01*
X184677756Y-77983089D01*
X184607200Y-77936721D01*
X184607200Y-76786530D01*
X184674608Y-76742962D01*
X184753133Y-76702040D01*
X184837319Y-76675389D01*
X184922443Y-76663465D01*
X185003784Y-76666722D01*
X185076620Y-76685615D01*
X185108574Y-76701184D01*
X185166499Y-76744181D01*
X185215456Y-76800953D01*
X185256610Y-76873575D01*
X185291126Y-76964121D01*
X185320167Y-77074666D01*
X185321448Y-77080533D01*
X185331619Y-77142788D01*
X185339261Y-77220594D01*
X185344330Y-77308720D01*
X185346783Y-77401934D01*
X186175900Y-77401934D01*
X186170143Y-77245895D01*
X186148198Y-77050059D01*
X186112214Y-76871332D01*
X186062241Y-76709845D01*
X185998332Y-76565726D01*
X185920538Y-76439106D01*
X185828911Y-76330115D01*
X185723503Y-76238883D01*
X185678338Y-76207932D01*
X185577389Y-76151785D01*
X185474099Y-76112174D01*
X185364011Y-76088014D01*
X185242670Y-76078219D01*
X185150164Y-76079265D01*
X185020510Y-76090231D01*
X184907916Y-76112046D01*
X184809125Y-76145714D01*
X184720879Y-76192236D01*
X184672014Y-76226448D01*
X184642647Y-76248362D01*
X184620957Y-76263333D01*
X184612747Y-76267733D01*
X184611132Y-76256904D01*
X184609841Y-76226251D01*
X184608862Y-76178526D01*
X184608183Y-76116479D01*
X184607790Y-76042862D01*
X184607670Y-75960427D01*
X184607812Y-75871925D01*
X184608203Y-75780107D01*
X184608829Y-75687724D01*
X184609680Y-75597528D01*
X184610740Y-75512271D01*
X184611999Y-75434703D01*
X184613444Y-75367576D01*
X184615062Y-75313641D01*
X184616839Y-75275650D01*
X184617331Y-75268667D01*
X184624908Y-75198251D01*
X184636469Y-75143102D01*
X184654208Y-75095981D01*
X184680318Y-75049647D01*
X184686585Y-75040067D01*
X184711017Y-75003378D01*
X183805689Y-75003378D01*
X183805493Y-76688245D01*
G36*
X186177994Y-77458711D02*
G01*
X186177268Y-77536158D01*
X186168689Y-77687594D01*
X186149833Y-77824283D01*
X186119837Y-77950276D01*
X186077836Y-78069625D01*
X186022969Y-78186381D01*
X185956167Y-78297179D01*
X185865363Y-78410739D01*
X185761708Y-78506211D01*
X185645887Y-78583073D01*
X185518586Y-78640797D01*
X185380489Y-78678858D01*
X185342793Y-78684666D01*
X185263752Y-78690396D01*
X185175629Y-78690583D01*
X185086236Y-78685539D01*
X185003384Y-78675578D01*
X184934887Y-78661012D01*
X184904035Y-78651364D01*
X184826730Y-78621123D01*
X184749679Y-78583617D01*
X184680200Y-78542614D01*
X184625615Y-78501879D01*
X184602916Y-78482505D01*
X184580201Y-78464662D01*
X184568779Y-78457778D01*
X184567537Y-78459424D01*
X184564728Y-78477205D01*
X184562776Y-78510370D01*
X184562045Y-78553733D01*
X184562045Y-78649689D01*
X183703896Y-78649689D01*
X183738161Y-78588974D01*
X183743355Y-78579868D01*
X183751715Y-78565249D01*
X183759288Y-78551173D01*
X183766112Y-78536540D01*
X183772227Y-78520249D01*
X183777673Y-78501198D01*
X183782487Y-78478286D01*
X183786708Y-78450413D01*
X183790377Y-78416478D01*
X183793531Y-78375379D01*
X183796211Y-78326015D01*
X183798454Y-78267286D01*
X183800299Y-78198090D01*
X183801787Y-78117326D01*
X183802955Y-78023894D01*
X183803844Y-77916692D01*
X183804491Y-77794620D01*
X183804936Y-77656576D01*
X183805218Y-77501459D01*
X183805375Y-77328168D01*
X183805448Y-77135603D01*
X183805474Y-76922662D01*
X183805485Y-76786530D01*
X184607200Y-76786530D01*
X184607200Y-77936721D01*
X184677756Y-77983089D01*
X184718417Y-78006791D01*
X184772546Y-78032639D01*
X184821689Y-78050829D01*
X184885165Y-78066551D01*
X184981331Y-78077541D01*
X185065900Y-78069365D01*
X185139219Y-78041805D01*
X185201637Y-77994642D01*
X185253502Y-77927658D01*
X185295160Y-77840633D01*
X185326962Y-77733350D01*
X185329545Y-77721009D01*
X185338000Y-77659772D01*
X185343663Y-77582692D01*
X185346576Y-77495002D01*
X185346783Y-77401934D01*
X185344330Y-77308720D01*
X185339261Y-77220594D01*
X185331619Y-77142788D01*
X185321448Y-77080533D01*
X185320167Y-77074666D01*
X185291126Y-76964121D01*
X185256610Y-76873575D01*
X185215456Y-76800953D01*
X185166499Y-76744181D01*
X185108574Y-76701184D01*
X185076620Y-76685615D01*
X185003784Y-76666722D01*
X184922443Y-76663465D01*
X184837319Y-76675389D01*
X184753133Y-76702040D01*
X184674608Y-76742962D01*
X184607200Y-76786530D01*
X183805485Y-76786530D01*
X183805493Y-76688245D01*
X183805689Y-75003378D01*
X184711017Y-75003378D01*
X184686585Y-75040067D01*
X184680318Y-75049647D01*
X184654208Y-75095981D01*
X184636469Y-75143102D01*
X184624908Y-75198251D01*
X184617331Y-75268667D01*
X184616839Y-75275650D01*
X184615062Y-75313641D01*
X184613444Y-75367576D01*
X184611999Y-75434703D01*
X184610740Y-75512271D01*
X184609680Y-75597528D01*
X184608829Y-75687724D01*
X184608203Y-75780107D01*
X184607812Y-75871925D01*
X184607670Y-75960427D01*
X184607790Y-76042862D01*
X184608183Y-76116479D01*
X184608862Y-76178526D01*
X184609841Y-76226251D01*
X184611132Y-76256904D01*
X184612747Y-76267733D01*
X184620957Y-76263333D01*
X184642647Y-76248362D01*
X184672014Y-76226448D01*
X184720879Y-76192236D01*
X184809125Y-76145714D01*
X184907916Y-76112046D01*
X185020510Y-76090231D01*
X185150164Y-76079265D01*
X185242670Y-76078219D01*
X185364011Y-76088014D01*
X185474099Y-76112174D01*
X185577389Y-76151785D01*
X185678338Y-76207932D01*
X185723503Y-76238883D01*
X185828911Y-76330115D01*
X185920538Y-76439106D01*
X185998332Y-76565726D01*
X186062241Y-76709845D01*
X186112214Y-76871332D01*
X186148198Y-77050059D01*
X186170143Y-77245895D01*
X186175900Y-77401934D01*
X186177994Y-77458711D01*
G37*
X187318426Y-76082552D02*
X187166508Y-76102567D01*
X187031244Y-76136202D01*
X186911761Y-76183725D01*
X186807185Y-76245405D01*
X186729576Y-76308965D01*
X186660735Y-76383099D01*
X186606994Y-76462871D01*
X186564090Y-76555091D01*
X186548616Y-76598161D01*
X186535756Y-76637142D01*
X186524554Y-76673289D01*
X186514880Y-76708434D01*
X186506604Y-76744410D01*
X186499597Y-76783050D01*
X186493728Y-76826185D01*
X186488869Y-76875649D01*
X186484890Y-76933273D01*
X186481660Y-77000891D01*
X186479051Y-77080334D01*
X186476933Y-77173436D01*
X186475176Y-77282027D01*
X186473651Y-77407942D01*
X186472228Y-77553012D01*
X186470975Y-77695778D01*
X186469649Y-77851968D01*
X186468444Y-77987239D01*
X186467234Y-78103246D01*
X186465894Y-78201645D01*
X186464300Y-78284093D01*
X186462325Y-78352246D01*
X186459844Y-78407760D01*
X186456731Y-78452292D01*
X186452862Y-78487498D01*
X186448111Y-78515034D01*
X186442352Y-78536556D01*
X186435461Y-78553722D01*
X186427311Y-78568186D01*
X186417777Y-78581606D01*
X186406734Y-78595638D01*
X186402434Y-78601071D01*
X186386614Y-78623910D01*
X186379578Y-78639463D01*
X186379556Y-78639922D01*
X186390433Y-78642121D01*
X186421418Y-78644147D01*
X186470043Y-78645942D01*
X186533837Y-78647451D01*
X186610331Y-78648616D01*
X186697056Y-78649380D01*
X186791543Y-78649686D01*
X186802450Y-78649689D01*
X187225343Y-78649689D01*
X187228605Y-78553622D01*
X187231867Y-78457556D01*
X187293956Y-78508543D01*
X187391286Y-78576057D01*
X187501187Y-78630749D01*
X187587651Y-78660978D01*
X187656722Y-78675666D01*
X187740075Y-78685659D01*
X187829841Y-78690646D01*
X187918155Y-78690313D01*
X187997149Y-78684351D01*
X188033378Y-78678638D01*
X188173397Y-78640776D01*
X188299822Y-78585932D01*
X188411740Y-78514924D01*
X188508238Y-78428568D01*
X188588400Y-78327679D01*
X188651313Y-78213076D01*
X188695688Y-78086984D01*
X188708022Y-78030401D01*
X188715632Y-77968202D01*
X188719261Y-77893363D01*
X188719755Y-77859467D01*
X188719690Y-77856282D01*
X187959752Y-77856282D01*
X187950459Y-77931333D01*
X187922272Y-77995160D01*
X187873803Y-78050798D01*
X187868746Y-78055211D01*
X187820452Y-78090037D01*
X187768743Y-78112620D01*
X187708011Y-78124540D01*
X187632648Y-78127383D01*
X187614541Y-78126978D01*
X187560722Y-78124325D01*
X187520692Y-78118909D01*
X187485676Y-78108745D01*
X187446897Y-78091850D01*
X187436255Y-78086672D01*
X187375604Y-78050844D01*
X187328785Y-78008212D01*
X187316048Y-77992973D01*
X187271378Y-77936462D01*
X187271378Y-77740586D01*
X187271914Y-77661939D01*
X187273604Y-77603988D01*
X187276572Y-77564875D01*
X187280943Y-77542741D01*
X187285028Y-77536274D01*
X187300953Y-77533111D01*
X187334736Y-77530488D01*
X187381660Y-77528655D01*
X187437007Y-77527857D01*
X187445894Y-77527842D01*
X187566670Y-77533096D01*
X187669340Y-77549263D01*
X187755894Y-77576961D01*
X187828319Y-77616808D01*
X187883249Y-77663758D01*
X187927796Y-77721645D01*
X187952520Y-77784693D01*
X187959752Y-77856282D01*
X188719690Y-77856282D01*
X188717822Y-77765712D01*
X188709478Y-77686812D01*
X188693232Y-77615590D01*
X188667595Y-77544864D01*
X188643599Y-77492493D01*
X188584980Y-77397196D01*
X188506883Y-77309170D01*
X188411685Y-77230017D01*
X188301762Y-77161340D01*
X188179490Y-77104741D01*
X188047245Y-77061821D01*
X187982578Y-77046882D01*
X187846396Y-77024777D01*
X187697951Y-77010194D01*
X187546495Y-77003813D01*
X187419936Y-77005445D01*
X187258050Y-77012224D01*
X187265470Y-76953245D01*
X187284762Y-76854092D01*
X187315896Y-76773372D01*
X187359731Y-76710466D01*
X187417129Y-76664756D01*
X187488952Y-76635622D01*
X187576059Y-76622447D01*
X187679314Y-76624611D01*
X187717289Y-76628612D01*
X187858480Y-76653780D01*
X187995293Y-76694814D01*
X188089822Y-76732815D01*
X188134982Y-76752190D01*
X188173415Y-76767760D01*
X188199766Y-76777405D01*
X188207454Y-76779452D01*
X188217198Y-76770374D01*
X188233917Y-76741405D01*
X188257768Y-76692217D01*
X188288907Y-76622484D01*
X188327493Y-76531879D01*
X188334090Y-76516089D01*
X188364147Y-76443772D01*
X188391126Y-76378425D01*
X188413864Y-76322906D01*
X188431194Y-76280072D01*
X188441952Y-76252781D01*
X188445059Y-76243942D01*
X188435060Y-76239187D01*
X188408783Y-76233910D01*
X188380511Y-76230231D01*
X188350354Y-76225474D01*
X188302567Y-76216028D01*
X188241388Y-76202820D01*
X188171054Y-76186776D01*
X188095806Y-76168820D01*
X188067245Y-76161797D01*
X187962184Y-76136209D01*
X187874520Y-76116147D01*
X187799932Y-76100969D01*
X187734097Y-76090035D01*
X187672693Y-76082704D01*
X187611398Y-76078335D01*
X187545890Y-76076287D01*
X187487872Y-76075889D01*
X187318426Y-76082552D01*
G36*
X188719755Y-77859467D02*
G01*
X188719261Y-77893363D01*
X188715632Y-77968202D01*
X188708022Y-78030401D01*
X188695688Y-78086984D01*
X188651313Y-78213076D01*
X188588400Y-78327679D01*
X188508238Y-78428568D01*
X188411740Y-78514924D01*
X188299822Y-78585932D01*
X188173397Y-78640776D01*
X188033378Y-78678638D01*
X187997149Y-78684351D01*
X187918155Y-78690313D01*
X187829841Y-78690646D01*
X187740075Y-78685659D01*
X187656722Y-78675666D01*
X187587651Y-78660978D01*
X187501187Y-78630749D01*
X187391286Y-78576057D01*
X187293956Y-78508543D01*
X187231867Y-78457556D01*
X187228605Y-78553622D01*
X187225343Y-78649689D01*
X186802450Y-78649689D01*
X186791543Y-78649686D01*
X186697056Y-78649380D01*
X186610331Y-78648616D01*
X186533837Y-78647451D01*
X186470043Y-78645942D01*
X186421418Y-78644147D01*
X186390433Y-78642121D01*
X186379556Y-78639922D01*
X186379578Y-78639463D01*
X186386614Y-78623910D01*
X186402434Y-78601071D01*
X186406734Y-78595638D01*
X186417777Y-78581606D01*
X186427311Y-78568186D01*
X186435461Y-78553722D01*
X186442352Y-78536556D01*
X186448111Y-78515034D01*
X186452862Y-78487498D01*
X186456731Y-78452292D01*
X186459844Y-78407760D01*
X186462325Y-78352246D01*
X186464300Y-78284093D01*
X186465894Y-78201645D01*
X186467234Y-78103246D01*
X186468444Y-77987239D01*
X186469649Y-77851968D01*
X186470595Y-77740586D01*
X187271378Y-77740586D01*
X187271378Y-77936462D01*
X187316048Y-77992973D01*
X187328785Y-78008212D01*
X187375604Y-78050844D01*
X187436255Y-78086672D01*
X187446897Y-78091850D01*
X187485676Y-78108745D01*
X187520692Y-78118909D01*
X187560722Y-78124325D01*
X187614541Y-78126978D01*
X187632648Y-78127383D01*
X187708011Y-78124540D01*
X187768743Y-78112620D01*
X187820452Y-78090037D01*
X187868746Y-78055211D01*
X187873803Y-78050798D01*
X187922272Y-77995160D01*
X187950459Y-77931333D01*
X187959752Y-77856282D01*
X187952520Y-77784693D01*
X187927796Y-77721645D01*
X187883249Y-77663758D01*
X187828319Y-77616808D01*
X187755894Y-77576961D01*
X187669340Y-77549263D01*
X187566670Y-77533096D01*
X187445894Y-77527842D01*
X187437007Y-77527857D01*
X187381660Y-77528655D01*
X187334736Y-77530488D01*
X187300953Y-77533111D01*
X187285028Y-77536274D01*
X187280943Y-77542741D01*
X187276572Y-77564875D01*
X187273604Y-77603988D01*
X187271914Y-77661939D01*
X187271378Y-77740586D01*
X186470595Y-77740586D01*
X186470975Y-77695778D01*
X186472228Y-77553012D01*
X186473651Y-77407942D01*
X186475176Y-77282027D01*
X186476933Y-77173436D01*
X186479051Y-77080334D01*
X186481660Y-77000891D01*
X186484890Y-76933273D01*
X186488869Y-76875649D01*
X186493728Y-76826185D01*
X186499597Y-76783050D01*
X186506604Y-76744410D01*
X186514880Y-76708434D01*
X186524554Y-76673289D01*
X186535756Y-76637142D01*
X186548616Y-76598161D01*
X186564090Y-76555091D01*
X186606994Y-76462871D01*
X186660735Y-76383099D01*
X186729576Y-76308965D01*
X186807185Y-76245405D01*
X186911761Y-76183725D01*
X187031244Y-76136202D01*
X187166508Y-76102567D01*
X187318426Y-76082552D01*
X187487872Y-76075889D01*
X187545890Y-76076287D01*
X187611398Y-76078335D01*
X187672693Y-76082704D01*
X187734097Y-76090035D01*
X187799932Y-76100969D01*
X187874520Y-76116147D01*
X187962184Y-76136209D01*
X188067245Y-76161797D01*
X188095806Y-76168820D01*
X188171054Y-76186776D01*
X188241388Y-76202820D01*
X188302567Y-76216028D01*
X188350354Y-76225474D01*
X188380511Y-76230231D01*
X188408783Y-76233910D01*
X188435060Y-76239187D01*
X188445059Y-76243942D01*
X188441952Y-76252781D01*
X188431194Y-76280072D01*
X188413864Y-76322906D01*
X188391126Y-76378425D01*
X188364147Y-76443772D01*
X188334090Y-76516089D01*
X188327493Y-76531879D01*
X188288907Y-76622484D01*
X188257768Y-76692217D01*
X188233917Y-76741405D01*
X188217198Y-76770374D01*
X188207454Y-76779452D01*
X188199766Y-76777405D01*
X188173415Y-76767760D01*
X188134982Y-76752190D01*
X188089822Y-76732815D01*
X187995293Y-76694814D01*
X187858480Y-76653780D01*
X187717289Y-76628612D01*
X187679314Y-76624611D01*
X187576059Y-76622447D01*
X187488952Y-76635622D01*
X187417129Y-76664756D01*
X187359731Y-76710466D01*
X187315896Y-76773372D01*
X187284762Y-76854092D01*
X187265470Y-76953245D01*
X187258050Y-77012224D01*
X187419936Y-77005445D01*
X187546495Y-77003813D01*
X187697951Y-77010194D01*
X187846396Y-77024777D01*
X187982578Y-77046882D01*
X188047245Y-77061821D01*
X188179490Y-77104741D01*
X188301762Y-77161340D01*
X188411685Y-77230017D01*
X188506883Y-77309170D01*
X188584980Y-77397196D01*
X188643599Y-77492493D01*
X188667595Y-77544864D01*
X188693232Y-77615590D01*
X188709478Y-77686812D01*
X188717822Y-77765712D01*
X188719690Y-77856282D01*
X188719755Y-77859467D01*
G37*
X192938400Y-74705054D02*
X192927535Y-74818993D01*
X192895918Y-74926616D01*
X192845015Y-75025615D01*
X192776293Y-75113684D01*
X192691219Y-75188516D01*
X192594232Y-75246384D01*
X192487964Y-75286005D01*
X192380950Y-75304573D01*
X192275300Y-75303434D01*
X192173125Y-75283930D01*
X192076534Y-75247406D01*
X191987638Y-75195205D01*
X191908546Y-75128673D01*
X191841369Y-75049152D01*
X191788217Y-74957987D01*
X191751199Y-74856523D01*
X191732427Y-74746102D01*
X191730489Y-74696206D01*
X191730489Y-74608267D01*
X191678560Y-74608267D01*
X191642253Y-74611111D01*
X191615355Y-74622911D01*
X191588249Y-74646649D01*
X191549867Y-74685031D01*
X191549867Y-76876602D01*
X191549876Y-77138739D01*
X191549908Y-77379241D01*
X191549972Y-77599048D01*
X191550076Y-77799101D01*
X191550227Y-77980344D01*
X191550434Y-78143716D01*
X191550706Y-78290160D01*
X191551050Y-78420617D01*
X191551474Y-78536029D01*
X191551987Y-78637338D01*
X191552597Y-78725484D01*
X191553312Y-78801410D01*
X191554140Y-78866057D01*
X191555089Y-78920367D01*
X191556167Y-78965280D01*
X191557383Y-79001740D01*
X191558745Y-79030687D01*
X191560261Y-79053063D01*
X191561938Y-79069809D01*
X191563786Y-79081868D01*
X191565813Y-79090180D01*
X191568025Y-79095687D01*
X191569108Y-79097537D01*
X191573271Y-79104549D01*
X191576805Y-79110996D01*
X191580635Y-79116900D01*
X191585682Y-79122286D01*
X191592871Y-79127178D01*
X191603123Y-79131598D01*
X191617364Y-79135572D01*
X191636514Y-79139121D01*
X191661499Y-79142270D01*
X191693240Y-79145042D01*
X191732662Y-79147461D01*
X191780686Y-79149551D01*
X191838237Y-79151335D01*
X191906237Y-79152837D01*
X191985610Y-79154080D01*
X192077279Y-79155089D01*
X192182166Y-79155885D01*
X192301196Y-79156494D01*
X192435290Y-79156939D01*
X192585373Y-79157243D01*
X192752367Y-79157430D01*
X192937196Y-79157524D01*
X193140783Y-79157548D01*
X193364050Y-79157525D01*
X193607922Y-79157480D01*
X193873321Y-79157437D01*
X193911704Y-79157432D01*
X194178682Y-79157389D01*
X194424002Y-79157318D01*
X194648583Y-79157213D01*
X194853345Y-79157066D01*
X195039206Y-79156869D01*
X195207088Y-79156616D01*
X195357908Y-79156300D01*
X195492587Y-79155913D01*
X195612044Y-79155447D01*
X195717199Y-79154897D01*
X195808971Y-79154253D01*
X195888279Y-79153511D01*
X195956043Y-79152661D01*
X196013182Y-79151697D01*
X196060617Y-79150611D01*
X196099266Y-79149397D01*
X196130049Y-79148047D01*
X196153885Y-79146555D01*
X196171694Y-79144911D01*
X196184395Y-79143111D01*
X196192908Y-79141145D01*
X196197266Y-79139477D01*
X196205728Y-79135906D01*
X196213497Y-79133270D01*
X196220602Y-79130634D01*
X196227073Y-79127062D01*
X196232939Y-79121621D01*
X196238229Y-79113375D01*
X196242974Y-79101390D01*
X196247202Y-79084731D01*
X196250943Y-79062463D01*
X196254227Y-79033652D01*
X196257083Y-78997363D01*
X196259540Y-78952661D01*
X196261629Y-78898611D01*
X196263378Y-78834279D01*
X196264817Y-78758730D01*
X196265976Y-78671030D01*
X196266883Y-78570243D01*
X196267569Y-78455434D01*
X196268063Y-78325670D01*
X196268395Y-78180015D01*
X196268593Y-78017535D01*
X196268687Y-77837295D01*
X196268708Y-77638360D01*
X196268685Y-77419796D01*
X196268646Y-77180668D01*
X196268622Y-76920040D01*
X196268622Y-76877889D01*
X196268636Y-76614992D01*
X196268661Y-76373732D01*
X196268671Y-76153165D01*
X196268642Y-75952352D01*
X196268548Y-75770349D01*
X196268362Y-75606216D01*
X196268059Y-75459011D01*
X196267614Y-75327792D01*
X196267034Y-75217867D01*
X195964197Y-75217867D01*
X195924407Y-75275711D01*
X195913236Y-75291479D01*
X195903166Y-75305441D01*
X195894138Y-75318784D01*
X195886097Y-75332693D01*
X195878986Y-75348356D01*
X195872747Y-75366958D01*
X195867325Y-75389686D01*
X195862662Y-75417727D01*
X195858701Y-75452267D01*
X195855385Y-75494492D01*
X195852659Y-75545589D01*
X195850464Y-75606744D01*
X195848745Y-75679144D01*
X195847444Y-75763975D01*
X195846505Y-75862422D01*
X195845870Y-75975674D01*
X195845484Y-76104916D01*
X195845288Y-76251334D01*
X195845227Y-76416116D01*
X195845243Y-76600447D01*
X195845280Y-76805513D01*
X195845289Y-76928133D01*
X195845265Y-77145082D01*
X195845231Y-77340642D01*
X195845243Y-77515999D01*
X195845358Y-77672341D01*
X195845630Y-77810857D01*
X195846118Y-77932734D01*
X195846876Y-78039160D01*
X195847962Y-78131322D01*
X195849431Y-78210409D01*
X195851340Y-78277608D01*
X195853744Y-78334107D01*
X195856701Y-78381093D01*
X195860266Y-78419755D01*
X195864495Y-78451280D01*
X195869446Y-78476855D01*
X195875173Y-78497670D01*
X195881733Y-78514911D01*
X195889183Y-78529765D01*
X195897579Y-78543422D01*
X195906976Y-78557069D01*
X195917432Y-78571893D01*
X195923523Y-78580783D01*
X195962296Y-78638400D01*
X195430732Y-78638400D01*
X195307483Y-78638365D01*
X195204987Y-78638215D01*
X195121420Y-78637878D01*
X195054956Y-78637286D01*
X195003771Y-78636367D01*
X194966041Y-78635051D01*
X194939940Y-78633269D01*
X194923644Y-78630951D01*
X194915328Y-78628026D01*
X194913168Y-78624424D01*
X194915339Y-78620075D01*
X194916535Y-78618645D01*
X194941685Y-78581573D01*
X194967583Y-78528772D01*
X194991192Y-78466770D01*
X194999461Y-78440357D01*
X195004078Y-78422416D01*
X195007979Y-78401355D01*
X195011248Y-78375089D01*
X195013966Y-78341532D01*
X195016215Y-78298599D01*
X195018077Y-78244204D01*
X195019636Y-78176262D01*
X195020972Y-78092688D01*
X195022169Y-77991395D01*
X195023308Y-77870300D01*
X195023685Y-77825600D01*
X195024702Y-77700449D01*
X195025460Y-77596082D01*
X195025903Y-77510707D01*
X195025970Y-77442533D01*
X195025605Y-77389765D01*
X195024748Y-77350614D01*
X195023341Y-77323285D01*
X195021325Y-77305986D01*
X195018643Y-77296926D01*
X195015236Y-77294312D01*
X195011044Y-77296351D01*
X195006571Y-77300667D01*
X194996216Y-77313602D01*
X194974158Y-77342676D01*
X194941957Y-77385759D01*
X194901174Y-77440718D01*
X194853370Y-77505423D01*
X194800105Y-77577742D01*
X194742940Y-77655544D01*
X194683437Y-77736698D01*
X194623155Y-77819072D01*
X194563655Y-77900536D01*
X194506498Y-77978957D01*
X194453245Y-78052204D01*
X194405457Y-78118147D01*
X194364693Y-78174654D01*
X194332516Y-78219593D01*
X194310485Y-78250834D01*
X194305917Y-78257466D01*
X194282996Y-78294369D01*
X194256188Y-78342359D01*
X194230789Y-78391897D01*
X194227568Y-78398577D01*
X194205890Y-78446772D01*
X194193304Y-78484334D01*
X194187574Y-78520160D01*
X194186456Y-78562200D01*
X194187090Y-78638400D01*
X193032651Y-78638400D01*
X193123815Y-78544669D01*
X193170612Y-78494775D01*
X193220899Y-78438295D01*
X193266944Y-78384026D01*
X193287369Y-78358673D01*
X193317807Y-78319128D01*
X193357862Y-78265916D01*
X193406361Y-78200667D01*
X193462135Y-78125011D01*
X193524011Y-78040577D01*
X193590819Y-77948994D01*
X193661387Y-77851892D01*
X193734545Y-77750901D01*
X193809121Y-77647650D01*
X193883944Y-77543768D01*
X193957843Y-77440885D01*
X194029646Y-77340631D01*
X194098184Y-77244636D01*
X194162284Y-77154527D01*
X194220775Y-77071936D01*
X194272486Y-76998492D01*
X194316247Y-76935824D01*
X194350885Y-76885561D01*
X194375230Y-76849334D01*
X194388111Y-76828771D01*
X194389869Y-76824668D01*
X194381910Y-76813342D01*
X194361115Y-76786162D01*
X194328847Y-76744829D01*
X194286470Y-76691044D01*
X194235347Y-76626506D01*
X194176841Y-76552918D01*
X194112314Y-76471978D01*
X194043131Y-76385388D01*
X193970653Y-76294848D01*
X193896246Y-76202060D01*
X193836517Y-76127702D01*
X192825511Y-76127702D01*
X192819602Y-76140659D01*
X192805272Y-76162908D01*
X192804225Y-76164391D01*
X192785438Y-76194544D01*
X192765791Y-76231375D01*
X192761892Y-76239511D01*
X192758356Y-76247940D01*
X192755230Y-76258059D01*
X192752486Y-76271260D01*
X192750092Y-76288938D01*
X192748019Y-76312484D01*
X192746235Y-76343293D01*
X192744712Y-76382757D01*
X192743419Y-76432269D01*
X192742326Y-76493223D01*
X192741403Y-76567011D01*
X192740619Y-76655028D01*
X192739945Y-76758665D01*
X192739350Y-76879316D01*
X192738805Y-77018374D01*
X192738279Y-77177232D01*
X192737745Y-77356089D01*
X192737206Y-77541207D01*
X192736772Y-77705145D01*
X192736509Y-77849303D01*
X192736484Y-77975079D01*
X192736765Y-78083871D01*
X192737419Y-78177077D01*
X192738514Y-78256097D01*
X192740118Y-78322328D01*
X192742297Y-78377170D01*
X192745119Y-78422021D01*
X192748651Y-78458278D01*
X192752961Y-78487341D01*
X192758117Y-78510609D01*
X192764185Y-78529479D01*
X192771233Y-78545351D01*
X192779329Y-78559622D01*
X192788540Y-78573691D01*
X192797040Y-78586158D01*
X192814176Y-78612452D01*
X192824322Y-78630037D01*
X192825511Y-78633257D01*
X192814604Y-78634334D01*
X192783411Y-78635335D01*
X192734223Y-78636235D01*
X192669333Y-78637010D01*
X192591030Y-78637637D01*
X192501607Y-78638091D01*
X192403356Y-78638349D01*
X192334445Y-78638400D01*
X192229452Y-78638180D01*
X192132610Y-78637548D01*
X192046107Y-78636549D01*
X191972132Y-78635227D01*
X191912874Y-78633626D01*
X191870520Y-78631791D01*
X191847260Y-78629765D01*
X191843378Y-78628493D01*
X191851076Y-78613591D01*
X191859074Y-78605560D01*
X191872246Y-78588434D01*
X191889485Y-78558183D01*
X191901407Y-78533622D01*
X191928045Y-78474711D01*
X191931120Y-77297845D01*
X191934195Y-76120978D01*
X192379853Y-76120978D01*
X192477670Y-76121142D01*
X192568064Y-76121611D01*
X192648630Y-76122347D01*
X192716962Y-76123316D01*
X192770656Y-76124480D01*
X192807305Y-76125803D01*
X192824504Y-76127249D01*
X192825511Y-76127702D01*
X193836517Y-76127702D01*
X193821270Y-76108722D01*
X193747090Y-76016537D01*
X193675069Y-75927204D01*
X193606569Y-75842424D01*
X193542955Y-75763898D01*
X193485588Y-75693326D01*
X193435833Y-75632409D01*
X193395052Y-75582847D01*
X193377888Y-75562178D01*
X193291596Y-75461516D01*
X193214997Y-75378259D01*
X193146183Y-75310438D01*
X193083248Y-75256089D01*
X193073867Y-75248722D01*
X193034356Y-75218117D01*
X194166116Y-75217867D01*
X194160827Y-75265844D01*
X194164130Y-75323188D01*
X194185661Y-75391463D01*
X194225635Y-75471212D01*
X194270943Y-75543495D01*
X194287161Y-75566140D01*
X194315214Y-75603696D01*
X194353430Y-75654021D01*
X194400137Y-75714973D01*
X194453661Y-75784411D01*
X194512331Y-75860194D01*
X194574475Y-75940180D01*
X194638421Y-76022228D01*
X194702495Y-76104196D01*
X194765027Y-76183943D01*
X194824343Y-76259327D01*
X194878771Y-76328207D01*
X194926639Y-76388442D01*
X194966275Y-76437889D01*
X194996006Y-76474408D01*
X195014161Y-76495858D01*
X195017220Y-76499156D01*
X195020079Y-76491149D01*
X195022293Y-76460855D01*
X195023857Y-76408556D01*
X195024767Y-76334531D01*
X195025020Y-76239063D01*
X195024613Y-76122434D01*
X195023704Y-76002445D01*
X195022382Y-75870333D01*
X195020857Y-75758594D01*
X195018881Y-75665025D01*
X195016206Y-75587419D01*
X195012582Y-75523574D01*
X195007761Y-75471283D01*
X195001494Y-75428344D01*
X194993532Y-75392551D01*
X194983627Y-75361700D01*
X194971531Y-75333586D01*
X194956993Y-75306005D01*
X194942311Y-75280966D01*
X194904314Y-75217867D01*
X195964197Y-75217867D01*
X196267034Y-75217867D01*
X196267001Y-75211617D01*
X196266195Y-75109544D01*
X196265170Y-75020633D01*
X196263900Y-74943941D01*
X196262360Y-74878527D01*
X196260524Y-74823449D01*
X196258367Y-74777765D01*
X196255863Y-74740534D01*
X196252987Y-74710813D01*
X196249713Y-74687662D01*
X196246015Y-74670139D01*
X196241869Y-74657301D01*
X196237247Y-74648208D01*
X196232126Y-74641918D01*
X196226478Y-74637488D01*
X196220279Y-74633978D01*
X196213504Y-74630445D01*
X196207508Y-74626876D01*
X196202275Y-74624300D01*
X196194099Y-74621972D01*
X196181886Y-74619878D01*
X196164541Y-74618007D01*
X196140969Y-74616347D01*
X196110077Y-74614884D01*
X196070768Y-74613608D01*
X196021950Y-74612504D01*
X195962527Y-74611561D01*
X195891404Y-74610767D01*
X195807488Y-74610109D01*
X195709683Y-74609575D01*
X195596894Y-74609153D01*
X195468029Y-74608829D01*
X195321991Y-74608592D01*
X195157686Y-74608430D01*
X194974020Y-74608330D01*
X194769897Y-74608280D01*
X194558753Y-74608267D01*
X192938400Y-74608267D01*
X192938400Y-74705054D01*
G36*
X196267614Y-75327792D02*
G01*
X196268059Y-75459011D01*
X196268362Y-75606216D01*
X196268548Y-75770349D01*
X196268642Y-75952352D01*
X196268671Y-76153165D01*
X196268661Y-76373732D01*
X196268636Y-76614992D01*
X196268622Y-76877889D01*
X196268622Y-76920040D01*
X196268646Y-77180668D01*
X196268685Y-77419796D01*
X196268708Y-77638360D01*
X196268687Y-77837295D01*
X196268593Y-78017535D01*
X196268395Y-78180015D01*
X196268063Y-78325670D01*
X196267569Y-78455434D01*
X196266883Y-78570243D01*
X196265976Y-78671030D01*
X196264817Y-78758730D01*
X196263378Y-78834279D01*
X196261629Y-78898611D01*
X196259540Y-78952661D01*
X196257083Y-78997363D01*
X196254227Y-79033652D01*
X196250943Y-79062463D01*
X196247202Y-79084731D01*
X196242974Y-79101390D01*
X196238229Y-79113375D01*
X196232939Y-79121621D01*
X196227073Y-79127062D01*
X196220602Y-79130634D01*
X196213497Y-79133270D01*
X196205728Y-79135906D01*
X196197266Y-79139477D01*
X196192908Y-79141145D01*
X196184395Y-79143111D01*
X196171694Y-79144911D01*
X196153885Y-79146555D01*
X196130049Y-79148047D01*
X196099266Y-79149397D01*
X196060617Y-79150611D01*
X196013182Y-79151697D01*
X195956043Y-79152661D01*
X195888279Y-79153511D01*
X195808971Y-79154253D01*
X195717199Y-79154897D01*
X195612044Y-79155447D01*
X195492587Y-79155913D01*
X195357908Y-79156300D01*
X195207088Y-79156616D01*
X195039206Y-79156869D01*
X194853345Y-79157066D01*
X194648583Y-79157213D01*
X194424002Y-79157318D01*
X194178682Y-79157389D01*
X193911704Y-79157432D01*
X193873321Y-79157437D01*
X193607922Y-79157480D01*
X193364050Y-79157525D01*
X193140783Y-79157548D01*
X192937196Y-79157524D01*
X192752367Y-79157430D01*
X192585373Y-79157243D01*
X192435290Y-79156939D01*
X192301196Y-79156494D01*
X192182166Y-79155885D01*
X192077279Y-79155089D01*
X191985610Y-79154080D01*
X191906237Y-79152837D01*
X191838237Y-79151335D01*
X191780686Y-79149551D01*
X191732662Y-79147461D01*
X191693240Y-79145042D01*
X191661499Y-79142270D01*
X191636514Y-79139121D01*
X191617364Y-79135572D01*
X191603123Y-79131598D01*
X191592871Y-79127178D01*
X191585682Y-79122286D01*
X191580635Y-79116900D01*
X191576805Y-79110996D01*
X191573271Y-79104549D01*
X191569108Y-79097537D01*
X191568025Y-79095687D01*
X191565813Y-79090180D01*
X191563786Y-79081868D01*
X191561938Y-79069809D01*
X191560261Y-79053063D01*
X191558745Y-79030687D01*
X191557383Y-79001740D01*
X191556167Y-78965280D01*
X191555089Y-78920367D01*
X191554140Y-78866057D01*
X191553312Y-78801410D01*
X191552597Y-78725484D01*
X191551987Y-78637338D01*
X191551942Y-78628493D01*
X191843378Y-78628493D01*
X191847260Y-78629765D01*
X191870520Y-78631791D01*
X191912874Y-78633626D01*
X191972132Y-78635227D01*
X192046107Y-78636549D01*
X192132610Y-78637548D01*
X192229452Y-78638180D01*
X192334445Y-78638400D01*
X193032651Y-78638400D01*
X194187090Y-78638400D01*
X194186456Y-78562200D01*
X194187574Y-78520160D01*
X194193304Y-78484334D01*
X194205890Y-78446772D01*
X194227568Y-78398577D01*
X194230789Y-78391897D01*
X194256188Y-78342359D01*
X194282996Y-78294369D01*
X194305917Y-78257466D01*
X194310485Y-78250834D01*
X194332516Y-78219593D01*
X194364693Y-78174654D01*
X194405457Y-78118147D01*
X194453245Y-78052204D01*
X194506498Y-77978957D01*
X194563655Y-77900536D01*
X194623155Y-77819072D01*
X194683437Y-77736698D01*
X194742940Y-77655544D01*
X194800105Y-77577742D01*
X194853370Y-77505423D01*
X194901174Y-77440718D01*
X194941957Y-77385759D01*
X194974158Y-77342676D01*
X194996216Y-77313602D01*
X195006571Y-77300667D01*
X195011044Y-77296351D01*
X195015236Y-77294312D01*
X195018643Y-77296926D01*
X195021325Y-77305986D01*
X195023341Y-77323285D01*
X195024748Y-77350614D01*
X195025605Y-77389765D01*
X195025970Y-77442533D01*
X195025903Y-77510707D01*
X195025460Y-77596082D01*
X195024702Y-77700449D01*
X195023685Y-77825600D01*
X195023308Y-77870300D01*
X195022169Y-77991395D01*
X195020972Y-78092688D01*
X195019636Y-78176262D01*
X195018077Y-78244204D01*
X195016215Y-78298599D01*
X195013966Y-78341532D01*
X195011248Y-78375089D01*
X195007979Y-78401355D01*
X195004078Y-78422416D01*
X194999461Y-78440357D01*
X194991192Y-78466770D01*
X194967583Y-78528772D01*
X194941685Y-78581573D01*
X194916535Y-78618645D01*
X194915339Y-78620075D01*
X194913168Y-78624424D01*
X194915328Y-78628026D01*
X194923644Y-78630951D01*
X194939940Y-78633269D01*
X194966041Y-78635051D01*
X195003771Y-78636367D01*
X195054956Y-78637286D01*
X195121420Y-78637878D01*
X195204987Y-78638215D01*
X195307483Y-78638365D01*
X195430732Y-78638400D01*
X195962296Y-78638400D01*
X195923523Y-78580783D01*
X195917432Y-78571893D01*
X195906976Y-78557069D01*
X195897579Y-78543422D01*
X195889183Y-78529765D01*
X195881733Y-78514911D01*
X195875173Y-78497670D01*
X195869446Y-78476855D01*
X195864495Y-78451280D01*
X195860266Y-78419755D01*
X195856701Y-78381093D01*
X195853744Y-78334107D01*
X195851340Y-78277608D01*
X195849431Y-78210409D01*
X195847962Y-78131322D01*
X195846876Y-78039160D01*
X195846118Y-77932734D01*
X195845630Y-77810857D01*
X195845358Y-77672341D01*
X195845243Y-77515999D01*
X195845231Y-77340642D01*
X195845265Y-77145082D01*
X195845289Y-76928133D01*
X195845280Y-76805513D01*
X195845243Y-76600447D01*
X195845227Y-76416116D01*
X195845288Y-76251334D01*
X195845484Y-76104916D01*
X195845870Y-75975674D01*
X195846505Y-75862422D01*
X195847444Y-75763975D01*
X195848745Y-75679144D01*
X195850464Y-75606744D01*
X195852659Y-75545589D01*
X195855385Y-75494492D01*
X195858701Y-75452267D01*
X195862662Y-75417727D01*
X195867325Y-75389686D01*
X195872747Y-75366958D01*
X195878986Y-75348356D01*
X195886097Y-75332693D01*
X195894138Y-75318784D01*
X195903166Y-75305441D01*
X195913236Y-75291479D01*
X195924407Y-75275711D01*
X195964197Y-75217867D01*
X194904314Y-75217867D01*
X194942311Y-75280966D01*
X194956993Y-75306005D01*
X194971531Y-75333586D01*
X194983627Y-75361700D01*
X194993532Y-75392551D01*
X195001494Y-75428344D01*
X195007761Y-75471283D01*
X195012582Y-75523574D01*
X195016206Y-75587419D01*
X195018881Y-75665025D01*
X195020857Y-75758594D01*
X195022382Y-75870333D01*
X195023704Y-76002445D01*
X195024613Y-76122434D01*
X195025020Y-76239063D01*
X195024767Y-76334531D01*
X195023857Y-76408556D01*
X195022293Y-76460855D01*
X195020079Y-76491149D01*
X195017220Y-76499156D01*
X195014161Y-76495858D01*
X194996006Y-76474408D01*
X194966275Y-76437889D01*
X194926639Y-76388442D01*
X194878771Y-76328207D01*
X194824343Y-76259327D01*
X194765027Y-76183943D01*
X194702495Y-76104196D01*
X194638421Y-76022228D01*
X194574475Y-75940180D01*
X194512331Y-75860194D01*
X194453661Y-75784411D01*
X194400137Y-75714973D01*
X194353430Y-75654021D01*
X194315214Y-75603696D01*
X194287161Y-75566140D01*
X194270943Y-75543495D01*
X194225635Y-75471212D01*
X194185661Y-75391463D01*
X194164130Y-75323188D01*
X194160827Y-75265844D01*
X194166116Y-75217867D01*
X193034356Y-75218117D01*
X193073867Y-75248722D01*
X193083248Y-75256089D01*
X193146183Y-75310438D01*
X193214997Y-75378259D01*
X193291596Y-75461516D01*
X193377888Y-75562178D01*
X193395052Y-75582847D01*
X193435833Y-75632409D01*
X193485588Y-75693326D01*
X193542955Y-75763898D01*
X193606569Y-75842424D01*
X193675069Y-75927204D01*
X193747090Y-76016537D01*
X193821270Y-76108722D01*
X193836517Y-76127702D01*
X193896246Y-76202060D01*
X193970653Y-76294848D01*
X194043131Y-76385388D01*
X194112314Y-76471978D01*
X194176841Y-76552918D01*
X194235347Y-76626506D01*
X194286470Y-76691044D01*
X194328847Y-76744829D01*
X194361115Y-76786162D01*
X194381910Y-76813342D01*
X194389869Y-76824668D01*
X194388111Y-76828771D01*
X194375230Y-76849334D01*
X194350885Y-76885561D01*
X194316247Y-76935824D01*
X194272486Y-76998492D01*
X194220775Y-77071936D01*
X194162284Y-77154527D01*
X194098184Y-77244636D01*
X194029646Y-77340631D01*
X193957843Y-77440885D01*
X193883944Y-77543768D01*
X193809121Y-77647650D01*
X193734545Y-77750901D01*
X193661387Y-77851892D01*
X193590819Y-77948994D01*
X193524011Y-78040577D01*
X193462135Y-78125011D01*
X193406361Y-78200667D01*
X193357862Y-78265916D01*
X193317807Y-78319128D01*
X193287369Y-78358673D01*
X193266944Y-78384026D01*
X193220899Y-78438295D01*
X193170612Y-78494775D01*
X193123815Y-78544669D01*
X193032651Y-78638400D01*
X192334445Y-78638400D01*
X192403356Y-78638349D01*
X192501607Y-78638091D01*
X192591030Y-78637637D01*
X192669333Y-78637010D01*
X192734223Y-78636235D01*
X192783411Y-78635335D01*
X192814604Y-78634334D01*
X192825511Y-78633257D01*
X192824322Y-78630037D01*
X192814176Y-78612452D01*
X192797040Y-78586158D01*
X192788540Y-78573691D01*
X192779329Y-78559622D01*
X192771233Y-78545351D01*
X192764185Y-78529479D01*
X192758117Y-78510609D01*
X192752961Y-78487341D01*
X192748651Y-78458278D01*
X192745119Y-78422021D01*
X192742297Y-78377170D01*
X192740118Y-78322328D01*
X192738514Y-78256097D01*
X192737419Y-78177077D01*
X192736765Y-78083871D01*
X192736484Y-77975079D01*
X192736509Y-77849303D01*
X192736772Y-77705145D01*
X192737206Y-77541207D01*
X192737745Y-77356089D01*
X192738279Y-77177232D01*
X192738805Y-77018374D01*
X192739350Y-76879316D01*
X192739945Y-76758665D01*
X192740619Y-76655028D01*
X192741403Y-76567011D01*
X192742326Y-76493223D01*
X192743419Y-76432269D01*
X192744712Y-76382757D01*
X192746235Y-76343293D01*
X192748019Y-76312484D01*
X192750092Y-76288938D01*
X192752486Y-76271260D01*
X192755230Y-76258059D01*
X192758356Y-76247940D01*
X192761892Y-76239511D01*
X192765791Y-76231375D01*
X192785438Y-76194544D01*
X192804225Y-76164391D01*
X192805272Y-76162908D01*
X192819602Y-76140659D01*
X192825511Y-76127702D01*
X192824504Y-76127249D01*
X192807305Y-76125803D01*
X192770656Y-76124480D01*
X192716962Y-76123316D01*
X192648630Y-76122347D01*
X192568064Y-76121611D01*
X192477670Y-76121142D01*
X192379853Y-76120978D01*
X191934195Y-76120978D01*
X191931120Y-77297845D01*
X191928045Y-78474711D01*
X191901407Y-78533622D01*
X191889485Y-78558183D01*
X191872246Y-78588434D01*
X191859074Y-78605560D01*
X191851076Y-78613591D01*
X191843378Y-78628493D01*
X191551942Y-78628493D01*
X191551474Y-78536029D01*
X191551050Y-78420617D01*
X191550706Y-78290160D01*
X191550434Y-78143716D01*
X191550227Y-77980344D01*
X191550076Y-77799101D01*
X191549972Y-77599048D01*
X191549908Y-77379241D01*
X191549876Y-77138739D01*
X191549867Y-76876602D01*
X191549867Y-74685031D01*
X191588249Y-74646649D01*
X191615355Y-74622911D01*
X191642253Y-74611111D01*
X191678560Y-74608267D01*
X191730489Y-74608267D01*
X191730489Y-74696206D01*
X191732427Y-74746102D01*
X191751199Y-74856523D01*
X191788217Y-74957987D01*
X191841369Y-75049152D01*
X191908546Y-75128673D01*
X191987638Y-75195205D01*
X192076534Y-75247406D01*
X192173125Y-75283930D01*
X192275300Y-75303434D01*
X192380950Y-75304573D01*
X192487964Y-75286005D01*
X192594232Y-75246384D01*
X192691219Y-75188516D01*
X192776293Y-75113684D01*
X192845015Y-75025615D01*
X192895918Y-74926616D01*
X192927535Y-74818993D01*
X192938400Y-74705054D01*
X192938400Y-74608267D01*
X194558753Y-74608267D01*
X194769897Y-74608280D01*
X194974020Y-74608330D01*
X195157686Y-74608430D01*
X195321991Y-74608592D01*
X195468029Y-74608829D01*
X195596894Y-74609153D01*
X195709683Y-74609575D01*
X195807488Y-74610109D01*
X195891404Y-74610767D01*
X195962527Y-74611561D01*
X196021950Y-74612504D01*
X196070768Y-74613608D01*
X196110077Y-74614884D01*
X196140969Y-74616347D01*
X196164541Y-74618007D01*
X196181886Y-74619878D01*
X196194099Y-74621972D01*
X196202275Y-74624300D01*
X196207508Y-74626876D01*
X196213504Y-74630445D01*
X196220279Y-74633978D01*
X196226478Y-74637488D01*
X196232126Y-74641918D01*
X196237247Y-74648208D01*
X196241869Y-74657301D01*
X196246015Y-74670139D01*
X196249713Y-74687662D01*
X196252987Y-74710813D01*
X196255863Y-74740534D01*
X196258367Y-74777765D01*
X196260524Y-74823449D01*
X196262360Y-74878527D01*
X196263900Y-74943941D01*
X196265170Y-75020633D01*
X196266195Y-75109544D01*
X196267001Y-75211617D01*
X196267034Y-75217867D01*
X196267614Y-75327792D01*
G37*
%TD*%
M02*
