M48
; DRILL file KiCad 10.0.3-2.fc44 date 2026-06-25T23:20:02
; FORMAT={-:-/ absolute / metric / decimal}
; #@! TF.CreationDate,2026-06-25T23:20:02+05:30
; #@! TF.GenerationSoftware,Kicad,Pcbnew,10.0.3-2.fc44
; #@! TF.FileFunction,Plated,1,2,PTH
FMAT,2
METRIC
; #@! TA.AperFunction,Plated,PTH,ViaDrill
T1C0.400
; #@! TA.AperFunction,Plated,PTH,ComponentDrill
T2C1.000
%
G90
G05
T1
X172.72Y-95.885
X174.632Y-93.218
X177.8Y-78.105
X179.959Y-83.185
X184.295Y-85.852
X185.42Y-78.105
X187.765Y-81.28
X187.765Y-85.09
X187.96Y-89.535
X188.595Y-82.55
X189.23Y-89.535
X190.38Y-89.535
X190.5Y-80.645
X191.134Y-82.945
X191.135Y-74.93
X191.135Y-76.835
X191.565Y-84.25
X192.405Y-76.835
X193.235Y-82.175
X193.246Y-80.723
X193.675Y-76.835
X194.945Y-78.345
X195.58Y-91.44
X196.115Y-77.751
X196.215Y-74.93
X196.215Y-80.01
X196.821Y-83.189
X196.85Y-84.455
X197.394Y-80.789
X197.485Y-93.345
X198.261Y-82.132
X199.163Y-85.965
X199.39Y-81.915
X199.644Y-88.392
X202.986Y-84.001
X205.74Y-76.2
X206.709Y-84.121
X209.804Y-85.97
T2
X170.18Y-80.64
X170.18Y-83.18
X173.355Y-98.425
X175.895Y-98.425
X178.435Y-98.425
X180.975Y-98.425
X183.515Y-98.425
X186.055Y-98.425
X188.595Y-98.425
X191.135Y-98.425
X193.675Y-98.425
X198.12Y-98.425
X200.66Y-98.425
X203.2Y-98.425
X205.74Y-98.425
X209.545Y-78.74
X209.545Y-81.28
X209.545Y-83.82
X212.085Y-78.74
X212.085Y-81.28
X212.085Y-83.82
X212.09Y-87.63
X212.09Y-90.17
X212.09Y-92.71
X212.09Y-95.25
M30
