%TF.GenerationSoftware,KiCad,Pcbnew,10.0.3-2.fc44*%
%TF.CreationDate,2026-06-25T23:19:12+05:30*%
%TF.ProjectId,MCU Datalogger,4d435520-4461-4746-916c-6f676765722e,1*%
%TF.SameCoordinates,Original*%
%TF.FileFunction,Soldermask,Top*%
%TF.FilePolarity,Negative*%
%FSLAX46Y46*%
G04 Gerber Fmt 4.6, Leading zero omitted, Abs format (unit mm)*
G04 Created by KiCad (PCBNEW 10.0.3-2.fc44) date 2026-06-25 23:19:12*
%MOMM*%
%LPD*%
G01*
G04 APERTURE LIST*
G04 Aperture macros list*
%AMRoundRect*
0 Rectangle with rounded corners*
0 $1 Rounding radius*
0 $2 $3 $4 $5 $6 $7 $8 $9 X,Y pos of 4 corners*
0 Add a 4 corners polygon primitive as box body*
4,1,4,$2,$3,$4,$5,$6,$7,$8,$9,$2,$3,0*
0 Add four circle primitives for the rounded corners*
1,1,$1+$1,$2,$3*
1,1,$1+$1,$4,$5*
1,1,$1+$1,$6,$7*
1,1,$1+$1,$8,$9*
0 Add four rect primitives between the rounded corners*
20,1,$1+$1,$2,$3,$4,$5,0*
20,1,$1+$1,$4,$5,$6,$7,0*
20,1,$1+$1,$6,$7,$8,$9,0*
20,1,$1+$1,$8,$9,$2,$3,0*%
G04 Aperture macros list end*
%ADD10RoundRect,0.250001X1.499999X0.949999X-1.499999X0.949999X-1.499999X-0.949999X1.499999X-0.949999X0*%
%ADD11RoundRect,0.250000X0.262500X0.450000X-0.262500X0.450000X-0.262500X-0.450000X0.262500X-0.450000X0*%
%ADD12RoundRect,0.243750X-0.243750X-0.456250X0.243750X-0.456250X0.243750X0.456250X-0.243750X0.456250X0*%
%ADD13RoundRect,0.162500X-0.650000X-0.162500X0.650000X-0.162500X0.650000X0.162500X-0.650000X0.162500X0*%
%ADD14RoundRect,0.250000X-0.250000X-0.475000X0.250000X-0.475000X0.250000X0.475000X-0.250000X0.475000X0*%
%ADD15RoundRect,0.099250X-0.987750X-0.297750X0.987750X-0.297750X0.987750X0.297750X-0.987750X0.297750X0*%
%ADD16RoundRect,0.250000X0.250000X0.475000X-0.250000X0.475000X-0.250000X-0.475000X0.250000X-0.475000X0*%
%ADD17R,1.700000X1.700000*%
%ADD18C,1.700000*%
%ADD19RoundRect,0.250000X-0.262500X-0.450000X0.262500X-0.450000X0.262500X0.450000X-0.262500X0.450000X0*%
%ADD20C,2.100000*%
%ADD21RoundRect,0.094250X-0.742750X-0.282750X0.742750X-0.282750X0.742750X0.282750X-0.742750X0.282750X0*%
%ADD22RoundRect,0.094250X-0.282750X-0.742750X0.282750X-0.742750X0.282750X0.742750X-0.282750X0.742750X0*%
%ADD23RoundRect,0.250001X0.949999X-1.499999X0.949999X1.499999X-0.949999X1.499999X-0.949999X-1.499999X0*%
G04 APERTURE END LIST*
D10*
%TO.C,Y2*%
X187265000Y-92075000D03*
X192465000Y-92075000D03*
%TD*%
D11*
%TO.C,R3*%
X200937500Y-83820000D03*
X199112500Y-83820000D03*
%TD*%
D12*
%TO.C,D2*%
X199087500Y-74295000D03*
X200962500Y-74295000D03*
%TD*%
D13*
%TO.C,U3*%
X174212500Y-74295000D03*
X174212500Y-75565000D03*
X174212500Y-76835000D03*
X174212500Y-78105000D03*
X181387500Y-78105000D03*
X181387500Y-76835000D03*
X181387500Y-75565000D03*
X181387500Y-74295000D03*
%TD*%
D14*
%TO.C,C3*%
X188280000Y-74930000D03*
X190180000Y-74930000D03*
%TD*%
D11*
%TO.C,R5*%
X205382500Y-77470000D03*
X203557500Y-77470000D03*
%TD*%
D15*
%TO.C,U2*%
X175325000Y-88265000D03*
X175325000Y-89535000D03*
X175325000Y-90805000D03*
X175325000Y-92075000D03*
X180275000Y-92075000D03*
X180275000Y-90805000D03*
X180275000Y-89535000D03*
X180275000Y-88265000D03*
%TD*%
D16*
%TO.C,C4*%
X200975000Y-93980000D03*
X199075000Y-93980000D03*
%TD*%
D14*
%TO.C,C1*%
X183835000Y-74930000D03*
X185735000Y-74930000D03*
%TD*%
D17*
%TO.C,J3*%
X198120000Y-98425000D03*
D18*
X200660000Y-98425000D03*
X203200000Y-98425000D03*
X205740000Y-98425000D03*
%TD*%
D19*
%TO.C,R1*%
X174982500Y-94615000D03*
X176807500Y-94615000D03*
%TD*%
D11*
%TO.C,R4*%
X200937500Y-80645000D03*
X199112500Y-80645000D03*
%TD*%
D20*
%TO.C,H4*%
X215900000Y-100965000D03*
%TD*%
D17*
%TO.C,BT1*%
X170180000Y-80640000D03*
D18*
X170180000Y-83180000D03*
%TD*%
D12*
%TO.C,D1*%
X203532500Y-74295000D03*
X205407500Y-74295000D03*
%TD*%
D17*
%TO.C,J1*%
X212090000Y-87630000D03*
D18*
X212090000Y-90170000D03*
X212090000Y-92710000D03*
X212090000Y-95250000D03*
%TD*%
D20*
%TO.C,H1*%
X165100000Y-71755000D03*
%TD*%
D17*
%TO.C,J4*%
X209545000Y-78740000D03*
D18*
X212085000Y-78740000D03*
X209545000Y-81280000D03*
X212085000Y-81280000D03*
X209545000Y-83820000D03*
X212085000Y-83820000D03*
%TD*%
D21*
%TO.C,U4*%
X186330000Y-80385000D03*
X186330000Y-81185000D03*
X186330000Y-81985000D03*
X186330000Y-82785000D03*
X186330000Y-83585000D03*
X186330000Y-84385000D03*
X186330000Y-85185000D03*
X186330000Y-85985000D03*
D22*
X187700000Y-87355000D03*
X188500000Y-87355000D03*
X189300000Y-87355000D03*
X190100000Y-87355000D03*
X190900000Y-87355000D03*
X191700000Y-87355000D03*
X192500000Y-87355000D03*
X193300000Y-87355000D03*
D21*
X194670000Y-85985000D03*
X194670000Y-85185000D03*
X194670000Y-84385000D03*
X194670000Y-83585000D03*
X194670000Y-82785000D03*
X194670000Y-81985000D03*
X194670000Y-81185000D03*
X194670000Y-80385000D03*
D22*
X193300000Y-79015000D03*
X192500000Y-79015000D03*
X191700000Y-79015000D03*
X190900000Y-79015000D03*
X190100000Y-79015000D03*
X189300000Y-79015000D03*
X188500000Y-79015000D03*
X187700000Y-79015000D03*
%TD*%
D20*
%TO.C,H2*%
X165100000Y-100965000D03*
%TD*%
D14*
%TO.C,C2*%
X199075000Y-90805000D03*
X200975000Y-90805000D03*
%TD*%
D23*
%TO.C,Y1*%
X170180000Y-93980000D03*
X170180000Y-88780000D03*
%TD*%
D19*
%TO.C,R6*%
X203557500Y-80645000D03*
X205382500Y-80645000D03*
%TD*%
D13*
%TO.C,U1*%
X174212500Y-81280000D03*
X174212500Y-82550000D03*
X174212500Y-83820000D03*
X174212500Y-85090000D03*
X181387500Y-85090000D03*
X181387500Y-83820000D03*
X181387500Y-82550000D03*
X181387500Y-81280000D03*
%TD*%
D20*
%TO.C,H3*%
X215900000Y-71755000D03*
%TD*%
D19*
%TO.C,R7*%
X199112500Y-77470000D03*
X200937500Y-77470000D03*
%TD*%
%TO.C,R2*%
X178792500Y-94615000D03*
X180617500Y-94615000D03*
%TD*%
D17*
%TO.C,J2*%
X173355000Y-98425000D03*
D18*
X175895000Y-98425000D03*
X178435000Y-98425000D03*
X180975000Y-98425000D03*
X183515000Y-98425000D03*
X186055000Y-98425000D03*
X188595000Y-98425000D03*
X191135000Y-98425000D03*
X193675000Y-98425000D03*
%TD*%
D14*
%TO.C,C5*%
X192725000Y-74930000D03*
X194625000Y-74930000D03*
%TD*%
M02*
